<?xml version="1.0" encoding="utf-8"?>
<!-- Generator: Adobe Illustrator 16.1.0, SVG Export Plug-In . SVG Version: 6.00 Build 0)  -->
<!DOCTYPE svg PUBLIC "-//W3C//DTD SVG 1.1//EN" "http://www.w3.org/Graphics/SVG/1.1/DTD/svg11.dtd">
<svg version="1.1" id="Layer_1" xmlns="http://www.w3.org/2000/svg" xmlns:xlink="http://www.w3.org/1999/xlink" x="0px" y="0px"
         width="936px" height="500px" viewBox="0 0 936 500" enable-background="new 0 0 936 500" xml:space="preserve">
<g id="Layer_3">
        <rect y="-466.5" fill="#79D1B0" width="936" height="1433"/>
</g>
<g id="desktop" opacity="0.251">
        <g>
                <path d="M659.196,84.755v261.407c0,13.202-10.562,23.764-23.764,23.764H516.621v22.885l66.447,33.445
                        c3.08,0.881,4.84,3.961,4.84,7.041c0,4.401-3.521,7.922-7.921,7.922H358.203c-3.521,0-7.041-2.641-7.921-6.161
                        c-0.44-3.521,0.88-7.041,4.4-8.802l66.888-33.445v-22.885H302.757c-13.202,0-23.763-10.562-23.763-23.764V84.755
                        c0-13.202,10.561-23.764,23.763-23.764h332.676C648.635,60.991,659.196,71.553,659.196,84.755z M611.671,108.519H326.52v213.877
                        h285.151V108.519z"/>
        </g>
</g>
<g id="clock" opacity="0.251">
        <g>
                <path d="M539.568,216.931c0,39.797-32.071,71.937-71.785,71.937s-71.785-32.14-71.785-71.937c0-39.798,32.07-71.936,71.785-71.936
                        C507.497,144.995,539.568,177.133,539.568,216.931z M507.996,240.244l-29.246-29.308l-10.967-47.958h-11.964v53.952
                        c0,2.998,1.163,6.162,3.488,8.493c0.665,0.666,1.33,1.166,1.994,1.665l38.22,21.647L507.996,240.244z"/>
        </g>
</g>
</svg>
