<?xml version="1.0" encoding="utf-8"?>
<!-- Generator: Adobe Illustrator 17.0.0, SVG Export Plug-In . SVG Version: 6.00 Build 0)  -->
<!DOCTYPE svg PUBLIC "-//W3C//DTD SVG 1.1//EN" "http://www.w3.org/Graphics/SVG/1.1/DTD/svg11.dtd">
<svg version="1.1" id="Layer_1" xmlns="http://www.w3.org/2000/svg" xmlns:xlink="http://www.w3.org/1999/xlink" x="0px" y="0px"
	 width="178px" height="178px" viewBox="402 0 178 178" enable-background="new 402 0 178 178" xml:space="preserve">
<path fill="#542C7C" d="M415.956,56.594l10.552-2.981c3.576-1.01,5.14-3.741,5.887-6.669l0.309-0.088l-0.589,9.224l-20.088,5.677
	L415.956,56.594z"/>
<path fill="#4DBEED" d="M417.652,54.161c4.669-6.087,9.408-12.433,7.649-18.657c-0.674-2.384-2.44-4.078-5.928-3.092
	c-1.942,0.549-4.115,1.973-5.71,4.425l-0.314-0.101c1.379-4.06,3.953-6.933,7.705-7.994c4.415-1.247,7.31,0.224,8.445,4.241
	c1.984,7.02-5.26,14.12-11.52,21.324L417.652,54.161z"/>
<path fill="#542C7C" d="M419.93,121.825c-0.081,1.739,0.068,2.604,0.418,3.839c0.487,1.722,2.405,2.943,5.52,2.493l-0.032,0.39
	l-12.893,3.643l0.033-0.391c4.542-1.808,5.495-6.367,6.496-10.083L419.93,121.825z"/>
<path fill="#4DBEED" d="M437.01,125.58l-18.439-19.868c-0.966-1.061-1.79-1.783-2.923-2.415c-1.076-0.603-2.116-0.738-3.621-0.504
	l0.031-0.39l7.595-2.145l17.645,19.09l-0.068,6.17L437.01,125.58z"/>
<path fill="#EF2863" d="M436.109,104c-0.021-1.424-0.268-2.975-0.618-4.212c-0.449-1.589-2.217-2.615-5.407-2.095l0.032-0.391
	l12.009-3.393l-0.032,0.391c-3.672,1.514-5.169,4.655-5.637,9.746L436.109,104z"/>
<path fill="#3B3B50" d="M453.691,120.677l-8.124,2.295l0.033-0.39c2.825-1.133,3.763-2.876,3.784-7.362l0.037-17.079
	c0.018-1.626-0.119-2.445-0.319-3.152c-0.424-1.501-2.017-1.909-3.877-1.574l0.032-0.391l8.434-2.383V120.677z"/>
<path fill="#EF2863" d="M456.549,119.489c2.523-0.856,5.237-2.386,7.001-4.077c2.616-2.551,3.126-4.458,4.198-9.1l0.398-0.112
	l-0.195,10.448l-11.347,3.206L456.549,119.489z"/>
<path fill="#542C7C" d="M462.917,97.141l0.353-0.099l0.149,11.494l-0.353,0.1c-1.061-3.753-2.349-4.772-6.051-3.869l-0.012-0.379
	C461.128,103.129,462.059,101.531,462.917,97.141"/>
<path fill="#4DBEED" d="M456.56,90.165l0.001-0.334l9.006-2.544l0.707,8.573l-0.353,0.1
	C464.065,90.237,462.084,88.795,456.56,90.165"/>
<path fill="#4DBEED" d="M507.463,75.449l-0.032,0.391c-1.824,0.801-3.314,1.937-4.352,3.327c-1.455,1.937-2.405,3.635-2.98,6.324
	l-0.461-0.108c0.213-1.108,0.532-2.677,0.082-4.267c-0.436-1.546-2.419-2.321-3.768-2.034l0.032-0.391L507.463,75.449z"/>
<path fill="#EF2863" d="M412.027,67.538l0.033-0.39l8.433-2.383v30.035l-8.124,2.296l0.032-0.392
	c2.827-1.132,3.765-2.874,3.784-7.362l0.038-17.078c0.018-1.626-0.119-2.445-0.318-3.152
	C415.481,67.612,413.887,67.203,412.027,67.538"/>
<path fill="#3B3B50" d="M425.172,93.477l-1.766,0.499l-0.011-0.378c7.152-2.02,9.025-6.363,7.677-11.132
	c-0.873-3.091-2.972-5.121-7.518-4.169l-0.012-0.378c4.857-1.372,6.509-5.987,5.498-9.563c-0.474-1.678-1.51-3.15-3.108-3.746
	c-0.856-0.331-1.814-0.345-2.956-0.166l-0.011-0.378c4.724-1.335,9.095-0.71,10.107,2.865c1.272,4.504-2.137,8.47-6.977,10.409
	c4.49-0.648,8.38,0.301,9.442,4.055C437.109,86.958,432.016,91.544,425.172,93.477"/>
<path fill="#3B3B50" d="M466.714,81.741l0.032-0.39c1.824-0.802,3.358-1.95,4.396-3.34c1.455-1.937,1.957-3.366,2.904-5.921
	l0.391,0.033c-0.213,1.108-0.429,2.361,0.019,3.952c0.4,1.412,2.023,2.431,3.372,2.145l-0.033,0.391L466.714,81.741z"/>
<path fill="#EF2863" d="M482.446,63.851l-4.155-9.982l1.424-6.266l0.838-0.237l8.791,21.497c1.527,3.716,2.904,5.043,5.924,4.428
	l-0.032,0.39l-12.495,3.531l0.033-0.391c3.489-1.32,3.464-3.267,2.233-6.78l-2.197-5.244l-8.3,2.346l0.3-1.134L482.446,63.851z"/>
<path fill="#4DBEED" d="M502.223,63.317c-0.081,1.74,0.068,2.603,0.417,3.839c0.487,1.722,2.405,2.945,5.52,2.493l-0.033,0.391
	l-12.892,3.643l0.032-0.391c4.542-1.807,5.495-6.368,6.496-10.083L502.223,63.317z"/>
<path fill="#542C7C" d="M519.303,67.072l-18.438-19.867c-0.967-1.062-1.791-1.783-2.923-2.416c-1.075-0.601-2.116-0.737-3.622-0.502
	l0.032-0.39l7.594-2.145l17.645,19.09l-0.068,6.169L519.303,67.072z"/>
<path fill="#EF2863" d="M518.402,45.492c-0.02-1.424-0.269-2.974-0.617-4.212c-0.449-1.59-2.217-2.615-5.408-2.095l0.033-0.39
	l12.009-3.394l-0.034,0.391c-3.672,1.514-5.168,4.654-5.637,9.745L518.402,45.492z"/>
<path fill="#3B3B50" d="M526.635,35.157l0.032-0.391l8.433-2.383l0.001,30.035l-8.124,2.295l0.033-0.391
	c2.827-1.132,3.764-2.875,3.784-7.362l0.037-17.079c0.018-1.625-0.119-2.445-0.318-3.151
	C530.089,35.231,528.496,34.822,526.635,35.157"/>
<path fill="#4DBEED" d="M548.612,56.075c-2.718,2.532-6.415,4.292-10.598,5.521l-0.055-0.367
	c8.396-2.847,13.926-10.274,10.882-21.047c-1.796-6.357-5.059-9.297-10.86-8.231l-0.011-0.378
	c6.797-1.253,13.233,0.266,15.304,7.595C555.133,45.747,553.136,51.841,548.612,56.075"/>
<path fill="#4DBEED" d="M447.189,80.965c-0.017,1.625,0.087,2.502,0.287,3.208c0.424,1.502,1.929,1.935,3.909,1.518l-0.033,0.391
	l-12.274,3.467l0.032-0.391c2.827-1.133,3.765-2.875,3.784-7.362l0.038-17.078c0.017-1.627-0.119-2.446-0.318-3.153
	c-0.424-1.501-2.017-1.909-3.877-1.574l0.032-0.39l8.433-2.383L447.189,80.965z"/>
<path fill="#542C7C" d="M455.044,61.01c-0.624-2.207-2.194-4.052-5.887-3.961l0.032-0.391c4.994-0.887,9.202-0.169,10.349,3.895
	c1.136,4.016-0.65,6.809-4.98,9.369c1.6,2.456,4.793,5.935,7.104,8.714c2.01,2.389,4.391,2.717,6.075,2.432l0.012,0.378
	c0,0-2.549,0.768-4.919,1.152c-3.191,0.52-4.661-0.972-5.401-1.907c-2.048-2.52-4.549-5.576-6.852-9.168l0.026-0.246
	C455.768,69.482,456.266,65.337,455.044,61.01"/>
<path fill="#EF2863" d="M412.027,167.896l0.033-0.391c1.824-0.801,3.358-1.95,4.396-3.34c1.455-1.937,1.956-3.366,2.903-5.922
	l0.391,0.033c-0.211,1.108-0.428,2.363,0.02,3.951c0.399,1.412,2.022,2.433,3.372,2.146l-0.033,0.392L412.027,167.896z"/>
<path fill="#3B3B50" d="M427.759,150.005l-4.155-9.981l1.423-6.266l0.839-0.236l8.791,21.495c1.527,3.716,2.903,5.045,5.924,4.429
	l-0.032,0.391l-12.495,3.53l0.033-0.391c3.489-1.319,3.464-3.267,2.232-6.78l-2.197-5.244l-8.301,2.346l0.3-1.134L427.759,150.005z"
	/>
<path fill="#3B3B50" d="M472.734,120.709L472.7,121.1c-1.824,0.802-3.314,1.938-4.352,3.327c-1.455,1.937-2.405,3.636-2.98,6.325
	l-0.459-0.108c0.211-1.109,0.531-2.677,0.082-4.266c-0.436-1.546-2.419-2.32-3.769-2.034l0.033-0.39L472.734,120.709z"/>
<path fill="#3B3B50" d="M466.197,152.591l0.032-0.391c1.824-0.801,3.358-1.95,4.396-3.34c1.455-1.937,1.957-3.366,2.903-5.922
	l0.391,0.033c-0.211,1.109-0.429,2.362,0.02,3.951c0.4,1.412,2.023,2.433,3.372,2.146l-0.032,0.391L466.197,152.591z"/>
<path fill="#542C7C" d="M481.929,134.701l-4.155-9.981l1.423-6.267l0.839-0.237l8.791,21.496c1.527,3.716,2.903,5.044,5.923,4.428
	l-0.031,0.392l-12.495,3.53l0.033-0.392c3.489-1.319,3.464-3.266,2.232-6.78l-2.196-5.243l-8.301,2.345l0.3-1.134L481.929,134.701z"
	/>
<path fill="#4DBEED" d="M502.297,136.098c-0.017,1.627,0.087,2.503,0.287,3.208c0.424,1.502,1.929,1.934,3.909,1.518l-0.032,0.391
	l-12.274,3.467l0.033-0.391c2.825-1.132,3.763-2.876,3.783-7.363l0.038-17.077c0.018-1.627-0.119-2.446-0.319-3.153
	c-0.424-1.5-2.018-1.908-3.877-1.574l0.032-0.39l8.433-2.383L502.297,136.098z"/>
<path fill="#EF2863" d="M510.151,116.144c-0.623-2.207-2.193-4.052-5.886-3.962l0.032-0.389c4.994-0.888,9.201-0.17,10.349,3.893
	c1.135,4.016-0.65,6.81-4.981,9.369c1.6,2.456,4.793,5.935,7.104,8.714c2.01,2.389,4.392,2.716,6.075,2.431l0.012,0.379
	c0,0-2.548,0.767-4.92,1.151c-3.19,0.52-4.66-0.972-5.401-1.907c-2.047-2.52-4.549-5.575-6.851-9.167l0.026-0.246
	C510.876,124.616,511.373,120.471,510.151,116.144"/>
<path fill="#3B3B50" d="M522.515,107.026l0.032-0.391l8.434-2.383v30.035l-8.124,2.295l-0.013-0.383
	c2.827-1.133,3.81-2.883,3.829-7.37l0.038-17.078c0.018-1.627-0.119-2.446-0.318-3.153
	C525.968,107.098,524.376,106.691,522.515,107.026"/>
<path fill="#542C7C" d="M544.492,127.943c-2.718,2.531-6.415,4.292-10.598,5.521l-0.056-0.367
	c8.397-2.848,13.926-10.274,10.883-21.047c-1.796-6.358-5.059-9.298-10.859-8.23l-0.013-0.378
	c6.797-1.254,13.233,0.265,15.304,7.595C551.012,117.616,549.016,123.709,544.492,127.943"/>
<path fill="#4DBEED" d="M553.568,126.666l-0.219-9.044l0.397-0.112c0.771,3.741,3.184,8.063,7.097,8.244l-0.075,0.404
	C558.508,126.605,554.789,126.94,553.568,126.666"/>
<path fill="#EF2863" d="M562.601,125.735l0.033-0.39c2.825-1.133,4.749-3.774,3.727-7.394c-0.637-2.251-3.648-4.643-6.099-6.906
	c-3.161-2.92-4.494-3.927-5.318-6.842c-0.961-3.398,1.49-7.38,5.502-8.705l-0.02,0.436c-2.044,0.863-2.845,3.092-2.271,5.123
	c0.736,2.604,2.295,3.738,5.4,6.626c2.922,2.751,5.199,4.396,6.023,7.309C571.313,121.128,567.03,124.197,562.601,125.735"/>
<path fill="#3B3B50" d="M568.934,102.253c-0.625-3.733-3.672-6.925-6.907-6.725l0.02-0.435c1.747-0.398,5.534-0.324,7.179-0.408
	l0.104,7.456L568.934,102.253z"/>
<path fill="#542C7C" d="M491.248,86.562c-1.32-3.489-1.258-5.461,2.232-6.781l0.033-0.391l-11.7,3.307l-0.036,0.437
	c2.715-0.411,3.715,1.047,5.088,4.618l7.908,21.746l0.397-0.112l1.577-7.072L491.248,86.562z"/>
<path fill="#EF2863" d="M478.444,90.179c-1.266-3.346-1.251-5.296,1.829-6.613l0.038-0.446l-12.142,3.43l-0.033,0.391
	c3.021-0.614,4.485,0.688,5.924,4.429l7.908,21.746l0.397-0.111l1.578-7.073L478.444,90.179z"/>
<path fill="#4DBEED" d="M456.517,131.823c-1.32-3.489-1.258-5.461,2.232-6.781l0.033-0.391l-11.7,3.307l-0.036,0.436
	c2.715-0.41,3.715,1.048,5.088,4.619l7.908,21.746l0.397-0.112l1.577-7.072L456.517,131.823z"/>
<path fill="#542C7C" d="M443.714,135.44c-1.266-3.346-1.251-5.296,1.829-6.614l0.038-0.445l-12.142,3.43l-0.033,0.391
	c3.021-0.614,4.485,0.688,5.924,4.429l7.908,21.746l0.397-0.111l1.578-7.073L443.714,135.44z"/>
<path fill="#3B3B50" d="M458.664,28.223c-1.659-5.87-5.42-8.042-9.635-7.311l0.012,0.393c2.495-0.194,3.722,1.725,4.731,5.297
	c0.749,2.649,1.323,6.873,1.083,11.089c-0.26,4.65-1.3,9.234-3.69,11.912c-0.71,0.776-1.667,1.368-2.478,1.755l0.012,0.393
	C457.628,48.178,460.843,35.937,458.664,28.223"/>
<path fill="#EF2863" d="M446.976,51.844c-2.652,0.263-3.809-2.2-4.589-4.958c-0.849-3.002-1.378-7.24-1.138-11.454
	c0.259-4.651,1.269-9.178,3.646-11.899c0.667-0.763,1.624-1.36,2.434-1.747l-0.012-0.388c-8.843,3.548-12.057,15.789-9.829,23.678
	c1.596,5.647,5.615,7.788,9.498,7.158L446.976,51.844z"/>
<path fill="#4DBEED" d="M471.943,38.925c0.032,3.996,1.038,4.856,4.052,4.386l0.012,0.378l-11.655,3.294l-0.012-0.379
	c2.947-1.214,3.574-2.536,3.542-6.531l-0.01-17.922c0.019-1.959-0.23-3.176-0.795-3.827c-0.622-0.683-1.737-0.749-3.289-0.502
	l-0.011-0.378c3.443-0.973,5.557-1.76,8.333-2.736c-0.068,1.784-0.128,2.754-0.1,5.892L471.943,38.925z"/>
<path fill="#542C7C" d="M488.233,34.322c0.032,3.995,1.038,4.856,4.052,4.385l0.012,0.378l-11.657,3.293l-0.011-0.378
	c2.946-1.214,3.574-2.536,3.542-6.532l-0.01-17.922c0.018-1.96-0.23-3.176-0.796-3.828c-0.622-0.682-1.737-0.748-3.288-0.502
	l-0.011-0.378c3.444-0.973,5.557-1.761,8.333-2.736c-0.068,1.784-0.128,2.754-0.1,5.892L488.233,34.322z"/>
</svg>
