<?xml version="1.0" encoding="utf-8"?>
<!-- Generator: Adobe Illustrator 17.0.0, SVG Export Plug-In . SVG Version: 6.00 Build 0)  -->
<!DOCTYPE svg PUBLIC "-//W3C//DTD SVG 1.1//EN" "http://www.w3.org/Graphics/SVG/1.1/DTD/svg11.dtd">
<svg version="1.1" id="Layer_1" xmlns="http://www.w3.org/2000/svg" xmlns:xlink="http://www.w3.org/1999/xlink" x="0px" y="0px"
	 width="612px" height="240px" viewBox="0 0 612 240" enable-background="new 0 0 612 240" xml:space="preserve">
<g>
	<path fill="#EAEAEA" d="M0,237c0,1.65,1.35,3,3,3h606c1.65,0,3-1.35,3-3V3c0-1.65-1.35-3-3-3H3C1.35,0,0,1.35,0,3V237z"/>
</g>
<g>
	<path fill="#383938" d="M105.105,192.652h2.205v7.92h4.35v1.859h-6.555V192.652z"/>
	<path fill="#383938" d="M113.686,194.992h5.19v7.439h-2.205v-5.715h-2.985V194.992z M116.206,192.562c0-0.811,0.614-1.38,1.47-1.38
		c0.854,0,1.47,0.569,1.47,1.38c0,0.81-0.615,1.335-1.47,1.335C116.82,193.897,116.206,193.372,116.206,192.562z"/>
	<path fill="#383938" d="M122.581,194.992h1.8l0.165,0.99h0.06c0.646-0.63,1.455-1.17,2.565-1.17c1.68,0,2.43,1.154,2.43,3.029v4.59
		h-2.205v-4.305c0-0.99-0.285-1.439-1.095-1.439c-0.6,0-0.99,0.27-1.515,0.779v4.965h-2.205V194.992z"/>
	<path fill="#383938" d="M135.195,194.812c2.295,0,3.495,1.545,3.495,3.569c0,0.391-0.06,0.75-0.09,0.931h-5.01
		c0.21,1.124,1.065,1.619,2.16,1.619c0.675,0,1.26-0.18,1.92-0.51l0.72,1.32c-0.84,0.54-1.95,0.87-2.939,0.87
		c-2.311,0-4.125-1.44-4.125-3.9C131.326,196.282,133.216,194.812,135.195,194.812z M136.695,197.947
		c0-0.855-0.449-1.455-1.454-1.455c-0.795,0-1.5,0.465-1.681,1.455H136.695z"/>
	<path fill="#383938" d="M145.32,197.647c-0.074-0.676-0.585-1.08-1.59-1.08c-0.72,0-1.425,0.27-2.265,0.689l-0.78-1.439
		c1.021-0.585,2.205-1.005,3.48-1.005c2.085,0,3.359,1.08,3.359,3.359v4.26h-1.8l-0.165-0.84h-0.06
		c-0.75,0.57-1.681,1.021-2.64,1.021c-1.5,0-2.445-0.99-2.445-2.25C140.416,198.697,141.796,197.857,145.32,197.647z
		 M143.565,200.902c0.66,0,1.23-0.301,1.755-0.705v-1.23c-2.189,0.12-2.789,0.585-2.789,1.23
		C142.531,200.677,142.936,200.902,143.565,200.902z"/>
	<path fill="#383938" d="M150.241,194.992h1.8l0.18,1.62h0.045c0.735-1.215,1.83-1.8,3.015-1.8c0.66,0,1.006,0.104,1.44,0.3
		l-0.45,1.845c-0.465-0.135-0.765-0.21-1.319-0.21c-0.915,0-1.875,0.48-2.505,1.815v3.869h-2.205V194.992z"/>
	<path fill="#383938" d="M171.195,194.812c2.295,0,3.495,1.545,3.495,3.569c0,0.391-0.06,0.75-0.09,0.931h-5.01
		c0.21,1.124,1.065,1.619,2.16,1.619c0.675,0,1.26-0.18,1.92-0.51l0.72,1.32c-0.84,0.54-1.95,0.87-2.939,0.87
		c-2.311,0-4.125-1.44-4.125-3.9C167.326,196.282,169.216,194.812,171.195,194.812z M172.695,197.947
		c0-0.855-0.449-1.455-1.454-1.455c-0.795,0-1.5,0.465-1.681,1.455H172.695z"/>
	<path fill="#383938" d="M181.32,197.647c-0.074-0.676-0.585-1.08-1.59-1.08c-0.72,0-1.425,0.27-2.265,0.689l-0.78-1.439
		c1.021-0.585,2.205-1.005,3.48-1.005c2.085,0,3.359,1.08,3.359,3.359v4.26h-1.8l-0.165-0.84h-0.06
		c-0.75,0.57-1.681,1.021-2.64,1.021c-1.5,0-2.445-0.99-2.445-2.25C176.416,198.697,177.796,197.857,181.32,197.647z
		 M179.565,200.902c0.66,0,1.23-0.301,1.755-0.705v-1.23c-2.189,0.12-2.789,0.585-2.789,1.23
		C178.531,200.677,178.936,200.902,179.565,200.902z"/>
	<path fill="#383938" d="M186.286,200.092c0.854,0.54,1.71,0.885,2.699,0.885c1.006,0,1.426-0.239,1.426-0.63
		c0-0.449-0.795-0.705-1.995-1.034c-1.305-0.36-2.655-0.99-2.655-2.176c0-1.38,1.305-2.324,3.435-2.324
		c1.32,0,2.431,0.524,3.21,1.02l-0.989,1.32c-0.676-0.405-1.396-0.705-2.175-0.705c-0.931,0-1.29,0.21-1.29,0.585
		c0,0.45,0.854,0.675,1.904,0.945c1.471,0.39,2.745,0.944,2.745,2.234c0,1.35-1.274,2.4-3.66,2.4c-1.335,0-2.699-0.511-3.645-1.141
		L186.286,200.092z"/>
	<path fill="#383938" d="M198.195,194.812c2.295,0,3.495,1.545,3.495,3.569c0,0.391-0.06,0.75-0.09,0.931h-5.01
		c0.21,1.124,1.065,1.619,2.16,1.619c0.675,0,1.26-0.18,1.92-0.51l0.72,1.32c-0.84,0.54-1.95,0.87-2.939,0.87
		c-2.311,0-4.125-1.44-4.125-3.9C194.326,196.282,196.216,194.812,198.195,194.812z M199.695,197.947
		c0-0.855-0.449-1.455-1.454-1.455c-0.795,0-1.5,0.465-1.681,1.455H199.695z"/>
</g>
<g>
	<path fill="#383938" d="M414.991,192.472c1.244,0,2.234,0.601,2.895,1.245l-1.215,1.365c-0.465-0.42-0.976-0.705-1.68-0.705
		c-1.381,0-2.4,1.185-2.4,3.149c0,2.01,1.02,3.18,2.49,3.18c0.705,0,1.26-0.345,1.739-0.869l1.215,1.335
		c-0.81,0.944-1.859,1.439-3.09,1.439c-2.52,0-4.619-1.725-4.619-5.01C410.326,194.361,412.381,192.472,414.991,192.472z"/>
	<path fill="#383938" d="M426.376,202.432h-1.8l-0.165-1.065h-0.061c-0.66,0.75-1.439,1.245-2.505,1.245
		c-1.694,0-2.415-1.155-2.415-3.03v-4.589h2.205v4.305c0,0.989,0.255,1.439,1.08,1.439c0.555,0,0.945-0.195,1.455-0.854v-4.89h2.205
		V202.432z"/>
	<path fill="#383938" d="M429.286,200.092c0.854,0.54,1.71,0.885,2.699,0.885c1.006,0,1.426-0.24,1.426-0.63
		c0-0.45-0.795-0.705-1.995-1.035c-1.305-0.36-2.655-0.99-2.655-2.175c0-1.38,1.305-2.325,3.435-2.325
		c1.32,0,2.431,0.525,3.21,1.021l-0.989,1.319c-0.676-0.404-1.396-0.705-2.175-0.705c-0.931,0-1.29,0.21-1.29,0.585
		c0,0.45,0.854,0.676,1.904,0.945c1.471,0.39,2.745,0.945,2.745,2.235c0,1.35-1.274,2.399-3.66,2.399
		c-1.335,0-2.699-0.51-3.645-1.14L429.286,200.092z"/>
	<path fill="#383938" d="M439.111,196.717h-1.86v-1.635l1.965-0.09l0.285-1.98h1.814v1.98h3.135v1.725h-3.135v2.609
		c0,1.125,0.48,1.561,1.561,1.561c0.569,0,1.064-0.12,1.5-0.271l0.39,1.59c-0.66,0.195-1.485,0.405-2.445,0.405
		c-2.369,0-3.209-1.32-3.209-3.27V196.717z"/>
	<path fill="#383938" d="M450.001,194.812c1.965,0,3.795,1.425,3.795,3.9c0,2.475-1.83,3.899-3.795,3.899s-3.795-1.425-3.795-3.899
		C446.206,196.236,448.036,194.812,450.001,194.812z M450.001,200.826c1.02,0,1.529-0.824,1.529-2.114s-0.51-2.115-1.529-2.115
		c-1.021,0-1.53,0.825-1.53,2.115S448.98,200.826,450.001,200.826z"/>
	<path fill="#383938" d="M455.041,194.992h1.649l0.165,0.93h0.061c0.285-0.615,0.734-1.11,1.59-1.11c0.66,0,1.125,0.42,1.305,1.215
		c0.271-0.675,0.795-1.215,1.635-1.215c1.035,0,1.65,0.915,1.65,2.4v5.22h-2.07v-5.055c0-0.465-0.12-0.69-0.42-0.69
		c-0.285,0-0.495,0.24-0.689,0.72v5.025h-1.695v-5.055c0-0.465-0.149-0.69-0.435-0.69s-0.465,0.24-0.675,0.72v5.025h-2.07V194.992z"
		/>
	<path fill="#383938" d="M477.195,194.812c2.295,0,3.495,1.545,3.495,3.57c0,0.39-0.06,0.75-0.09,0.93h-5.01
		c0.21,1.125,1.065,1.62,2.16,1.62c0.675,0,1.26-0.18,1.92-0.51l0.72,1.319c-0.84,0.54-1.95,0.87-2.939,0.87
		c-2.311,0-4.125-1.439-4.125-3.899C473.326,196.281,475.216,194.812,477.195,194.812z M478.695,197.946
		c0-0.854-0.449-1.455-1.454-1.455c-0.795,0-1.5,0.466-1.681,1.455H478.695z"/>
	<path fill="#383938" d="M487.32,197.646c-0.074-0.675-0.585-1.08-1.59-1.08c-0.72,0-1.425,0.271-2.265,0.69l-0.78-1.44
		c1.021-0.585,2.205-1.005,3.48-1.005c2.085,0,3.359,1.08,3.359,3.36v4.26h-1.8l-0.165-0.84h-0.06c-0.75,0.569-1.681,1.02-2.64,1.02
		c-1.5,0-2.445-0.99-2.445-2.25C482.416,198.696,483.796,197.856,487.32,197.646z M485.565,200.901c0.66,0,1.23-0.3,1.755-0.705
		v-1.229c-2.189,0.12-2.789,0.585-2.789,1.229C484.531,200.677,484.936,200.901,485.565,200.901z"/>
	<path fill="#383938" d="M492.286,200.092c0.854,0.54,1.71,0.885,2.699,0.885c1.006,0,1.426-0.24,1.426-0.63
		c0-0.45-0.795-0.705-1.995-1.035c-1.305-0.36-2.655-0.99-2.655-2.175c0-1.38,1.305-2.325,3.435-2.325
		c1.32,0,2.431,0.525,3.21,1.021l-0.989,1.319c-0.676-0.404-1.396-0.705-2.175-0.705c-0.931,0-1.29,0.21-1.29,0.585
		c0,0.45,0.854,0.676,1.904,0.945c1.471,0.39,2.745,0.945,2.745,2.235c0,1.35-1.274,2.399-3.66,2.399
		c-1.335,0-2.699-0.51-3.645-1.14L492.286,200.092z"/>
	<path fill="#383938" d="M504.195,194.812c2.295,0,3.495,1.545,3.495,3.57c0,0.39-0.06,0.75-0.09,0.93h-5.01
		c0.21,1.125,1.065,1.62,2.16,1.62c0.675,0,1.26-0.18,1.92-0.51l0.72,1.319c-0.84,0.54-1.95,0.87-2.939,0.87
		c-2.311,0-4.125-1.439-4.125-3.899C500.326,196.281,502.216,194.812,504.195,194.812z M505.695,197.946
		c0-0.854-0.449-1.455-1.454-1.455c-0.795,0-1.5,0.466-1.681,1.455H505.695z"/>
</g>

<circle fill="#FFFFFF" stroke="#B450FF" stroke-width="6" stroke-miterlimit="10" cx="153" cy="137" r="6">
	<animate attributeName="cy" from="137" to="137" begin="0s" dur="4s" values="137;117;117;60;60;137;137" keySplines="0 0 1 1; 0 0 1 1; 0 0 1 1; 0 0 1 1; 0 0 1 1; 0 0 1 1" keyTimes="0;0.22;0.33;0.55;0.66;0.88;1" calcMode="spline" repeatCount="indefinite" />
</circle>

<circle fill="#FFFFFF" stroke="#B450FF" stroke-width="6" stroke-miterlimit="10" cx="459" cy="137" r="6">
	<animate attributeName="cy" from="137" to="137" begin="0s" dur="4s" values="137;117;117;60;60;137;137" keySplines="0.1 0.8 0.2 1; 0.1 0.8 0.2 1; 0.1 0.8 0.2 1; 0.1 0.8 0.2 1; 0.1 0.8 0.2 1; 0.1 0.8 0.2 1" keyTimes="0;0.22;0.33;0.55;0.66;0.88;1" calcMode="spline" repeatCount="indefinite" />
</circle>

</svg>
