<?xml version="1.0" encoding="utf-8"?>
<!-- Generator: Adobe Illustrator 17.0.0, SVG Export Plug-In . SVG Version: 6.00 Build 0)  -->
<!DOCTYPE svg PUBLIC "-//W3C//DTD SVG 1.1//EN" "http://www.w3.org/Graphics/SVG/1.1/DTD/svg11.dtd">
<svg version="1.1" id="Layer_1" xmlns="http://www.w3.org/2000/svg" xmlns:xlink="http://www.w3.org/1999/xlink" x="0px" y="0px"
	 width="612px" height="384px" viewBox="0 0 612 384" enable-background="new 0 0 612 384" xml:space="preserve">
<g>
	<path fill="#EAEAEA" d="M0,381c0,1.65,1.35,3,3,3h606c1.65,0,3-1.35,3-3V3c0-1.65-1.35-3-3-3H3C1.35,0,0,1.35,0,3V381z"/>
</g>
<g>
	<path fill="#BEBEBF" d="M358,331.5H177v-181h181V331.5z M178,330.5h179v-179H178V330.5z"/>
</g>
<g>
	<path fill="#00A4FF" d="M231.5,46c-0.79,0-1.56-0.32-2.12-0.88c-0.56-0.56-0.88-1.33-0.88-2.12s0.32-1.56,0.88-2.12
		c1.12-1.12,3.12-1.12,4.24,0c0.56,0.56,0.88,1.33,0.88,2.12s-0.32,1.56-0.88,2.12C233.06,45.68,232.29,46,231.5,46z"/>
</g>
<g>
	<path fill="#383838" d="M177.504,335.001c-0.245,0-0.492-0.022-0.742-0.069c-2.171-0.407-3.601-2.497-3.194-4.669
		c18.8-100.269,44.003-158.953,77.05-179.409c23.701-14.669,47.639-7.868,66.872-2.402c17.817,5.063,29.145,7.758,37.181-0.28
		c1.562-1.562,4.095-1.562,5.657,0c1.562,1.562,1.562,4.095,0,5.657c-11.771,11.77-27.923,7.179-45.025,2.318
		c-18.645-5.299-39.776-11.304-60.475,1.509c-31.026,19.206-55.035,76.148-73.397,174.082
		C181.071,333.659,179.392,335.001,177.504,335.001z"/>
</g>
<g>
	<path fill="#00A4FF" d="M177.5,331.5c-0.03,0-0.062-0.003-0.093-0.009c-0.271-0.051-0.45-0.312-0.399-0.583
		c18.608-99.247,43.289-157.17,75.451-177.079c22.387-13.858,44.535-7.563,64.074-2.011c16.48,4.684,30.713,8.728,40.613-1.172
		c0.195-0.195,0.512-0.195,0.707,0s0.195,0.512,0,0.707c-10.315,10.314-24.811,6.196-41.593,1.427
		c-19.341-5.497-41.263-11.726-63.274,1.899c-31.91,19.753-56.441,77.458-74.995,176.412C177.946,331.332,177.736,331.5,177.5,331.5
		z"/>
</g>
<g>
	<path fill="#00A4FF" d="M177.5,331.5c-0.03,0-0.062-0.003-0.093-0.009c-0.271-0.051-0.45-0.312-0.399-0.583l54-288
		c0.051-0.271,0.309-0.447,0.583-0.399c0.271,0.051,0.45,0.312,0.399,0.583l-54,288C177.946,331.332,177.736,331.5,177.5,331.5z"/>
</g>
<g>
	<path fill="#00A4FF" d="M321.5,190c-0.79,0-1.56-0.32-2.12-0.88c-0.56-0.561-0.88-1.33-0.88-2.12s0.32-1.561,0.88-2.12
		c1.11-1.12,3.13-1.12,4.24,0c0.56,0.56,0.88,1.33,0.88,2.12s-0.32,1.56-0.88,2.12C323.06,189.68,322.29,190,321.5,190z"/>
</g>
<g>
	<path fill="#00A4FF" d="M321.5,187.5c-0.128,0-0.256-0.049-0.354-0.146c-0.195-0.195-0.195-0.512,0-0.707l36-36
		c0.195-0.195,0.512-0.195,0.707,0s0.195,0.512,0,0.707l-36,36C321.756,187.451,321.628,187.5,321.5,187.5z"/>
</g>
<g>
	<path fill="#383838" d="M246.065,42.365c0-3.21,1.305-4.935,3.435-4.935s3.435,1.725,3.435,4.935c0,3.18-1.305,4.995-3.435,4.995
		S246.065,45.545,246.065,42.365z M247.22,42.365c0,2.745,0.945,4.005,2.28,4.005s2.279-1.26,2.279-4.005
		c0-2.76-0.944-3.945-2.279-3.945S247.22,39.605,247.22,42.365z M248.57,42.26c0-0.615,0.435-0.99,0.93-0.99s0.93,0.375,0.93,0.99
		c0,0.63-0.435,1.005-0.93,1.005S248.57,42.89,248.57,42.26z"/>
	<path fill="#383838" d="M258.5,44.825c0.675,0,1.215,0.51,1.215,1.275c0,0.75-0.54,1.26-1.215,1.26s-1.215-0.51-1.215-1.26
		C257.285,45.335,257.825,44.825,258.5,44.825z"/>
	<path fill="#383838" d="M271.175,44.54h-1.485v2.64h-1.17v-2.64h-4.935v-0.825l4.785-6.105h1.319v5.94h1.485V44.54z M268.52,43.55
		v-2.97c0.016-0.525,0.045-1.17,0.075-1.695h-0.075c-0.3,0.465-0.66,0.93-0.975,1.395l-2.595,3.27H268.52z"/>
	<path fill="#383838" d="M288.92,46.16v1.02h-6.45v-1.02h2.715v-7.05h-2.04v-0.795c1.021-0.15,1.755-0.39,2.355-0.705h0.915v8.55
		H288.92z"/>
	<path fill="#383838" d="M294.5,44.825c0.675,0,1.215,0.51,1.215,1.275c0,0.75-0.54,1.26-1.215,1.26s-1.215-0.51-1.215-1.26
		C293.285,45.335,293.825,44.825,294.5,44.825z"/>
	<path fill="#383838" d="M306.14,39.215c-0.495-0.465-1.185-0.75-1.905-0.75c-1.529,0-2.88,1.035-2.925,4.11
		c0.766-0.765,1.755-1.245,2.715-1.245c1.771,0,2.985,0.99,2.985,2.955c0,1.83-1.485,3.075-3.195,3.075
		c-2.085,0-3.659-1.53-3.659-4.605c0-3.84,1.92-5.325,4.005-5.325c1.17,0,2.039,0.435,2.67,1.02L306.14,39.215z M305.84,44.285
		c0-1.305-0.72-2.025-2.04-2.025c-0.75,0-1.635,0.36-2.445,1.29c0.181,1.845,1.065,2.835,2.46,2.835
		C304.955,46.385,305.84,45.545,305.84,44.285z"/>
</g>
<g>
	<path fill="#383838" d="M282.065,203.615c0-3.211,1.305-4.936,3.435-4.936s3.435,1.725,3.435,4.936c0,3.18-1.305,4.994-3.435,4.994
		S282.065,206.795,282.065,203.615z M283.22,203.615c0,2.744,0.945,4.004,2.28,4.004s2.279-1.26,2.279-4.004
		c0-2.76-0.944-3.945-2.279-3.945S283.22,200.855,283.22,203.615z M284.57,203.51c0-0.615,0.435-0.99,0.93-0.99
		s0.93,0.375,0.93,0.99c0,0.63-0.435,1.005-0.93,1.005S284.57,204.14,284.57,203.51z"/>
	<path fill="#383838" d="M294.5,206.074c0.675,0,1.215,0.511,1.215,1.275c0,0.75-0.54,1.26-1.215,1.26s-1.215-0.51-1.215-1.26
		C293.285,206.585,293.825,206.074,294.5,206.074z"/>
	<path fill="#383838" d="M302.075,203.436v-0.061c-0.795-0.495-1.455-1.23-1.455-2.234c0-1.471,1.245-2.461,2.955-2.461
		c1.875,0,2.97,1.065,2.97,2.551c0,0.899-0.66,1.725-1.455,2.279v0.061c1.05,0.524,1.875,1.125,1.875,2.489
		c0,1.425-1.245,2.55-3.435,2.55c-2.16,0-3.511-1.109-3.511-2.625C300.02,204.665,301.055,203.915,302.075,203.436z M303.56,207.695
		c1.425,0,2.22-0.69,2.22-1.681c0-1.335-1.319-1.665-2.999-2.235c-0.931,0.511-1.636,1.125-1.636,2.086
		C301.145,206.93,302.09,207.695,303.56,207.695z M305.479,201.29c0-0.944-0.675-1.694-1.935-1.694c-1.065,0-1.8,0.614-1.8,1.545
		c0,1.139,1.109,1.619,2.534,2.069C305.06,202.641,305.479,201.995,305.479,201.29z"/>
	<path fill="#383838" d="M318.065,203.615c0-3.211,1.305-4.936,3.435-4.936s3.435,1.725,3.435,4.936c0,3.18-1.305,4.994-3.435,4.994
		S318.065,206.795,318.065,203.615z M319.22,203.615c0,2.744,0.945,4.004,2.28,4.004s2.279-1.26,2.279-4.004
		c0-2.76-0.944-3.945-2.279-3.945S319.22,200.855,319.22,203.615z M320.57,203.51c0-0.615,0.435-0.99,0.93-0.99
		s0.93,0.375,0.93,0.99c0,0.63-0.435,1.005-0.93,1.005S320.57,204.14,320.57,203.51z"/>
	<path fill="#383838" d="M330.5,206.074c0.675,0,1.215,0.511,1.215,1.275c0,0.75-0.54,1.26-1.215,1.26s-1.215-0.51-1.215-1.26
		C329.285,206.585,329.825,206.074,330.5,206.074z"/>
	<path fill="#383838" d="M338.075,203.436v-0.061c-0.795-0.495-1.455-1.23-1.455-2.234c0-1.471,1.245-2.461,2.955-2.461
		c1.875,0,2.97,1.065,2.97,2.551c0,0.899-0.66,1.725-1.455,2.279v0.061c1.05,0.524,1.875,1.125,1.875,2.489
		c0,1.425-1.245,2.55-3.435,2.55c-2.16,0-3.511-1.109-3.511-2.625C336.02,204.665,337.055,203.915,338.075,203.436z M339.56,207.695
		c1.425,0,2.22-0.69,2.22-1.681c0-1.335-1.319-1.665-2.999-2.235c-0.931,0.511-1.636,1.125-1.636,2.086
		C337.145,206.93,338.09,207.695,339.56,207.695z M341.479,201.29c0-0.944-0.675-1.694-1.935-1.694c-1.065,0-1.8,0.614-1.8,1.545
		c0,1.139,1.109,1.619,2.534,2.069C341.06,202.641,341.479,201.995,341.479,201.29z"/>
</g>
<rect x="37.55" y="183.417" fill="none" width="112.5" height="22.5"/>
<text transform="matrix(1 0 0 1 37.5505 193.9313)" fill="#383838" font-family="'SourceCodePro-Bold'" font-size="15">keySplines</text>
</svg>
