<?xml version="1.0" encoding="utf-8"?>
<!-- Generator: Adobe Illustrator 17.0.0, SVG Export Plug-In . SVG Version: 6.00 Build 0)  -->
<!DOCTYPE svg PUBLIC "-//W3C//DTD SVG 1.1//EN" "http://www.w3.org/Graphics/SVG/1.1/DTD/svg11.dtd">
<svg version="1.1" id="Layer_1" xmlns="http://www.w3.org/2000/svg" xmlns:xlink="http://www.w3.org/1999/xlink" x="0px" y="0px"
	 width="612px" height="288px" viewBox="0 0 612 288" enable-background="new 0 0 612 288" xml:space="preserve">
<g>
	<g>
		<path fill="#EAEAEA" d="M0,285c0,1.65,1.35,3,3,3h606c1.65,0,3-1.35,3-3V3c0-1.65-1.35-3-3-3H3C1.35,0,0,1.35,0,3V285z"/>
	</g>
</g>
<g>
	<g>
		<path fill="#BEBEBF" d="M237,64.5v23h1v-22h179v179H238v-131h-1v132h181v-181H237z"/>
	</g>
</g>
<g>
	<g>
		<path fill="#00A4FF" d="M256,104c-0.79,0-1.56-0.32-2.12-0.88c-0.56-0.56-0.88-1.33-0.88-2.12s0.32-1.56,0.88-2.12
			c1.12-1.12,3.12-1.12,4.24,0c0.56,0.56,0.88,1.33,0.88,2.12s-0.32,1.56-0.88,2.12C257.56,103.68,256.79,104,256,104z"/>
	</g>
</g>
<g>
	<path fill="#383838" d="M237.681,249c-0.166,0-0.333-0.01-0.501-0.031c-2.192-0.273-3.747-2.272-3.473-4.465
		c9.433-75.464,18.78-118.753,43.687-145.924c24.557-26.789,63.79-37.227,139.929-37.227c2.209,0,4,1.791,4,4s-1.791,4-4,4
		c-73.607,0-111.187,9.71-134.032,34.632c-23.449,25.581-32.422,67.726-41.646,141.511C241.393,247.52,239.669,249,237.681,249z"/>
</g>
<g>
	<path fill="#00A4FF" d="M237.677,245.5c-0.021,0-0.042-0.001-0.062-0.004c-0.274-0.034-0.468-0.284-0.434-0.559
		c9.341-74.729,18.524-117.518,42.794-143.993c23.808-25.972,62.317-36.091,137.349-36.091c0.276,0,0.5,0.224,0.5,0.5
		s-0.224,0.5-0.5,0.5c-74.716,0-113.018,10.028-136.612,35.767c-24.087,26.277-33.224,68.922-42.539,143.442
		C238.141,245.315,237.925,245.5,237.677,245.5z"/>
</g>
<g>
	<g>
		<path fill="#00A4FF" d="M273.5,68.333c-0.79,0-1.56-0.32-2.12-0.88c-0.56-0.561-0.88-1.33-0.88-2.12s0.32-1.561,0.88-2.12
			c1.11-1.12,3.13-1.12,4.24,0c0.56,0.56,0.88,1.33,0.88,2.12s-0.32,1.56-0.88,2.12S274.29,68.333,273.5,68.333z"/>
	</g>
</g>
<g>
	<g>
		<path fill="#383838" d="M38.69,137.656h2.205v6.029l0.045-0.015l2.745-2.939H46.1l-2.82,3.06l3.045,4.38H43.94l-1.935-2.925
			l-1.11,1.08v1.845H38.69V137.656z"/>
	</g>
	<g>
		<path fill="#383838" d="M51.245,140.551c2.295,0,3.495,1.545,3.495,3.57c0,0.39-0.06,0.75-0.09,0.93h-5.01
			c0.21,1.125,1.065,1.62,2.16,1.62c0.675,0,1.26-0.18,1.92-0.51l0.72,1.319c-0.84,0.54-1.95,0.87-2.939,0.87
			c-2.311,0-4.125-1.439-4.125-3.899C47.375,142.02,49.265,140.551,51.245,140.551z M52.745,143.685
			c0-0.854-0.449-1.455-1.454-1.455c-0.795,0-1.5,0.466-1.681,1.455H52.745z"/>
	</g>
	<g>
		<path fill="#383838" d="M57.53,149.341c0.855,0,1.32-0.391,1.561-0.976l0.149-0.39l-3.225-7.244h2.19l1.244,3.194
			c0.271,0.705,0.511,1.455,0.75,2.235h0.061c0.195-0.735,0.45-1.5,0.675-2.235l1.095-3.194h2.085l-2.939,7.515
			c-0.72,1.874-1.605,2.834-3.48,2.834c-0.435,0-0.824-0.06-1.14-0.149l0.39-1.68C57.14,149.31,57.335,149.341,57.53,149.341z"/>
	</g>
	<g>
		<path fill="#383838" d="M66.576,145.426c0.734,0.6,1.649,1.02,2.505,1.02c1.02,0,1.47-0.359,1.47-0.944
			c0-0.615-0.57-0.811-1.516-1.17l-1.26-0.54c-1.095-0.405-2.085-1.245-2.085-2.67c0-1.62,1.471-2.91,3.585-2.91
			c1.186,0,2.37,0.45,3.255,1.29l-1.125,1.395c-0.675-0.494-1.29-0.779-2.13-0.779c-0.854,0-1.35,0.33-1.35,0.885
			c0,0.6,0.66,0.81,1.604,1.155l1.186,0.51c1.29,0.479,2.1,1.274,2.1,2.654c0,1.62-1.365,3.03-3.795,3.03
			c-1.32,0-2.67-0.479-3.72-1.41L66.576,145.426z"/>
	</g>
	<g>
		<path fill="#383838" d="M76.835,148.755v2.175H74.63v-10.199h1.8l0.165,0.749h0.045c0.6-0.539,1.425-0.93,2.22-0.93
			c1.86,0,2.985,1.485,2.985,3.78c0,2.55-1.561,4.02-3.226,4.02c-0.659,0-1.319-0.285-1.859-0.81L76.835,148.755z M78.11,146.551
			c0.825,0,1.47-0.66,1.47-2.19c0-1.335-0.435-2.01-1.364-2.01c-0.48,0-0.915,0.21-1.38,0.69v3.015
			C77.255,146.415,77.735,146.551,78.11,146.551z"/>
	</g>
	<g>
		<path fill="#383838" d="M83.48,137.656h4.365v7.694c0,0.915,0.585,1.215,1.2,1.215c0.345,0,0.704-0.06,1.17-0.239l0.495,1.619
			c-0.78,0.24-1.306,0.405-2.235,0.405c-1.875,0-2.835-1.2-2.835-3.09v-5.864h-2.16C83.48,139.396,83.48,137.656,83.48,137.656z"/>
	</g>
	<g>
		<path fill="#383838" d="M92.735,140.73h5.19v7.439H95.72v-5.715h-2.985V140.73z M95.255,138.301c0-0.81,0.615-1.38,1.47-1.38
			s1.47,0.57,1.47,1.38c0,0.811-0.615,1.335-1.47,1.335S95.255,139.111,95.255,138.301z"/>
	</g>
	<g>
		<path fill="#383838" d="M101.63,140.73h1.8l0.165,0.989h0.06c0.646-0.63,1.455-1.17,2.565-1.17c1.68,0,2.43,1.155,2.43,3.03v4.59
			h-2.205v-4.305c0-0.99-0.285-1.44-1.095-1.44c-0.6,0-0.99,0.271-1.515,0.78v4.965h-2.205V140.73z"/>
	</g>
	<g>
		<path fill="#383838" d="M114.245,140.551c2.295,0,3.495,1.545,3.495,3.57c0,0.39-0.06,0.75-0.09,0.93h-5.01
			c0.21,1.125,1.065,1.62,2.16,1.62c0.675,0,1.26-0.18,1.92-0.51l0.72,1.319c-0.84,0.54-1.95,0.87-2.939,0.87
			c-2.311,0-4.125-1.439-4.125-3.899C110.375,142.02,112.265,140.551,114.245,140.551z M115.745,143.685
			c0-0.854-0.449-1.455-1.454-1.455c-0.795,0-1.5,0.466-1.681,1.455H115.745z"/>
	</g>
	<g>
		<path fill="#383838" d="M120.335,145.831c0.854,0.54,1.71,0.885,2.699,0.885c1.006,0,1.426-0.24,1.426-0.63
			c0-0.45-0.795-0.705-1.995-1.035c-1.305-0.36-2.655-0.99-2.655-2.175c0-1.38,1.305-2.325,3.435-2.325
			c1.32,0,2.431,0.525,3.21,1.021l-0.989,1.319c-0.675-0.404-1.396-0.705-2.175-0.705c-0.931,0-1.29,0.21-1.29,0.585
			c0,0.45,0.854,0.676,1.904,0.945c1.471,0.39,2.745,0.945,2.745,2.235c0,1.35-1.274,2.399-3.66,2.399
			c-1.335,0-2.699-0.51-3.645-1.14L120.335,145.831z"/>
	</g>
</g>
<g enable-background="new    ">
	<g>
		<path fill="#383838" d="M177.731,100.299c0-3.21,1.305-4.936,3.435-4.936s3.435,1.726,3.435,4.936c0,3.18-1.305,4.994-3.435,4.994
			S177.731,103.479,177.731,100.299z M178.886,100.299c0,2.744,0.945,4.005,2.28,4.005s2.28-1.261,2.28-4.005
			c0-2.76-0.945-3.945-2.28-3.945S178.886,97.539,178.886,100.299z M180.236,100.193c0-0.615,0.435-0.99,0.93-0.99
			c0.495,0,0.93,0.375,0.93,0.99c0,0.63-0.435,1.005-0.93,1.005C180.671,101.198,180.236,100.823,180.236,100.193z"/>
	</g>
	<g>
		<path fill="#383838" d="M190.167,102.759c0.675,0,1.215,0.51,1.215,1.274c0,0.75-0.54,1.26-1.215,1.26
			c-0.675,0-1.215-0.51-1.215-1.26C188.951,103.269,189.491,102.759,190.167,102.759z"/>
	</g>
	<g>
		<path fill="#383838" d="M202.585,104.094v1.02h-6.45v-1.02h2.715v-7.05h-2.04v-0.795c1.02-0.15,1.755-0.391,2.355-0.705h0.915
			v8.55H202.585z"/>
	</g>
	<g>
		<path fill="#383838" d="M213.731,100.299c0-3.21,1.305-4.936,3.435-4.936s3.435,1.726,3.435,4.936c0,3.18-1.305,4.994-3.435,4.994
			S213.731,103.479,213.731,100.299z M214.886,100.299c0,2.744,0.945,4.005,2.28,4.005s2.28-1.261,2.28-4.005
			c0-2.76-0.945-3.945-2.28-3.945S214.886,97.539,214.886,100.299z M216.236,100.193c0-0.615,0.435-0.99,0.93-0.99
			c0.495,0,0.93,0.375,0.93,0.99c0,0.63-0.435,1.005-0.93,1.005C216.671,101.198,216.236,100.823,216.236,100.193z"/>
	</g>
	<g>
		<path fill="#383838" d="M226.166,102.759c0.675,0,1.215,0.51,1.215,1.274c0,0.75-0.54,1.26-1.215,1.26
			c-0.675,0-1.215-0.51-1.215-1.26C224.951,103.269,225.491,102.759,226.166,102.759z"/>
	</g>
	<g>
		<path fill="#383838" d="M233.74,100.118v-0.06c-0.795-0.495-1.455-1.23-1.455-2.235c0-1.47,1.245-2.46,2.955-2.46
			c1.875,0,2.97,1.065,2.97,2.551c0,0.899-0.66,1.725-1.455,2.279v0.061c1.05,0.524,1.875,1.125,1.875,2.489
			c0,1.425-1.245,2.55-3.435,2.55c-2.16,0-3.51-1.109-3.51-2.625C231.686,101.349,232.72,100.599,233.74,100.118z M235.225,104.378
			c1.425,0,2.22-0.689,2.22-1.68c0-1.335-1.32-1.665-3-2.234c-0.93,0.51-1.635,1.125-1.635,2.085
			C232.811,103.613,233.755,104.378,235.225,104.378z M237.145,97.974c0-0.945-0.675-1.695-1.935-1.695
			c-1.065,0-1.8,0.615-1.8,1.545c0,1.141,1.11,1.62,2.535,2.07C236.725,99.323,237.145,98.679,237.145,97.974z"/>
	</g>
</g>
<g enable-background="new    ">
	<g>
		<path fill="#383838" d="M251.065,49.365c0-3.21,1.305-4.936,3.435-4.936s3.435,1.726,3.435,4.936c0,3.18-1.305,4.994-3.435,4.994
			S251.065,52.545,251.065,49.365z M252.22,49.365c0,2.744,0.945,4.005,2.28,4.005s2.28-1.261,2.28-4.005
			c0-2.76-0.945-3.945-2.28-3.945S252.22,46.605,252.22,49.365z M253.57,49.26c0-0.615,0.435-0.99,0.93-0.99
			c0.495,0,0.93,0.375,0.93,0.99c0,0.63-0.435,1.005-0.93,1.005C254.005,50.265,253.57,49.89,253.57,49.26z"/>
	</g>
	<g>
		<path fill="#383838" d="M263.5,51.825c0.675,0,1.215,0.51,1.215,1.274c0,0.75-0.54,1.26-1.215,1.26
			c-0.675,0-1.215-0.51-1.215-1.26C262.285,52.335,262.825,51.825,263.5,51.825z"/>
	</g>
	<g>
		<path fill="#383838" d="M269.094,53.444c3.24-2.864,5.025-4.544,5.025-6.135c0-1.095-0.675-1.875-2.085-1.875
			c-0.9,0-1.68,0.511-2.295,1.155l-0.705-0.705c0.855-0.87,1.8-1.455,3.15-1.455c1.92,0,3.12,1.125,3.12,2.82
			c0,1.8-1.8,3.585-4.41,5.955c0.585-0.045,1.215-0.091,1.785-0.091h3.15v1.065h-6.735V53.444z"/>
	</g>
	<g>
		<path fill="#383838" d="M293.919,53.16v1.02h-6.45v-1.02h2.715v-7.05h-2.04v-0.795c1.02-0.15,1.755-0.391,2.355-0.705h0.915v8.55
			H293.919z"/>
	</g>
</g>
<g>
	<path fill="#00A4FF" d="M237.677,245.5c-0.021,0-0.042-0.001-0.063-0.004c-0.274-0.035-0.468-0.285-0.434-0.559l18.324-144.98
		c0.035-0.274,0.289-0.462,0.559-0.434c0.274,0.035,0.468,0.285,0.434,0.559l-18.324,144.98
		C238.141,245.315,237.925,245.5,237.677,245.5z"/>
</g>
<g>
	<path fill="#00A4FF" d="M417.323,65.853H273.5c-0.276,0-0.5-0.224-0.5-0.5s0.224-0.5,0.5-0.5h143.823c0.276,0,0.5,0.224,0.5,0.5
		S417.6,65.853,417.323,65.853z"/>
</g>
</svg>
