<?xml version="1.0" encoding="utf-8"?>
<!-- Generator: Adobe Illustrator 17.0.0, SVG Export Plug-In . SVG Version: 6.00 Build 0)  -->
<!DOCTYPE svg PUBLIC "-//W3C//DTD SVG 1.1//EN" "http://www.w3.org/Graphics/SVG/1.1/DTD/svg11.dtd">
<svg version="1.1" id="Layer_1" xmlns="http://www.w3.org/2000/svg" xmlns:xlink="http://www.w3.org/1999/xlink" x="0px" y="0px"
	 width="612px" height="240px" viewBox="0 0 612 240" enable-background="new 0 0 612 240" xml:space="preserve">
<g>
	<path fill="#E9E9E9" d="M0,237c0,1.65,1.35,3,3,3h606c1.65,0,3-1.35,3-3V3c0-1.65-1.35-3-3-3H3C1.35,0,0,1.35,0,3V237z"/>
</g>
<g>
	<path fill="#383838" d="M100.411,192.322h6.449v1.86h-4.244v1.965h3.6v1.845h-3.6v2.25h4.395v1.86h-6.6V192.322z"/>
	<path fill="#383838" d="M108.466,194.663h2.22l1.17,3.51c0.24,0.75,0.45,1.515,0.676,2.295h0.06c0.225-0.78,0.42-1.545,0.66-2.295
		l1.17-3.51h2.114l-2.729,7.439h-2.535L108.466,194.663z"/>
	<path fill="#383838" d="M121.695,194.482c2.295,0,3.495,1.545,3.495,3.57c0,0.39-0.06,0.75-0.09,0.93h-5.01
		c0.21,1.125,1.065,1.62,2.16,1.62c0.675,0,1.26-0.18,1.92-0.51l0.72,1.319c-0.84,0.54-1.95,0.87-2.939,0.87
		c-2.311,0-4.125-1.439-4.125-3.899C117.826,195.952,119.716,194.482,121.695,194.482z M123.195,197.617
		c0-0.854-0.449-1.455-1.454-1.455c-0.795,0-1.5,0.466-1.681,1.455H123.195z"/>
	<path fill="#383838" d="M127.081,194.663h1.8l0.165,0.989h0.06c0.646-0.63,1.455-1.17,2.565-1.17c1.68,0,2.43,1.155,2.43,3.03v4.59
		h-2.205v-4.305c0-0.99-0.285-1.44-1.095-1.44c-0.6,0-0.99,0.271-1.515,0.78v4.965h-2.205V194.663z"/>
	<path fill="#383838" d="M135.931,191.588h4.365v7.694c0,0.915,0.585,1.215,1.2,1.215c0.345,0,0.705-0.06,1.17-0.239l0.494,1.619
		c-0.779,0.24-1.305,0.405-2.234,0.405c-1.875,0-2.835-1.2-2.835-3.09v-5.864h-2.16V191.588z"/>
	<path fill="#383838" d="M145.98,203.272c0.855,0,1.32-0.391,1.561-0.976l0.149-0.39l-3.225-7.244h2.19l1.244,3.194
		c0.271,0.705,0.511,1.455,0.75,2.235h0.061c0.195-0.735,0.45-1.5,0.675-2.235l1.095-3.194h2.085l-2.939,7.515
		c-0.72,1.874-1.605,2.834-3.48,2.834c-0.435,0-0.824-0.06-1.14-0.149l0.39-1.68C145.591,203.242,145.786,203.272,145.98,203.272z"
		/>
	<path fill="#383838" d="M165.286,202.688v2.175h-2.205v-10.199h1.8l0.165,0.749h0.045c0.6-0.539,1.425-0.93,2.22-0.93
		c1.86,0,2.985,1.485,2.985,3.78c0,2.55-1.561,4.02-3.226,4.02c-0.659,0-1.319-0.285-1.859-0.81L165.286,202.688z M166.561,200.482
		c0.825,0,1.47-0.66,1.47-2.19c0-1.335-0.435-2.01-1.364-2.01c-0.48,0-0.915,0.21-1.38,0.69v3.015
		C165.706,200.348,166.186,200.482,166.561,200.482z"/>
	<path fill="#383838" d="M176.82,197.317c-0.074-0.675-0.585-1.08-1.59-1.08c-0.72,0-1.425,0.271-2.265,0.69l-0.78-1.44
		c1.021-0.585,2.205-1.005,3.48-1.005c2.085,0,3.359,1.08,3.359,3.36v4.26h-1.8l-0.165-0.84h-0.06c-0.75,0.569-1.681,1.02-2.64,1.02
		c-1.5,0-2.445-0.99-2.445-2.25C171.916,198.367,173.296,197.527,176.82,197.317z M175.065,200.572c0.66,0,1.23-0.3,1.755-0.705
		v-1.229c-2.189,0.12-2.789,0.585-2.789,1.229C174.031,200.348,174.436,200.572,175.065,200.572z"/>
	<path fill="#383838" d="M185.311,194.482c1.17,0,2.16,0.42,2.79,1.005l-1.02,1.365c-0.57-0.405-1.096-0.585-1.65-0.585
		c-1.274,0-2.16,0.825-2.16,2.115s0.855,2.114,2.085,2.114c0.78,0,1.44-0.33,1.965-0.705l0.9,1.396
		c-0.9,0.75-2.055,1.095-3.075,1.095c-2.34,0-4.14-1.425-4.14-3.899C181.006,195.907,183.016,194.482,185.311,194.482z"/>
	<path fill="#383838" d="M193.695,194.482c2.295,0,3.495,1.545,3.495,3.57c0,0.39-0.06,0.75-0.09,0.93h-5.01
		c0.21,1.125,1.065,1.62,2.16,1.62c0.675,0,1.26-0.18,1.92-0.51l0.72,1.319c-0.84,0.54-1.95,0.87-2.939,0.87
		c-2.311,0-4.125-1.439-4.125-3.899C189.826,195.952,191.716,194.482,193.695,194.482z M195.195,197.617
		c0-0.854-0.449-1.455-1.454-1.455c-0.795,0-1.5,0.466-1.681,1.455H195.195z"/>
	<path fill="#383838" d="M201.886,194.482c0.855,0,1.38,0.315,1.905,0.795l-0.075-1.154v-2.535h2.205v10.515h-1.8l-0.165-0.766
		h-0.045c-0.556,0.54-1.32,0.945-2.07,0.945c-1.89,0-3.135-1.47-3.135-3.899C198.706,195.952,200.266,194.482,201.886,194.482z
		 M202.411,200.482c0.495,0,0.915-0.195,1.305-0.69v-3.015c-0.405-0.359-0.81-0.495-1.245-0.495c-0.81,0-1.5,0.66-1.5,2.07
		C200.971,199.822,201.496,200.482,202.411,200.482z"/>
</g>
<g>
	<path fill="#383838" d="M414.991,192.143c1.244,0,2.234,0.601,2.895,1.245l-1.215,1.365c-0.465-0.42-0.976-0.705-1.68-0.705
		c-1.381,0-2.4,1.185-2.4,3.149c0,2.01,1.02,3.18,2.49,3.18c0.705,0,1.26-0.345,1.739-0.869l1.215,1.335
		c-0.81,0.944-1.859,1.439-3.09,1.439c-2.52,0-4.619-1.725-4.619-5.01C410.326,194.032,412.381,192.143,414.991,192.143z"/>
	<path fill="#383838" d="M426.376,202.103h-1.8l-0.165-1.065h-0.061c-0.66,0.75-1.439,1.245-2.505,1.245
		c-1.694,0-2.415-1.155-2.415-3.03v-4.589h2.205v4.305c0,0.989,0.255,1.439,1.08,1.439c0.555,0,0.945-0.195,1.455-0.854v-4.89h2.205
		V202.103z"/>
	<path fill="#383838" d="M429.286,199.763c0.854,0.54,1.71,0.885,2.699,0.885c1.006,0,1.426-0.24,1.426-0.63
		c0-0.45-0.795-0.705-1.995-1.035c-1.305-0.36-2.655-0.99-2.655-2.175c0-1.38,1.305-2.325,3.435-2.325
		c1.32,0,2.431,0.525,3.21,1.021l-0.989,1.319c-0.676-0.404-1.396-0.705-2.175-0.705c-0.931,0-1.29,0.21-1.29,0.585
		c0,0.45,0.854,0.676,1.904,0.945c1.471,0.39,2.745,0.945,2.745,2.235c0,1.35-1.274,2.399-3.66,2.399
		c-1.335,0-2.699-0.51-3.645-1.14L429.286,199.763z"/>
	<path fill="#383838" d="M439.111,196.388h-1.86v-1.635l1.965-0.09l0.285-1.98h1.814v1.98h3.135v1.725h-3.135v2.609
		c0,1.125,0.48,1.561,1.561,1.561c0.569,0,1.064-0.12,1.5-0.271l0.39,1.59c-0.66,0.195-1.485,0.405-2.445,0.405
		c-2.369,0-3.209-1.32-3.209-3.27V196.388z"/>
	<path fill="#383838" d="M450.001,194.482c1.965,0,3.795,1.425,3.795,3.9c0,2.475-1.83,3.899-3.795,3.899s-3.795-1.425-3.795-3.899
		C446.206,195.907,448.036,194.482,450.001,194.482z M450.001,200.497c1.02,0,1.529-0.824,1.529-2.114s-0.51-2.115-1.529-2.115
		c-1.021,0-1.53,0.825-1.53,2.115S448.98,200.497,450.001,200.497z"/>
	<path fill="#383838" d="M455.041,194.663h1.649l0.165,0.93h0.061c0.285-0.615,0.734-1.11,1.59-1.11c0.66,0,1.125,0.42,1.305,1.215
		c0.271-0.675,0.795-1.215,1.635-1.215c1.035,0,1.65,0.915,1.65,2.4v5.22h-2.07v-5.055c0-0.465-0.12-0.69-0.42-0.69
		c-0.285,0-0.495,0.24-0.689,0.72v5.025h-1.695v-5.055c0-0.465-0.149-0.69-0.435-0.69s-0.465,0.24-0.675,0.72v5.025h-2.07V194.663z"
		/>
	<path fill="#383838" d="M475.786,202.688v2.175h-2.205v-10.199h1.8l0.165,0.749h0.045c0.6-0.539,1.425-0.93,2.22-0.93
		c1.86,0,2.985,1.485,2.985,3.78c0,2.55-1.561,4.02-3.226,4.02c-0.659,0-1.319-0.285-1.859-0.81L475.786,202.688z M477.061,200.482
		c0.825,0,1.47-0.66,1.47-2.19c0-1.335-0.435-2.01-1.364-2.01c-0.48,0-0.915,0.21-1.38,0.69v3.015
		C476.206,200.348,476.686,200.482,477.061,200.482z"/>
	<path fill="#383838" d="M487.32,197.317c-0.074-0.675-0.585-1.08-1.59-1.08c-0.72,0-1.425,0.271-2.265,0.69l-0.78-1.44
		c1.021-0.585,2.205-1.005,3.48-1.005c2.085,0,3.359,1.08,3.359,3.36v4.26h-1.8l-0.165-0.84h-0.06c-0.75,0.569-1.681,1.02-2.64,1.02
		c-1.5,0-2.445-0.99-2.445-2.25C482.416,198.367,483.796,197.527,487.32,197.317z M485.565,200.572c0.66,0,1.23-0.3,1.755-0.705
		v-1.229c-2.189,0.12-2.789,0.585-2.789,1.229C484.531,200.348,484.936,200.572,485.565,200.572z"/>
	<path fill="#383838" d="M495.811,194.482c1.17,0,2.16,0.42,2.79,1.005l-1.02,1.365c-0.57-0.405-1.096-0.585-1.65-0.585
		c-1.274,0-2.16,0.825-2.16,2.115s0.855,2.114,2.085,2.114c0.78,0,1.44-0.33,1.965-0.705l0.9,1.396
		c-0.9,0.75-2.055,1.095-3.075,1.095c-2.34,0-4.14-1.425-4.14-3.899C491.506,195.907,493.516,194.482,495.811,194.482z"/>
	<path fill="#383838" d="M504.195,194.482c2.295,0,3.495,1.545,3.495,3.57c0,0.39-0.06,0.75-0.09,0.93h-5.01
		c0.21,1.125,1.065,1.62,2.16,1.62c0.675,0,1.26-0.18,1.92-0.51l0.72,1.319c-0.84,0.54-1.95,0.87-2.939,0.87
		c-2.311,0-4.125-1.439-4.125-3.899C500.326,195.952,502.216,194.482,504.195,194.482z M505.695,197.617
		c0-0.854-0.449-1.455-1.454-1.455c-0.795,0-1.5,0.466-1.681,1.455H505.695z"/>
</g>
<circle fill="#FFFFFF" stroke="#B450FF" stroke-width="6" stroke-miterlimit="10" cx="153" cy="137" r="6">
	<animate attributeName="cy" from="137" to="137" begin="0s" dur="4s" values="137;117;117;60;60;137;137" keySplines="0.1 0.8 0.2 1; 0.1 0.8 0.2 1; 0.1 0.8 0.2 1; 0.1 0.8 0.2 1; 0.1 0.8 0.2 1; 0.1 0.8 0.2 1" keyTimes="0;0.167;0.333;0.5;0.667;0.833;1" calcMode="spline" repeatCount="indefinite" />
</circle>

<circle fill="#FFFFFF" stroke="#B450FF" stroke-width="6" stroke-miterlimit="10" cx="459" cy="137" r="6">
	<animate attributeName="cy" from="137" to="137" begin="0s" dur="4s" values="137;117;117;60;60;137;137" keySplines="0.1 0.8 0.2 1; 0.1 0.8 0.2 1; 0.1 0.8 0.2 1; 0.1 0.8 0.2 1; 0.1 0.8 0.2 1; 0.1 0.8 0.2 1" keyTimes="0;0.22;0.33;0.55;0.66;0.88;1" calcMode="spline" repeatCount="indefinite" />
</circle>
</svg>
