<?xml version="1.0" encoding="utf-8"?>
<!-- Generator: Adobe Illustrator 17.1.0, SVG Export Plug-In . SVG Version: 6.00 Build 0)  -->
<!DOCTYPE svg PUBLIC "-//W3C//DTD SVG 1.1//EN" "http://www.w3.org/Graphics/SVG/1.1/DTD/svg11.dtd">
<svg version="1.1" id="Layer_1" xmlns="http://www.w3.org/2000/svg" xmlns:xlink="http://www.w3.org/1999/xlink" x="0px" y="0px"
	 viewBox="0 0 216 216" enable-background="new 0 0 216 216" xml:space="preserve">

	<defs>
		<g id="heart_left">
			<path opacity="0.3" fill="#F04A35" enable-background="new    " d="M89.1,77.2c8.8,8.8,8.8,23,0,31.8l-35,35l-35-35
				c-8.8-8.8-8.8-23,0-31.8s23-8.8,31.8,0c1.2,1.2,2.3,2.6,3.2,4c0.9-1.4,1.9-2.8,3.2-4C66,68.4,80.3,68.4,89.1,77.2z"/>
			<g>
				<path fill="#BE202E" d="M89.1,69.6c8.8,8.8,8.8,23,0,31.8l-35,35l-35-35c-8.8-8.8-8.8-23,0-31.8s23-8.8,31.8,0
					c1.2,1.2,2.3,2.6,3.2,4c0.9-1.4,1.9-2.8,3.2-4C66,60.8,80.3,60.8,89.1,69.6z"/>
				<path fill="#BF202E" d="M88.9,69.6c8.8,8.8,8.8,23,0,31.7l-34.8,34.9l-34.9-34.9c-8.8-8.8-8.8-23,0-31.7s23-8.8,31.7,0
					c1.2,1.2,2.3,2.6,3.2,4c0.9-1.4,1.9-2.8,3.2-4C66,60.9,80.2,60.9,88.9,69.6z"/>
				<path fill="#C0202E" d="M88.8,69.7c8.7,8.7,8.7,22.9,0,31.6L54.1,136l-34.8-34.8c-8.7-8.7-8.7-22.9,0-31.6s22.9-8.7,31.6,0
					c1.2,1.2,2.3,2.6,3.2,4c0.9-1.4,1.9-2.7,3.2-4C66,61,80.1,61,88.8,69.7z"/>
				<path fill="#C1232E" d="M88.7,69.8c8.7,8.7,8.7,22.8,0,31.5l-34.6,34.6l-34.6-34.6c-8.7-8.7-8.7-22.8,0-31.5s22.8-8.7,31.5,0
					c1.2,1.2,2.3,2.5,3.1,4c0.9-1.4,1.9-2.7,3.1-4C65.9,61.1,80,61.1,88.7,69.8z"/>
				<path fill="#C2232E" d="M88.6,69.8c8.7,8.7,8.7,22.7,0,31.4l-34.5,34.5l-34.5-34.5c-8.7-8.7-8.7-22.7,0-31.4
					c8.7-8.7,22.7-8.7,31.4,0c1.2,1.2,2.3,2.5,3.1,4c0.8-1.4,1.9-2.7,3.1-4C65.9,61.1,79.9,61.1,88.6,69.8z"/>
				<path fill="#C3232D" d="M88.5,69.9c8.6,8.6,8.6,22.6,0,31.3l-34.4,34.3l-34.4-34.4c-8.6-8.6-8.6-22.6,0-31.3
					c8.6-8.6,22.6-8.6,31.3,0c1.2,1.2,2.3,2.5,3.1,3.9c0.8-1.4,1.9-2.7,3.1-3.9C65.8,61.2,79.8,61.2,88.5,69.9z"/>
				<path fill="#C4242E" d="M88.4,69.9c8.6,8.6,8.6,22.6,0,31.2l-34.3,34.3l-34.3-34.3c-8.6-8.6-8.6-22.6,0-31.2s22.6-8.6,31.2,0
					c1.2,1.2,2.3,2.5,3.1,3.9c0.8-1.4,1.9-2.7,3.1-3.9C65.8,61.3,79.8,61.3,88.4,69.9z"/>
				<path fill="#C5242E" d="M88.2,70c8.6,8.6,8.6,22.5,0,31.1l-34.1,34.1L19.9,101c-8.6-8.6-8.6-22.5,0-31.1s22.5-8.6,31.1,0
					c1.2,1.2,2.3,2.5,3.1,3.9c0.8-1.4,1.9-2.7,3.1-3.9C65.8,61.4,79.7,61.4,88.2,70z"/>
				<path fill="#C6242F" d="M88.1,70c8.5,8.5,8.5,22.4,0,31l-34,34l-34-34c-8.5-8.5-8.5-22.4,0-31s22.4-8.5,31,0
					c1.2,1.2,2.3,2.5,3.1,3.9c0.8-1.4,1.9-2.7,3.1-3.9C65.7,61.5,79.6,61.5,88.1,70z"/>
				<path fill="#C8262F" d="M88,70.1c8.5,8.5,8.5,22.3,0,30.8l-33.9,34l-34-34c-8.5-8.5-8.5-22.3,0-30.8c8.5-8.5,22.3-8.5,30.8,0
					c1.2,1.2,2.3,2.5,3.1,3.9c0.8-1.4,1.9-2.7,3.1-3.9C65.7,61.6,79.5,61.6,88,70.1z"/>
				<path fill="#C8262F" d="M87.9,70.1c8.5,8.5,8.5,22.3,0,30.7l-33.8,33.9l-33.8-33.8c-8.5-8.5-8.5-22.3,0-30.7
					c8.5-8.5,22.3-8.5,30.7,0c1.2,1.2,2.2,2.5,3.1,3.9c0.8-1.4,1.9-2.7,3.1-3.9C65.6,61.6,79.4,61.6,87.9,70.1z"/>
				<path fill="#C9262F" d="M87.8,70.2c8.5,8.5,8.5,22.2,0,30.6l-33.7,33.7l-33.7-33.7c-8.5-8.5-8.5-22.2,0-30.6
					c8.5-8.5,22.2-8.5,30.6,0c1.2,1.2,2.2,2.5,3.1,3.9c0.8-1.4,1.9-2.7,3.1-3.9C65.6,61.7,79.3,61.7,87.8,70.2z"/>
				<path fill="#CA262F" d="M87.7,70.2c8.4,8.4,8.4,22.1,0,30.5l-33.6,33.6l-33.6-33.6c-8.4-8.4-8.4-22.1,0-30.5s22.1-8.4,30.5,0
					c1.2,1.2,2.2,2.5,3.1,3.8c0.8-1.4,1.9-2.7,3.1-3.8C65.6,61.8,79.2,61.8,87.7,70.2z"/>
				<path fill="#CC272F" d="M87.5,70.3c8.4,8.4,8.4,22,0,30.4l-33.4,33.5l-33.5-33.5c-8.4-8.4-8.4-22,0-30.4s22-8.4,30.4,0
					c1.2,1.2,2.2,2.5,3,3.8c0.8-1.4,1.9-2.6,3-3.8C65.5,61.9,79.1,61.9,87.5,70.3z"/>
				<path fill="#CC272F" d="M87.4,70.3c8.4,8.4,8.4,21.9,0,30.3L54.1,134l-33.3-33.3c-8.4-8.4-8.4-21.9,0-30.3s21.9-8.4,30.3,0
					c1.2,1.2,2.2,2.5,3,3.8c0.8-1.4,1.8-2.6,3-3.8C65.5,62,79.1,62,87.4,70.3z"/>
				<path fill="#CE272F" d="M87.3,70.4c8.3,8.3,8.3,21.9,0,30.2l-33.2,33.2l-33.2-33.2c-8.3-8.3-8.3-21.9,0-30.2
					c8.3-8.3,21.9-8.3,30.2,0c1.2,1.2,2.2,2.4,3,3.8c0.8-1.4,1.8-2.6,3-3.8C65.4,62.1,79,62.1,87.3,70.4z"/>
				<path fill="#CE272F" d="M87.2,70.4c8.3,8.3,8.3,21.8,0,30.1l-33.1,33.2L21,100.6c-8.3-8.3-8.3-21.8,0-30.1s21.8-8.3,30.1,0
					c1.2,1.2,2.2,2.4,3,3.8c0.8-1.4,1.8-2.6,3-3.8C65.4,62.1,78.9,62.1,87.2,70.4z"/>
				<path fill="#D0282E" d="M87.1,70.5c8.3,8.3,8.3,21.7,0,30l-33,33l-33-33c-8.3-8.3-8.3-21.7,0-30s21.7-8.3,30,0
					c1.2,1.2,2.2,2.4,3,3.8c0.8-1.3,1.8-2.6,3-3.8C65.4,62.2,78.8,62.2,87.1,70.5z"/>
				<path fill="#D02A2E" d="M87,70.6c8.2,8.2,8.2,21.6,0,29.9l-32.9,32.8l-32.9-32.9c-8.2-8.2-8.2-21.6,0-29.9
					c8.2-8.2,21.6-8.2,29.9,0c1.2,1.2,2.2,2.4,3,3.8c0.8-1.3,1.8-2.6,3-3.8C65.3,62.3,78.7,62.3,87,70.6z"/>
				<path fill="#D12A2F" d="M86.8,70.6c8.2,8.2,8.2,21.6,0,29.8l-32.7,32.7l-32.8-32.8c-8.2-8.2-8.2-21.6,0-29.8
					c8.2-8.2,21.6-8.2,29.8,0c1.2,1.2,2.2,2.4,3,3.8c0.8-1.3,1.8-2.6,3-3.8C65.3,62.4,78.6,62.4,86.8,70.6z"/>
				<path fill="#D22B2F" d="M86.7,70.7c8.2,8.2,8.2,21.5,0,29.7L54.1,133l-32.6-32.6c-8.2-8.2-8.2-21.5,0-29.7s21.5-8.2,29.7,0
					c1.2,1.2,2.2,2.4,3,3.7c0.8-1.3,1.8-2.6,3-3.7C65.2,62.5,78.5,62.5,86.7,70.7z"/>
				<path fill="#D32C2F" d="M86.6,70.7c8.2,8.2,8.2,21.4,0,29.6l-32.5,32.5l-32.5-32.5c-8.2-8.2-8.2-21.4,0-29.6s21.4-8.2,29.6,0
					c1.2,1.2,2.2,2.4,3,3.7c0.8-1.3,1.8-2.6,3-3.7C65.2,62.6,78.4,62.6,86.6,70.7z"/>
				<path fill="#D42C2F" d="M86.5,70.8c8.1,8.1,8.1,21.3,0,29.5l-32.4,32.3l-32.4-32.4c-8.1-8.1-8.1-21.3,0-29.5s21.3-8.1,29.5,0
					c1.1,1.1,2.2,2.4,2.9,3.7c0.8-1.3,1.8-2.6,2.9-3.7C65.2,62.6,78.4,62.6,86.5,70.8z"/>
				<path fill="#D62E2F" d="M86.4,70.8c8.1,8.1,8.1,21.3,0,29.4l-32.3,32.3l-32.3-32.3c-8.1-8.1-8.1-21.3,0-29.4s21.3-8.1,29.4,0
					c1.1,1.1,2.1,2.4,2.9,3.7c0.8-1.3,1.8-2.6,2.9-3.7C65.1,62.7,78.3,62.7,86.4,70.8z"/>
				<path fill="#D62F2F" d="M86.3,70.9c8.1,8.1,8.1,21.2,0,29.2l-32.2,32.2l-32.2-32.2c-8.1-8.1-8.1-21.2,0-29.2s21.2-8.1,29.2,0
					c1.1,1.1,2.1,2.4,2.9,3.7c0.8-1.3,1.8-2.5,2.9-3.7C65.1,62.8,78.2,62.8,86.3,70.9z"/>
				<path fill="#D72F2F" d="M86.1,70.9c8,8,8,21.1,0,29.1l-32,32.1L22,100c-8-8-8-21.1,0-29.1s21.1-8,29.1,0c1.1,1.1,2.1,2.4,2.9,3.7
					c0.8-1.3,1.8-2.5,2.9-3.7C65,62.9,78.1,62.9,86.1,70.9z"/>
				<path fill="#D8312E" d="M86,71c8,8,8,21,0,29l-31.9,32l-32-32c-8-8-8-21,0-29s21-8,29,0c1.1,1.1,2.1,2.4,2.9,3.7
					c0.8-1.3,1.8-2.5,2.9-3.7C65,63,78,63,86,71z"/>
				<path fill="#D9322E" d="M85.9,71c8,8,8,20.9,0,28.9l-31.8,31.9L22.3,100c-8-8-8-20.9,0-28.9s20.9-8,28.9,0
					c1.1,1.1,2.1,2.3,2.9,3.6c0.8-1.3,1.8-2.5,2.9-3.6C65,63,77.9,63,85.9,71z"/>
				<path fill="#DB322E" d="M85.8,71.1c8,8,8,20.9,0,28.8l-31.7,31.7L22.4,99.9c-8-8-8-20.9,0-28.8s20.9-8,28.8,0
					c1.1,1.1,2.1,2.3,2.9,3.6c0.8-1.3,1.8-2.5,2.9-3.6C64.9,63.1,77.8,63.1,85.8,71.1z"/>
				<path fill="#DB332E" d="M85.7,71.1c7.9,7.9,7.9,20.8,0,28.7l-31.6,31.6L22.5,99.8c-7.9-7.9-7.9-20.8,0-28.7
					c7.9-7.9,20.8-7.9,28.7,0c1.1,1.1,2.1,2.3,2.9,3.6c0.8-1.3,1.8-2.5,2.9-3.6C64.9,63.2,77.7,63.2,85.7,71.1z"/>
				<path fill="#DC342E" d="M85.5,71.2c7.9,7.9,7.9,20.7,0,28.6l-31.4,31.5L22.6,99.8c-7.9-7.9-7.9-20.7,0-28.6s20.7-7.9,28.6,0
					c1.1,1.1,2.1,2.3,2.9,3.6c0.8-1.3,1.7-2.5,2.9-3.6C64.8,63.3,77.7,63.3,85.5,71.2z"/>
				<path fill="#DC342F" d="M85.4,71.2c7.9,7.9,7.9,20.6,0,28.5l-31.3,31.4L22.7,99.7c-7.9-7.9-7.9-20.6,0-28.5s20.6-7.9,28.5,0
					c1.1,1.1,2.1,2.3,2.9,3.6c0.8-1.3,1.7-2.5,2.9-3.6C64.8,63.4,77.6,63.4,85.4,71.2z"/>
				<path fill="#DD362F" d="M85.3,71.3c7.8,7.8,7.8,20.6,0,28.4l-31.2,31.2L22.9,99.7c-7.8-7.8-7.8-20.6,0-28.4s20.6-7.8,28.4,0
					c1.1,1.1,2.1,2.3,2.8,3.6c0.8-1.3,1.7-2.5,2.8-3.6C64.8,63.5,77.5,63.5,85.3,71.3z"/>
				<path fill="#DF362F" d="M85.2,71.4c7.8,7.8,7.8,20.5,0,28.3l-31.1,31.1L23,99.7c-7.8-7.8-7.8-20.5,0-28.3s20.5-7.8,28.3,0
					c1.1,1.1,2.1,2.3,2.8,3.6c0.8-1.3,1.7-2.5,2.8-3.6C64.7,63.5,77.4,63.5,85.2,71.4z"/>
				<path fill="#DF372F" d="M85.1,71.4c7.8,7.8,7.8,20.4,0,28.2l-31,31l-31-31c-7.8-7.8-7.8-20.4,0-28.2c7.8-7.8,20.4-7.8,28.2,0
					c1.1,1.1,2.1,2.3,2.8,3.6c0.8-1.3,1.7-2.5,2.8-3.6C64.7,63.6,77.3,63.6,85.1,71.4z"/>
				<path fill="#E03730" d="M85,71.5c7.7,7.7,7.7,20.3,0,28.1l-30.9,30.8L23.2,99.5c-7.7-7.7-7.7-20.3,0-28.1s20.3-7.7,28.1,0
					c1.1,1.1,2,2.3,2.8,3.5c0.8-1.3,1.7-2.4,2.8-3.5C64.6,63.7,77.2,63.7,85,71.5z"/>
				<path fill="#E1382F" d="M84.8,71.5c7.7,7.7,7.7,20.2,0,28l-30.7,30.7L23.3,99.4c-7.7-7.7-7.7-20.2,0-28c7.7-7.7,20.2-7.7,28,0
					c1.1,1.1,2,2.3,2.8,3.5c0.8-1.3,1.7-2.4,2.8-3.5C64.6,63.8,77.1,63.8,84.8,71.5z"/>
				<path fill="#E23830" d="M84.7,71.6c7.7,7.7,7.7,20.2,0,27.9l-30.6,30.6L23.5,99.5c-7.7-7.7-7.7-20.2,0-27.9
					c7.7-7.7,20.2-7.7,27.9,0c1.1,1.1,2,2.3,2.8,3.5c0.8-1.3,1.7-2.4,2.8-3.5C64.6,63.9,77,63.9,84.7,71.6z"/>
				<path fill="#E43A30" d="M84.6,71.6c7.7,7.7,7.7,20.1,0,27.8l-30.5,30.5L23.6,99.4c-7.7-7.7-7.7-20.1,0-27.8
					c7.7-7.7,20.1-7.7,27.8,0c1.1,1.1,2,2.2,2.8,3.5c0.7-1.2,1.7-2.4,2.8-3.5C64.5,64,76.9,64,84.6,71.6z"/>
				<path fill="#E53B30" d="M84.5,71.7c7.6,7.6,7.6,20,0,27.6l-30.4,30.4L23.7,99.3c-7.6-7.6-7.6-20,0-27.6c7.6-7.6,20-7.6,27.6,0
					c1.1,1.1,2,2.2,2.8,3.5c0.7-1.2,1.7-2.4,2.8-3.5C64.5,64,76.9,64,84.5,71.7z"/>
				<path fill="#E63A31" d="M84.4,71.7c7.6,7.6,7.6,19.9,0,27.5l-30.3,30.4L23.8,99.3c-7.6-7.6-7.6-19.9,0-27.5
					c7.6-7.6,19.9-7.6,27.5,0c1.1,1.1,2,2.2,2.8,3.5c0.7-1.2,1.7-2.4,2.8-3.5C64.4,64.1,76.8,64.1,84.4,71.7z"/>
				<path fill="#E73B31" d="M84.3,71.8c7.6,7.6,7.6,19.9,0,27.4l-30.2,30.2L23.9,99.2c-7.6-7.6-7.6-19.9,0-27.4
					c7.6-7.5,19.9-7.6,27.4,0c1.1,1.1,2,2.2,2.7,3.5c0.7-1.2,1.7-2.4,2.7-3.5C64.4,64.2,76.7,64.2,84.3,71.8z"/>
				<path fill="#E73C30" d="M84.1,71.8c7.5,7.5,7.5,19.8,0,27.3l-30,30.1L24,99.1c-7.5-7.5-7.5-19.8,0-27.3c7.5-7.5,19.8-7.5,27.3,0
					c1.1,1.1,2,2.2,2.7,3.4c0.7-1.2,1.7-2.4,2.7-3.4C64.4,64.3,76.6,64.3,84.1,71.8z"/>
				<path fill="#E83C32" d="M84,71.9c7.5,7.5,7.5,19.7,0,27.2l-29.9,30l-30-30c-7.5-7.5-7.5-19.7,0-27.2s19.7-7.5,27.2,0
					c1.1,1.1,2,2.2,2.7,3.4c0.7-1.2,1.7-2.4,2.7-3.4C64.3,64.4,76.5,64.4,84,71.9z"/>
				<path fill="#E93D32" d="M83.9,71.9c7.5,7.5,7.5,19.6,0,27.1l-29.8,29.9L24.3,99.1c-7.5-7.5-7.5-19.6,0-27.1s19.6-7.5,27.1,0
					c1.1,1.1,2,2.2,2.7,3.4c0.7-1.2,1.7-2.4,2.7-3.4C64.3,64.5,76.4,64.5,83.9,71.9z"/>
				<path fill="#EA3E32" d="M83.8,72c7.5,7.5,7.5,19.6,0,27l-29.7,29.7L24.4,99c-7.5-7.5-7.5-19.6,0-27c7.5-7.5,19.6-7.5,27,0
					c1.1,1.1,2,2.2,2.7,3.4c0.7-1.2,1.6-2.3,2.7-3.4C64.2,64.5,76.3,64.5,83.8,72z"/>
				<path fill="#EB3E32" d="M83.7,72c7.4,7.4,7.4,19.5,0,26.9l-29.6,29.6L24.5,98.9c-7.4-7.4-7.4-19.5,0-26.9s19.5-7.4,26.9,0
					c1,1,2,2.2,2.7,3.4c0.7-1.2,1.6-2.3,2.7-3.4C64.2,64.6,76.2,64.6,83.7,72z"/>
				<path fill="#ED3F32" d="M83.6,72.1c7.4,7.4,7.4,19.4,0,26.8l-29.5,29.5L24.6,98.9c-7.4-7.4-7.4-19.4,0-26.8s19.4-7.4,26.8,0
					c1,1,2,2.2,2.7,3.4c0.7-1.2,1.6-2.3,2.7-3.4C64.2,64.7,76.2,64.7,83.6,72.1z"/>
				<path fill="#EE3F32" d="M83.4,72.2c7.4,7.4,7.4,19.3,0,26.7l-29.3,29.3L24.7,98.8c-7.4-7.4-7.4-19.3,0-26.7
					c7.4-7.4,19.3-7.4,26.7,0c1,1,1.9,2.2,2.7,3.4c0.7-1.2,1.6-2.3,2.7-3.4C64.1,64.8,76.1,64.8,83.4,72.2z"/>
				<path fill="#EF4032" d="M83.3,72.2c7.3,7.3,7.3,19.2,0,26.6L54.1,128L24.9,98.8c-7.3-7.3-7.3-19.2,0-26.6c7.3-7.3,19.2-7.3,26.6,0
					c1,1,1.9,2.2,2.7,3.4c0.7-1.2,1.6-2.3,2.7-3.4C64.1,64.9,76,64.9,83.3,72.2z"/>
				<path fill="#EF4132" d="M83.2,72.3c7.3,7.3,7.3,19.2,0,26.5l-29.1,29.1L25,98.8c-7.3-7.3-7.3-19.2,0-26.5s19.2-7.3,26.5,0
					c1,1,1.9,2.1,2.6,3.3c0.7-1.2,1.6-2.3,2.6-3.3C64,65,75.9,65,83.2,72.3z"/>
				<path fill="#EF4132" d="M83.1,72.3c7.3,7.3,7.3,19.1,0,26.4l-29,29l-29-29c-7.3-7.3-7.3-19.1,0-26.4s19.1-7.3,26.4,0
					c1,1,1.9,2.1,2.6,3.3c0.7-1.2,1.6-2.3,2.6-3.3C64,65,75.8,65,83.1,72.3z"/>
				<path fill="#EF4232" d="M83,72.4c7.2,7.2,7.2,19,0,26.3l-28.9,28.8L25.2,98.6c-7.2-7.2-7.2-19,0-26.3s19-7.2,26.3,0
					c1,1,1.9,2.1,2.6,3.3c0.7-1.2,1.6-2.3,2.6-3.3C64,65.1,75.7,65.1,83,72.4z"/>
				<path fill="#EF4332" d="M82.8,72.4c7.2,7.2,7.2,18.9,0,26.2l-28.7,28.7L25.3,98.5c-7.2-7.2-7.2-18.9,0-26.2
					c7.2-7.2,18.9-7.2,26.2,0c1,1,1.9,2.1,2.6,3.3c0.7-1.2,1.6-2.3,2.6-3.3C63.9,65.2,75.6,65.2,82.8,72.4z"/>
				<path fill="#EF4332" d="M82.7,72.5c7.2,7.2,7.2,18.9,0,26l-28.6,28.7L25.4,98.5c-7.2-7.2-7.2-18.9,0-26s18.9-7.2,26,0
					c1,1,1.9,2.1,2.6,3.3c0.7-1.2,1.6-2.3,2.6-3.3C63.9,65.3,75.5,65.3,82.7,72.5z"/>
				<path fill="#EF4434" d="M82.6,72.5c7.2,7.2,7.2,18.8,0,25.9L54.1,127L25.6,98.5c-7.2-7.2-7.2-18.8,0-25.9s18.8-7.2,25.9,0
					c1,1,1.9,2.1,2.6,3.3c0.7-1.2,1.6-2.3,2.6-3.3C63.8,65.4,75.5,65.4,82.6,72.5z"/>
				<path fill="#EF4534" d="M82.5,72.6c7.1,7.1,7.1,18.7,0,25.8l-28.4,28.4L25.7,98.4c-7.1-7.1-7.1-18.7,0-25.8s18.7-7.1,25.8,0
					c1,1,1.9,2.1,2.6,3.3c0.7-1.2,1.6-2.2,2.6-3.3C63.8,65.5,75.4,65.5,82.5,72.6z"/>
				<path fill="#EF4534" d="M82.4,72.6c7.1,7.1,7.1,18.6,0,25.7l-28.3,28.4L25.8,98.4c-7.1-7.1-7.1-18.6,0-25.7s18.6-7.1,25.7,0
					c1,1,1.9,2.1,2.6,3.2c0.7-1.2,1.6-2.2,2.6-3.2C63.8,65.5,75.3,65.5,82.4,72.6z"/>
				<path fill="#EF4834" d="M82.3,72.7c7.1,7.1,7.1,18.6,0,25.6l-28.2,28.2L25.9,98.3c-7.1-7.1-7.1-18.6,0-25.6
					c7.1-7.1,18.6-7.1,25.6,0c1,1,1.9,2.1,2.6,3.2c0.7-1.2,1.6-2.2,2.6-3.2C63.7,65.6,75.2,65.6,82.3,72.7z"/>
				<path fill="#F04935" d="M82.1,72.7c7,7,7,18.5,0,25.5l-28,28.1L26,98.2c-7-7-7-18.5,0-25.5s18.5-7,25.5,0c1,1,1.9,2.1,2.6,3.2
					c0.7-1.1,1.6-2.2,2.6-3.2C63.7,65.7,75.1,65.7,82.1,72.7z"/>
				<path fill="#F04935" d="M82,72.8c7,7,7,18.4,0,25.4l-27.9,28l-27.9-28c-7-7-7-18.4,0-25.4c7-7,18.4-7,25.4,0c1,1,1.9,2.1,2.5,3.2
					c0.7-1.1,1.6-2.2,2.5-3.2C63.6,65.8,75,65.8,82,72.8z"/>
				<path fill="#F04A35" d="M81.9,72.8c7,7,7,18.3,0,25.3L54.1,126L26.3,98.2c-7-7-7-18.3,0-25.3s18.3-7,25.3,0c1,1,1.8,2,2.5,3.2
					c0.7-1.1,1.5-2.2,2.5-3.2C63.6,65.9,74.9,65.9,81.9,72.8z"/>
			</g>
			<g>
				<radialGradient id="SVGID_4_" cx="35.7" cy="147.7585" r="19.6755" gradientTransform="matrix(0.9993 0 0 -0.9996 7.744143e-02 218.6921)" gradientUnits="userSpaceOnUse">
					<stop  offset="0" style="stop-color:#FFFFFF"/>
					<stop  offset="1" style="stop-color:#F04A35"/>
				</radialGradient>
				<circle fill="url(#SVGID_4_)" cx="36.1" cy="83.3" r="15.8"/>

					<radialGradient id="SVGID_5_" cx="71.6974" cy="147.7585" r="19.6755" gradientTransform="matrix(0.9993 0 0 -0.9996 7.744143e-02 218.6921)" gradientUnits="userSpaceOnUse">
					<stop  offset="0" style="stop-color:#FFFFFF"/>
					<stop  offset="1" style="stop-color:#F04A35"/>
				</radialGradient>
				<circle fill="url(#SVGID_5_)" cx="72.1" cy="83.3" r="15.8"/>
			</g>
		</g>
		<g id="heart_right">
			<path opacity="0.3" fill="#F04A35" enable-background="new    " d="M126.9,77.2c-8.8,8.8-8.8,23,0,31.8l35,35l35-35
				c8.8-8.8,8.8-23,0-31.8s-23-8.8-31.8,0c-1.2,1.2-2.3,2.6-3.2,4c-0.9-1.4-1.9-2.8-3.2-4C150,68.4,135.7,68.4,126.9,77.2z"/>
			<g>
				<path fill="#BE202E" d="M126.9,69.6c-8.8,8.8-8.8,23,0,31.8l35,35l35-35c8.8-8.8,8.8-23,0-31.8s-23-8.8-31.8,0
					c-1.2,1.2-2.3,2.6-3.2,4c-0.9-1.4-1.9-2.8-3.2-4C150,60.8,135.7,60.8,126.9,69.6z"/>
				<path fill="#BF202E" d="M127.1,69.6c-8.8,8.8-8.8,23,0,31.7l34.9,34.9l34.9-34.9c8.8-8.8,8.8-23,0-31.7c-8.8-8.8-22.9-8.8-31.7,0
					c-1.2,1.2-2.3,2.6-3.2,4c-0.9-1.4-1.9-2.8-3.2-4C150,60.9,135.8,60.9,127.1,69.6z"/>
				<path fill="#C0202E" d="M127.2,69.7c-8.7,8.7-8.7,22.9,0,31.6l34.8,34.8l34.8-34.8c8.7-8.7,8.7-22.9,0-31.6s-22.9-8.7-31.6,0
					c-1.2,1.2-2.3,2.6-3.2,4c-0.9-1.4-1.9-2.7-3.2-4C150.1,61,135.9,61,127.2,69.7z"/>
				<path fill="#C1232E" d="M127.3,69.8c-8.7,8.7-8.7,22.8,0,31.5l34.6,34.6l34.6-34.6c8.7-8.7,8.7-22.8,0-31.5s-22.8-8.7-31.5,0
					c-1.2,1.2-2.3,2.5-3.1,4c-0.9-1.4-1.9-2.7-3.1-4C150.1,61.1,136,61.1,127.3,69.8z"/>
				<path fill="#C2232E" d="M127.4,69.8c-8.7,8.7-8.7,22.7,0,31.4l34.5,34.5l34.5-34.5c8.7-8.7,8.7-22.7,0-31.4s-22.7-8.7-31.4,0
					c-1.2,1.2-2.3,2.5-3.1,4c-0.8-1.4-1.9-2.7-3.1-4C150.1,61.1,136.1,61.1,127.4,69.8z"/>
				<path fill="#C3232D" d="M127.5,69.9c-8.6,8.6-8.6,22.6,0,31.3l34.4,34.4l34.4-34.4c8.6-8.6,8.6-22.6,0-31.3
					c-8.6-8.6-22.6-8.6-31.3,0c-1.2,1.2-2.3,2.5-3.1,3.9c-0.8-1.4-1.9-2.7-3.1-3.9C150.2,61.2,136.2,61.2,127.5,69.9z"/>
				<path fill="#C4242E" d="M127.7,69.9c-8.6,8.6-8.6,22.6,0,31.2l34.3,34.3l34.3-34.3c8.6-8.6,8.6-22.6,0-31.2
					c-8.6-8.6-22.6-8.6-31.2,0c-1.2,1.2-2.3,2.5-3.1,3.9c-0.8-1.4-1.9-2.7-3.1-3.9C150.2,61.3,136.3,61.3,127.7,69.9z"/>
				<path fill="#C5242E" d="M127.8,70c-8.6,8.6-8.6,22.5,0,31.1l34.2,34.2l34.2-34.2c8.6-8.6,8.6-22.5,0-31.1
					c-8.6-8.6-22.5-8.6-31.1,0c-1.2,1.2-2.3,2.5-3.1,3.9c-0.8-1.4-1.9-2.7-3.1-3.9C150.3,61.4,136.3,61.4,127.8,70z"/>
				<path fill="#C6242F" d="M127.9,70c-8.5,8.5-8.5,22.4,0,31l34,34l34-34c8.5-8.5,8.5-22.4,0-31c-8.5-8.5-22.4-8.5-31,0
					c-1.2,1.2-2.3,2.5-3.1,3.9c-0.8-1.4-1.9-2.7-3.1-3.9C150.3,61.5,136.4,61.5,127.9,70z"/>
				<path fill="#C8262F" d="M128,70.1c-8.5,8.5-8.5,22.3,0,30.8l33.9,33.9l33.9-33.9c8.5-8.5,8.5-22.3,0-30.8
					c-8.5-8.5-22.3-8.5-30.8,0c-1.2,1.2-2.3,2.5-3.1,3.9c-0.8-1.4-1.9-2.7-3.1-3.9C150.3,61.6,136.5,61.6,128,70.1z"/>
				<path fill="#C8262F" d="M128.1,70.1c-8.5,8.5-8.5,22.3,0,30.7l33.8,33.8l33.8-33.8c8.5-8.5,8.5-22.3,0-30.7
					c-8.5-8.5-22.3-8.5-30.7,0c-1.2,1.2-2.2,2.5-3.1,3.9c-0.8-1.4-1.9-2.7-3.1-3.9C150.4,61.6,136.6,61.6,128.1,70.1z"/>
				<path fill="#C9262F" d="M128.2,70.2c-8.5,8.5-8.5,22.2,0,30.6l33.7,33.7l33.7-33.7c8.5-8.5,8.5-22.2,0-30.6
					c-8.5-8.5-22.2-8.5-30.6,0c-1.2,1.2-2.2,2.5-3.1,3.9c-0.8-1.4-1.9-2.7-3.1-3.9C150.4,61.7,136.7,61.7,128.2,70.2z"/>
				<path fill="#CA262F" d="M128.4,70.2c-8.4,8.4-8.4,22.1,0,30.5l33.6,33.6l33.6-33.6c8.4-8.4,8.4-22.1,0-30.5s-22.1-8.4-30.5,0
					c-1.2,1.2-2.2,2.5-3.1,3.8c-0.8-1.4-1.9-2.7-3.1-3.8C150.5,61.8,136.8,61.8,128.4,70.2z"/>
				<path fill="#CC272F" d="M128.5,70.3c-8.4,8.4-8.4,22,0,30.4l33.5,33.5l33.5-33.5c8.4-8.4,8.4-22,0-30.4s-22-8.4-30.4,0
					c-1.2,1.2-2.2,2.5-3,3.8c-0.8-1.4-1.9-2.6-3-3.8C150.5,61.9,136.9,61.9,128.5,70.3z"/>
				<path fill="#CC272F" d="M128.6,70.3c-8.4,8.4-8.4,21.9,0,30.3l33.3,33.3l33.3-33.3c8.4-8.4,8.4-21.9,0-30.3s-21.9-8.4-30.3,0
					c-1.2,1.2-2.2,2.5-3,3.8c-0.8-1.4-1.8-2.6-3-3.8C150.5,62,137,62,128.6,70.3z"/>
				<path fill="#CE272F" d="M128.7,70.4c-8.3,8.3-8.3,21.9,0,30.2l33.2,33.2l33.2-33.2c8.3-8.3,8.3-21.9,0-30.2
					c-8.3-8.3-21.9-8.3-30.2,0c-1.2,1.2-2.2,2.4-3,3.8c-0.8-1.4-1.8-2.6-3-3.8C150.6,62.1,137,62.1,128.7,70.4z"/>
				<path fill="#CE272F" d="M128.8,70.4c-8.3,8.3-8.3,21.8,0,30.1l33.1,33.1l33.1-33.1c8.3-8.3,8.3-21.8,0-30.1
					c-8.3-8.3-21.8-8.3-30.1,0c-1.2,1.2-2.2,2.4-3,3.8c-0.8-1.4-1.8-2.6-3-3.8C150.6,62.1,137.1,62.1,128.8,70.4z"/>
				<path fill="#D0282E" d="M128.9,70.5c-8.3,8.3-8.3,21.7,0,30l33,33l33-33c8.3-8.3,8.3-21.7,0-30c-8.3-8.3-21.7-8.3-30,0
					c-1.2,1.2-2.2,2.4-3,3.8c-0.8-1.3-1.8-2.6-3-3.8C150.7,62.2,137.2,62.2,128.9,70.5z"/>
				<path fill="#D02A2E" d="M129.1,70.6c-8.2,8.2-8.2,21.6,0,29.9l32.9,32.9l32.9-32.9c8.2-8.2,8.2-21.6,0-29.9
					c-8.2-8.3-21.6-8.2-29.9,0c-1.2,1.2-2.2,2.4-3,3.8c-0.8-1.3-1.8-2.6-3-3.8C150.7,62.3,137.3,62.3,129.1,70.6z"/>
				<path fill="#D12A2F" d="M129.2,70.6c-8.2,8.2-8.2,21.6,0,29.8l32.8,32.8l32.8-32.8c8.2-8.2,8.2-21.6,0-29.8
					c-8.2-8.2-21.6-8.2-29.8,0c-1.2,1.2-2.2,2.4-3,3.8c-0.8-1.3-1.8-2.6-3-3.8C150.7,62.4,137.4,62.4,129.2,70.6z"/>
				<path fill="#D22B2F" d="M129.3,70.7c-8.2,8.2-8.2,21.5,0,29.7l32.6,32.6l32.6-32.6c8.2-8.2,8.2-21.5,0-29.7s-21.5-8.2-29.7,0
					c-1.2,1.2-2.2,2.4-3,3.7c-0.8-1.3-1.8-2.6-3-3.7C150.8,62.5,137.5,62.5,129.3,70.7z"/>
				<path fill="#D32C2F" d="M129.4,70.7c-8.2,8.2-8.2,21.4,0,29.6l32.5,32.5l32.5-32.5c8.2-8.2,8.2-21.4,0-29.6s-21.4-8.2-29.6,0
					c-1.2,1.2-2.2,2.4-3,3.7c-0.8-1.3-1.8-2.6-3-3.7C150.8,62.6,137.6,62.6,129.4,70.7z"/>
				<path fill="#D42C2F" d="M129.5,70.8c-8.1,8.1-8.1,21.3,0,29.5l32.4,32.4l32.4-32.4c8.1-8.1,8.1-21.3,0-29.5
					c-8.1-8.2-21.3-8.1-29.5,0c-1.1,1.1-2.2,2.4-2.9,3.7c-0.8-1.3-1.8-2.6-2.9-3.7C150.9,62.6,137.7,62.6,129.5,70.8z"/>
				<path fill="#D62E2F" d="M129.6,70.8c-8.1,8.1-8.1,21.3,0,29.4l32.3,32.3l32.3-32.3c8.1-8.1,8.1-21.3,0-29.4s-21.3-8.1-29.4,0
					c-1.1,1.1-2.1,2.4-2.9,3.7c-0.8-1.3-1.8-2.6-2.9-3.7C150.9,62.7,137.7,62.7,129.6,70.8z"/>
				<path fill="#D62F2F" d="M129.8,70.9c-8.1,8.1-8.1,21.2,0,29.2l32.2,32.2l32.2-32.2c8.1-8.1,8.1-21.2,0-29.2s-21.2-8.1-29.2,0
					c-1.1,1.1-2.1,2.4-2.9,3.7c-0.8-1.3-1.8-2.5-2.9-3.7C150.9,62.8,137.8,62.8,129.8,70.9z"/>
				<path fill="#D72F2F" d="M129.9,70.9c-8,8-8,21.1,0,29.1l32.1,32.1l32.1-32.1c8-8,8-21.1,0-29.1c-8-8-21.1-8-29.1,0
					c-1.1,1.1-2.1,2.4-2.9,3.7c-0.8-1.3-1.8-2.5-2.9-3.7C151,62.9,137.9,62.9,129.9,70.9z"/>
				<path fill="#D8312E" d="M130,71c-8,8-8,21,0,29l31.9,31.9l31.9-31.9c8-8,8-21,0-29c-8-8-21-8-29,0c-1.1,1.1-2.1,2.4-2.9,3.7
					c-0.8-1.3-1.8-2.5-2.9-3.7C151,63,138,63,130,71z"/>
				<path fill="#D9322E" d="M130.1,71c-8,8-8,20.9,0,28.9l31.8,31.8l31.8-31.8c8-8,8-20.9,0-28.9c-8-8-20.9-8-28.9,0
					c-1.1,1.1-2.1,2.3-2.9,3.6c-0.8-1.3-1.8-2.5-2.9-3.6C151.1,63,138.1,63,130.1,71z"/>
				<path fill="#DB322E" d="M130.2,71.1c-8,8-8,20.9,0,28.8l31.7,31.7l31.7-31.7c8-8,8-20.9,0-28.8c-8-8-20.9-8-28.8,0
					c-1.1,1.1-2.1,2.3-2.9,3.6c-0.8-1.3-1.8-2.5-2.9-3.6C151.1,63.1,138.2,63.1,130.2,71.1z"/>
				<path fill="#DB332E" d="M130.3,71.1c-7.9,7.9-7.9,20.8,0,28.7l31.6,31.6l31.6-31.6c7.9-7.9,7.9-20.8,0-28.7
					c-7.9-7.9-20.8-7.9-28.7,0c-1.1,1.1-2.1,2.3-2.9,3.6c-0.8-1.3-1.8-2.5-2.9-3.6C151.1,63.2,138.3,63.2,130.3,71.1z"/>
				<path fill="#DC342E" d="M130.5,71.2c-7.9,7.9-7.9,20.7,0,28.6l31.5,31.5l31.5-31.5c7.9-7.9,7.9-20.7,0-28.6s-20.7-7.9-28.6,0
					c-1.1,1.1-2.1,2.3-2.9,3.6c-0.8-1.3-1.7-2.5-2.9-3.6C151.2,63.3,138.4,63.3,130.5,71.2z"/>
				<path fill="#DC342F" d="M130.6,71.2c-7.9,7.9-7.9,20.6,0,28.5l31.4,31.4l31.4-31.4c7.9-7.9,7.9-20.6,0-28.5s-20.6-7.9-28.5,0
					c-1.1,1.1-2.1,2.3-2.9,3.6c-0.8-1.3-1.7-2.5-2.9-3.6C151.2,63.4,138.4,63.4,130.6,71.2z"/>
				<path fill="#DD362F" d="M130.7,71.3c-7.8,7.8-7.8,20.6,0,28.4l31.2,31.2l31.2-31.2c7.8-7.8,7.8-20.6,0-28.4s-20.6-7.8-28.4,0
					c-1.1,1.1-2.1,2.3-2.8,3.6c-0.8-1.3-1.7-2.5-2.8-3.6C151.3,63.5,138.5,63.5,130.7,71.3z"/>
				<path fill="#DF362F" d="M130.8,71.4c-7.8,7.8-7.8,20.5,0,28.3l31.1,31.1L193,99.7c7.8-7.8,7.8-20.5,0-28.3
					c-7.8-7.8-20.5-7.8-28.3,0c-1.1,1.1-2.1,2.3-2.8,3.6c-0.8-1.3-1.7-2.5-2.8-3.6C151.3,63.5,138.6,63.5,130.8,71.4z"/>
				<path fill="#DF372F" d="M130.9,71.4c-7.8,7.8-7.8,20.4,0,28.2l31,31l31-31c7.8-7.8,7.8-20.4,0-28.2c-7.8-7.8-20.4-7.8-28.2,0
					c-1.1,1.1-2.1,2.3-2.8,3.6c-0.8-1.3-1.7-2.5-2.8-3.6C151.3,63.6,138.7,63.6,130.9,71.4z"/>
				<path fill="#E03730" d="M131.1,71.5c-7.7,7.7-7.7,20.3,0,28.1l30.9,30.9l30.9-30.9c7.7-7.7,7.7-20.3,0-28.1
					c-7.7-7.7-20.3-7.7-28.1,0c-1.1,1.1-2,2.3-2.8,3.5c-0.8-1.3-1.7-2.4-2.8-3.5C151.4,63.7,138.8,63.7,131.1,71.5z"/>
				<path fill="#E1382F" d="M131.2,71.5c-7.7,7.7-7.7,20.2,0,28l30.8,30.8l30.8-30.8c7.7-7.7,7.7-20.2,0-28c-7.7-7.7-20.2-7.7-28,0
					c-1.1,1.1-2,2.3-2.8,3.5c-0.8-1.3-1.7-2.4-2.8-3.5C151.4,63.8,138.9,63.8,131.2,71.5z"/>
				<path fill="#E23830" d="M131.3,71.6c-7.7,7.7-7.7,20.2,0,27.9l30.6,30.6l30.6-30.6c7.7-7.7,7.7-20.2,0-27.9
					c-7.7-7.7-20.2-7.7-27.9,0c-1.1,1.1-2,2.3-2.8,3.5c-0.8-1.3-1.7-2.4-2.8-3.5C151.5,63.9,139,63.9,131.3,71.6z"/>
				<path fill="#E43A30" d="M131.4,71.6c-7.7,7.7-7.7,20.1,0,27.8l30.5,30.5l30.5-30.5c7.7-7.7,7.7-20.1,0-27.8
					c-7.7-7.7-20.1-7.7-27.8,0c-1.1,1.1-2,2.2-2.8,3.5c-0.7-1.2-1.7-2.4-2.8-3.5C151.5,64,139.1,64,131.4,71.6z"/>
				<path fill="#E53B30" d="M131.5,71.7c-7.6,7.6-7.6,20,0,27.6l30.4,30.4l30.4-30.4c7.6-7.6,7.6-20,0-27.6c-7.6-7.6-20-7.6-27.6,0
					c-1.1,1.1-2,2.2-2.8,3.5c-0.7-1.2-1.7-2.4-2.8-3.5C151.5,64,139.2,64,131.5,71.7z"/>
				<path fill="#E63A31" d="M131.6,71.7c-7.6,7.6-7.6,19.9,0,27.5l30.3,30.3l30.3-30.3c7.6-7.6,7.6-19.9,0-27.5
					c-7.6-7.6-19.9-7.6-27.5,0c-1.1,1.1-2,2.2-2.8,3.5c-0.7-1.2-1.7-2.4-2.8-3.5C151.6,64.1,139.2,64.1,131.6,71.7z"/>
				<path fill="#E73B31" d="M131.8,71.8c-7.6,7.6-7.6,19.9,0,27.4l30.2,30.2l30.2-30.2c7.6-7.6,7.6-19.9,0-27.4
					c-7.6-7.6-19.9-7.6-27.4,0c-1.1,1.1-2,2.2-2.7,3.5c-0.7-1.2-1.7-2.4-2.7-3.5C151.6,64.2,139.3,64.2,131.8,71.8z"/>
				<path fill="#E73C30" d="M131.9,71.8c-7.5,7.5-7.5,19.8,0,27.3l30.1,30.1l30.1-30.1c7.5-7.5,7.5-19.8,0-27.3
					c-7.5-7.5-19.8-7.5-27.3,0c-1.1,1.1-2,2.2-2.7,3.4c-0.7-1.2-1.7-2.4-2.7-3.4C151.7,64.3,139.4,64.3,131.9,71.8z"/>
				<path fill="#E83C32" d="M132,71.9c-7.5,7.5-7.5,19.7,0,27.2l29.9,29.9l29.9-29.9c7.5-7.5,7.5-19.7,0-27.2
					c-7.5-7.5-19.7-7.5-27.2,0c-1.1,1.1-2,2.2-2.7,3.4c-0.7-1.2-1.7-2.4-2.7-3.4C151.7,64.4,139.5,64.4,132,71.9z"/>
				<path fill="#E93D32" d="M132.1,71.9c-7.5,7.5-7.5,19.6,0,27.1l29.8,29.8L191.7,99c7.5-7.5,7.5-19.6,0-27.1
					c-7.5-7.5-19.6-7.5-27.1,0c-1.1,1.1-2,2.2-2.7,3.4c-0.7-1.2-1.7-2.4-2.7-3.4C151.7,64.5,139.6,64.5,132.1,71.9z"/>
				<path fill="#EA3E32" d="M132.2,72c-7.5,7.5-7.5,19.6,0,27l29.7,29.7L191.6,99c7.5-7.5,7.5-19.6,0-27c-7.5-7.5-19.6-7.5-27,0
					c-1.1,1.1-2,2.2-2.7,3.4c-0.7-1.2-1.6-2.3-2.7-3.4C151.8,64.5,139.7,64.5,132.2,72z"/>
				<path fill="#EB3E32" d="M132.3,72c-7.4,7.4-7.4,19.5,0,26.9l29.6,29.6l29.6-29.6c7.4-7.4,7.4-19.5,0-26.9s-19.5-7.4-26.9,0
					c-1,1-2,2.2-2.7,3.4c-0.7-1.2-1.6-2.3-2.7-3.4C151.8,64.6,139.8,64.6,132.3,72z"/>
				<path fill="#ED3F32" d="M132.5,72.1c-7.4,7.4-7.4,19.4,0,26.8l29.5,29.5l29.5-29.5c7.4-7.4,7.4-19.4,0-26.8s-19.4-7.4-26.8,0
					c-1,1-2,2.2-2.7,3.4c-0.7-1.2-1.6-2.3-2.7-3.4C151.9,64.7,139.9,64.7,132.5,72.1z"/>
				<path fill="#EE3F32" d="M132.6,72.2c-7.4,7.4-7.4,19.3,0,26.7l29.4,29.4l29.4-29.4c7.4-7.4,7.4-19.3,0-26.7
					c-7.4-7.4-19.3-7.4-26.7,0c-1,1-1.9,2.2-2.7,3.4c-0.7-1.2-1.6-2.3-2.7-3.4C151.9,64.8,139.9,64.8,132.6,72.2z"/>
				<path fill="#EF4032" d="M132.7,72.2c-7.3,7.3-7.3,19.2,0,26.6l29.2,29.2l29.2-29.2c7.3-7.3,7.3-19.2,0-26.6
					c-7.3-7.3-19.2-7.3-26.6,0c-1,1-1.9,2.2-2.7,3.4c-0.7-1.2-1.6-2.3-2.7-3.4C151.9,64.9,140,64.9,132.7,72.2z"/>
				<path fill="#EF4132" d="M132.8,72.3c-7.3,7.3-7.3,19.2,0,26.5l29.1,29.1L191,98.8c7.3-7.3,7.3-19.2,0-26.5s-19.2-7.3-26.5,0
					c-1,1-1.9,2.1-2.6,3.3c-0.7-1.2-1.6-2.3-2.6-3.3C152,65,140.1,65,132.8,72.3z"/>
				<path fill="#EF4132" d="M132.9,72.3c-7.3,7.3-7.3,19.1,0,26.4l29,29l29-29c7.3-7.3,7.3-19.1,0-26.4s-19.1-7.3-26.4,0
					c-1,1-1.9,2.1-2.6,3.3c-0.7-1.2-1.6-2.3-2.6-3.3C152,65,140.2,65,132.9,72.3z"/>
				<path fill="#EF4232" d="M133,72.4c-7.2,7.2-7.2,19,0,26.3l28.9,28.9l28.9-28.9c7.2-7.2,7.2-19,0-26.3c-7.2-7.3-19-7.2-26.3,0
					c-1,1-1.9,2.1-2.6,3.3c-0.7-1.2-1.6-2.3-2.6-3.3C152.1,65.1,140.3,65.1,133,72.4z"/>
				<path fill="#EF4332" d="M133.2,72.4c-7.2,7.2-7.2,18.9,0,26.2l28.8,28.8l28.8-28.8c7.2-7.2,7.2-18.9,0-26.2
					c-7.2-7.2-18.9-7.2-26.2,0c-1,1-1.9,2.1-2.6,3.3c-0.7-1.2-1.6-2.3-2.6-3.3C152.1,65.2,140.4,65.2,133.2,72.4z"/>
				<path fill="#EF4332" d="M133.3,72.5c-7.2,7.2-7.2,18.9,0,26l28.7,28.7l28.7-28.7c7.2-7.2,7.2-18.9,0-26c-7.2-7.2-18.9-7.2-26,0
					c-1,1-1.9,2.1-2.6,3.3c-0.7-1.2-1.6-2.3-2.6-3.3C152.1,65.3,140.5,65.3,133.3,72.5z"/>
				<path fill="#EF4434" d="M133.4,72.5c-7.2,7.2-7.2,18.8,0,25.9l28.5,28.5l28.5-28.5c7.2-7.2,7.2-18.8,0-25.9
					c-7.2-7.1-18.8-7.2-25.9,0c-1,1-1.9,2.1-2.6,3.3c-0.7-1.2-1.6-2.3-2.6-3.3C152.2,65.4,140.6,65.4,133.4,72.5z"/>
				<path fill="#EF4534" d="M133.5,72.6c-7.1,7.1-7.1,18.7,0,25.8l28.4,28.4l28.4-28.4c7.1-7.1,7.1-18.7,0-25.8s-18.7-7.1-25.8,0
					c-1,1-1.9,2.1-2.6,3.3c-0.7-1.2-1.6-2.2-2.6-3.3C152.2,65.5,140.6,65.5,133.5,72.6z"/>
				<path fill="#EF4534" d="M133.6,72.6c-7.1,7.1-7.1,18.6,0,25.7l28.3,28.3l28.3-28.3c7.1-7.1,7.1-18.6,0-25.7s-18.6-7.1-25.7,0
					c-1,1-1.9,2.1-2.6,3.2c-0.7-1.2-1.6-2.2-2.6-3.2C152.3,65.5,140.7,65.5,133.6,72.6z"/>
				<path fill="#EF4834" d="M133.7,72.7c-7.1,7.1-7.1,18.6,0,25.6l28.2,28.2l28.2-28.2c7.1-7.1,7.1-18.6,0-25.6
					c-7.1-7.1-18.6-7.1-25.6,0c-1,1-1.9,2.1-2.6,3.2c-0.7-1.2-1.6-2.2-2.6-3.2C152.3,65.6,140.8,65.6,133.7,72.7z"/>
				<path fill="#F04935" d="M133.9,72.7c-7,7-7,18.5,0,25.5l28.1,28.1l28.1-28.1c7-7,7-18.5,0-25.5s-18.5-7-25.5,0
					c-1,1-1.9,2.1-2.6,3.2c-0.7-1.1-1.6-2.2-2.6-3.2C152.3,65.7,140.9,65.7,133.9,72.7z"/>
				<path fill="#F04935" d="M134,72.8c-7,7-7,18.4,0,25.4l27.9,27.9l27.9-27.9c7-7,7-18.4,0-25.4c-7-7-18.4-7-25.4,0
					c-1,1-1.9,2.1-2.5,3.2c-0.7-1.1-1.6-2.2-2.5-3.2C152.4,65.8,141,65.8,134,72.8z"/>
				<path fill="#F04A35" d="M134.1,72.8c-7,7-7,18.3,0,25.3l27.8,27.8l27.8-27.8c7-7,7-18.3,0-25.3c-7-7-18.3-7-25.3,0
					c-1,1-1.8,2-2.5,3.2c-0.7-1.1-1.5-2.2-2.5-3.2C152.4,65.9,141.1,65.9,134.1,72.8z"/>
			</g>

				<radialGradient id="SVGID_6_" cx="143.6877" cy="147.7585" r="19.6755" gradientTransform="matrix(0.9993 0 0 -0.9996 7.744143e-02 218.6921)" gradientUnits="userSpaceOnUse">
				<stop  offset="0" style="stop-color:#FFFFFF"/>
				<stop  offset="1" style="stop-color:#F04A35"/>
			</radialGradient>
			<circle fill="url(#SVGID_6_)" cx="143.9" cy="83.3" r="15.8"/>

				<radialGradient id="SVGID_7_" cx="179.6852" cy="147.7585" r="19.6755" gradientTransform="matrix(0.9993 0 0 -0.9996 7.744143e-02 218.6921)" gradientUnits="userSpaceOnUse">
				<stop  offset="0" style="stop-color:#FFFFFF"/>
				<stop  offset="1" style="stop-color:#F04A35"/>
			</radialGradient>
			<circle fill="url(#SVGID_7_)" cx="179.9" cy="83.3" r="15.8"/>
		</g>
	</defs>

	<g id="face">
			<g>
				<path fill="#F15B2B" d="M215.9,108c2.3,59.2-41.3,106.6-108,108C48.4,217.2,0,167.7,0,108S48.3,0,108,0S213.6,48.4,215.9,108z"/>
				<path fill="#F15C2B" d="M215.8,107.9c2.3,59.1-41.3,106.5-107.9,107.9C48.5,217,0.2,167.5,0.2,107.9S48.5,0,108.1,0
					S213.5,48.4,215.8,107.9z"/>
				<path fill="#F15D2A" d="M215.7,107.8c2.3,59.1-41.4,106.4-107.8,107.8C48.5,216.8,0.2,167.3,0.2,107.8S48.5,0,108,0
					S213.5,48.3,215.7,107.8z"/>
				<path fill="#F15F2A" d="M215.7,107.7c2.2,59-41.4,106.4-107.7,107.7C48.6,216.6,0.4,167.2,0.4,107.7S48.6,0,108.1,0
					S213.4,48.3,215.7,107.7z"/>
				<path fill="#F15F2A" d="M215.6,107.6c2.2,59-41.4,106.3-107.6,107.6C48.7,216.4,0.5,167,0.5,107.6S48.6,0,108.1,0
					S213.3,48.3,215.6,107.6z"/>
				<path fill="#F16029" d="M215.5,107.6c2.2,58.9-41.5,106.2-107.5,107.5C48.7,216.3,0.6,167,0.6,107.6S48.7,0.1,108.1,0.1
					S213.3,48.2,215.5,107.6z"/>
				<path fill="#F26129" d="M215.4,107.5c2.2,58.9-41.5,106.1-107.4,107.4C48.8,216.1,0.7,166.8,0.7,107.5S48.7,0,108.1,0
					S213.2,48.2,215.4,107.5z"/>
				<path fill="#F26328" d="M215.3,107.4c2.2,58.9-41.5,106.1-107.3,107.3C48.8,215.9,0.7,166.6,0.7,107.4C0.7,48.1,48.8,0,108.1,0
					S213.1,48.1,215.3,107.4z"/>
				<path fill="#F26427" d="M215.2,107.3c2.1,58.8-41.5,106-107.3,107.3c-59.2,1.1-107.3-48-107.3-107.3S48.8,0,108.1,0
					S213.1,48.1,215.2,107.3z"/>
				<path fill="#F26426" d="M215.1,107.2c2.1,58.8-41.6,105.9-107.2,107.2c-59.2,1.1-107.2-48-107.2-107.2S48.8,0,108,0
					S213,48.1,215.1,107.2z"/>
				<path fill="#F26526" d="M215,107.1c2.1,58.7-41.6,105.8-107.1,107.1C48.9,215.3,0.9,166.3,0.9,107.1S48.9,0,108.1,0
					S212.9,48,215,107.1z"/>
				<path fill="#F26726" d="M215,107c2.1,58.7-41.6,105.8-107,107c-59.1,1.1-107-47.9-107-107S49,0,108.1,0S212.9,48,215,107z"/>
				<path fill="#F26825" d="M214.9,107c2,58.6-41.7,105.7-106.9,106.9C49,215,1.1,166,1.1,107S49,0.1,108,0.1S212.8,47.9,214.9,107z"
					/>
				<path fill="#F26926" d="M214.8,106.9c2,58.6-41.7,105.6-106.8,106.8c-59,1.1-106.8-47.8-106.8-106.8S49.1,0.1,108.1,0.1
					S212.8,47.9,214.8,106.9z"/>
				<path fill="#F26A25" d="M214.7,106.8c2,58.6-41.7,105.6-106.7,106.7c-59,1.1-106.8-47.8-106.8-106.7S49.1,0,108.1,0
					S212.7,47.9,214.7,106.8z"/>
				<path fill="#F26A25" d="M214.6,106.7c2,58.5-41.8,105.5-106.7,106.7C49.1,214.5,1.3,165.6,1.3,106.7C1.3,47.8,49.1,0,108,0
					S212.6,47.8,214.6,106.7z"/>
				<path fill="#F36B25" d="M214.5,106.6c2,58.5-41.8,105.4-106.6,106.6c-58.8,1-106.6-47.7-106.6-106.6S49.2,0,108.1,0
					S212.6,47.8,214.5,106.6z"/>
				<path fill="#F36D24" d="M214.4,106.5c1.9,58.4-41.8,105.3-106.5,106.5C49.2,214,1.5,165.3,1.5,106.5S49.2,0,108,0
					S212.5,47.7,214.4,106.5z"/>
				<path fill="#F36D24" d="M214.4,106.4c1.9,58.4-41.8,105.3-106.4,106.4c-58.8,1-106.4-47.6-106.4-106.4S49.3,0,108.1,0
					S212.4,47.7,214.4,106.4z"/>
				<path fill="#F36E25" d="M214.3,106.3c1.9,58.3-41.9,105.2-106.3,106.3C49.4,213.6,1.8,165,1.8,106.3C1.8,47.6,49.4,0,108.1,0
					S212.4,47.7,214.3,106.3z"/>
				<path fill="#F36F24" d="M214.2,106.3c1.9,58.3-41.9,105.1-106.2,106.2c-58.7,1-106.2-47.6-106.2-106.2
					C1.9,47.6,49.5,0.1,108.1,0.1S212.3,47.6,214.2,106.3z"/>
				<path fill="#F37024" d="M214.1,106.2c1.8,58.3-41.9,105-106.1,106.1C49.5,213.3,2,164.8,2,106.2S49.4,0,108.1,0
					S212.2,47.6,214.1,106.2z"/>
				<path fill="#F37123" d="M214,106.1c1.8,58.2-42,105-106.1,106.1c-58.6,1-106.1-47.5-106.1-106.1S49.5,0,108.1,0
					S212.2,47.5,214,106.1z"/>
				<path fill="#F37223" d="M213.9,106c1.8,58.2-42,104.9-106,106C49.5,213,2,164.6,2,106C2,47.5,49.4,0,108,0S212.1,47.5,213.9,106z"
					/>
				<path fill="#F37322" d="M213.8,105.9c1.8,58.1-42,104.8-105.9,105.9C49.5,212.7,2.1,164.4,2.1,105.9S49.6,0,108.1,0
					S212,47.5,213.8,105.9z"/>
				<path fill="#F47421" d="M213.8,105.8c1.8,58.1-42,104.7-105.8,105.8C49.7,212.5,2.3,164.2,2.3,105.8S49.7,0,108.1,0
					S212,47.4,213.8,105.8z"/>
				<path fill="#F47521" d="M213.7,105.7c1.7,58-42.1,104.7-105.7,105.7C49.7,212.3,2.4,164.1,2.4,105.7C2.4,47.3,49.7,0,108.1,0
					S211.9,47.4,213.7,105.7z"/>
				<path fill="#F47621" d="M213.6,105.7c1.7,58-42.1,104.6-105.6,105.6C49.7,212.2,2.4,164,2.4,105.7S49.7,0.1,108,0.1
					S211.9,47.4,213.6,105.7z"/>
				<path fill="#F47721" d="M213.5,105.6c1.7,58-42.1,104.5-105.5,105.5C49.8,212,2.5,163.9,2.5,105.6S49.8,0,108.1,0
					S211.8,47.3,213.5,105.6z"/>
				<path fill="#F47821" d="M213.4,105.5c1.7,57.9-42.2,104.5-105.4,105.4C49.9,211.8,2.7,163.7,2.7,105.5
					C2.7,47.3,49.9,0.1,108.1,0.1S211.7,47.3,213.4,105.5z"/>
				<path fill="#F47920" d="M213.3,105.4c1.6,57.9-42.2,104.4-105.4,105.4C49.8,211.7,2.6,163.6,2.6,105.4C2.6,47.2,49.8,0,108,0
					S211.7,47.2,213.3,105.4z"/>
				<path fill="#F47A20" d="M213.2,105.3c1.6,57.8-42.2,104.3-105.3,105.3C49.9,211.5,2.7,163.5,2.7,105.3S49.9,0,108.1,0
					S211.6,47.2,213.2,105.3z"/>
				<path fill="#F47B20" d="M213.1,105.2c1.6,57.8-42.2,104.2-105.2,105.2C49.9,211.3,2.8,163.3,2.8,105.2S50,0,108.1,0
					S211.5,47.2,213.1,105.2z"/>
				<path fill="#F47B20" d="M213.1,105.1c1.6,57.7-42.3,104.2-105.1,105.1C50.1,211,3,163.1,3,105.1S50.1,0,108.1,0
					S211.5,47.1,213.1,105.1z"/>
				<path fill="#F47C20" d="M213,105c1.6,57.7-42.3,104.1-105,105c-58,0.8-105-47-105-105s47-105,105-105S211.4,47.1,213,105z"/>
				<path fill="#F57E20" d="M212.9,105c1.5,57.6-42.3,104-104.9,104.9c-58,0.8-105-47-105-104.9c0-58,47-105,105-105
					S211.3,47,212.9,105z"/>
				<path fill="#F57E20" d="M212.8,104.9c1.5,57.6-42.4,103.9-104.8,104.8C50.2,210.5,3.3,162.8,3.3,104.9S50.2,0,108.1,0
					S211.3,47,212.8,104.9z"/>
				<path fill="#F58020" d="M212.7,104.8c1.5,57.6-42.4,103.9-104.8,104.8C50.2,210.4,3.2,162.7,3.2,104.8S50.2,0,108.1,0
					S211.2,47,212.7,104.8z"/>
				<path fill="#F58020" d="M212.6,104.7c1.5,57.5-42.4,103.8-104.7,104.7C50.2,210.2,3.3,162.5,3.3,104.7S50.2,0,108.1,0
					S211.1,46.9,212.6,104.7z"/>
				<path fill="#F58120" d="M212.5,104.6c1.4,57.5-42.4,103.7-104.6,104.6C50.3,210,3.5,162.4,3.5,104.6S50.3,0,108.1,0
					S211.1,46.9,212.5,104.6z"/>
				<path fill="#F58220" d="M212.5,104.5C213.9,162,170,208.2,108.1,209C50.4,209.8,3.6,162.2,3.6,104.5S50.3,0,108.1,0
					S211,46.8,212.5,104.5z"/>
				<path fill="#F5831F" d="M212.4,104.4c1.4,57.4-42.5,103.6-104.4,104.4C50.4,209.5,3.7,162.1,3.7,104.4S50.4,0,108.1,0
					S211,46.8,212.4,104.4z"/>
				<path fill="#F6851F" d="M212.3,104.4c1.4,57.3-42.5,103.5-104.3,104.3C50.4,209.4,3.7,162,3.7,104.4S50.4,0,108.1,0
					S210.9,46.8,212.3,104.4z"/>
				<path fill="#F6851F" d="M212.2,104.3c1.4,57.3-42.6,103.4-104.2,104.2C50.5,209.2,3.9,161.8,3.9,104.3
					C3.9,46.7,50.6,0.1,108.1,0.1S210.8,46.7,212.2,104.3z"/>
				<path fill="#F6861F" d="M212.1,104.2c1.3,57.3-42.6,103.4-104.2,104.2C50.5,209,3.9,161.7,3.9,104.2S50.5,0,108.1,0
					S210.8,46.7,212.1,104.2z"/>
				<path fill="#F6871F" d="M212,104.1c1.3,57.2-42.6,103.3-104.1,104.1C50.5,208.9,3.9,161.6,3.9,104.1S50.5,0,108,0
					S210.7,46.6,212,104.1z"/>
				<path fill="#F6881F" d="M211.9,104c1.3,57.2-42.6,103.2-104,104C50.6,208.7,4,161.4,4,104S50.6,0,108,0S210.6,46.6,211.9,104z"/>
				<path fill="#F6891F" d="M211.8,103.9C213.1,161,169.1,207,108,207.8C50.6,208.5,4.1,161.3,4.1,103.9S50.6,0,108,0
					S210.6,46.6,211.8,103.9z"/>
				<path fill="#F68A1F" d="M211.8,103.8c1.2,57.1-42.7,103.1-103.8,103.8C50.8,208.3,4.3,161.1,4.3,103.8S50.7,0,108.1,0
					S210.5,46.5,211.8,103.8z"/>
				<path fill="#F68C1F" d="M211.7,103.7c1.2,57-42.7,103-103.7,103.7C50.8,208.1,4.3,161,4.3,103.7S50.7,0,108,0
					S210.4,46.5,211.7,103.7z"/>
				<path fill="#F78D1E" d="M211.6,103.7c1.2,57-42.8,102.9-103.6,103.6C50.9,207.9,4.5,160.9,4.5,103.7S50.9,0.1,108.1,0.1
					S210.4,46.5,211.6,103.7z"/>
				<path fill="#F78E1E" d="M211.5,103.6c1.2,57-42.8,102.8-103.5,103.5C50.9,207.7,4.6,160.7,4.6,103.6C4.6,46.4,51,0.1,108.1,0.1
					S210.3,46.4,211.5,103.6z"/>
				<path fill="#F78F1E" d="M211.4,103.5c1.2,56.9-42.8,102.8-103.5,103.5C50.9,207.6,4.5,160.7,4.5,103.5S50.9,0,108.1,0
					S210.2,46.4,211.4,103.5z"/>
				<path fill="#F78F1E" d="M211.3,103.4c1.1,56.9-42.8,102.7-103.4,103.4C50.9,207.4,4.6,160.5,4.6,103.4S50.9,0,108,0
					S210.2,46.3,211.3,103.4z"/>
				<path fill="#F7901E" d="M211.2,103.3c1.1,56.8-42.9,102.6-103.3,103.3C51,207.2,4.7,160.4,4.7,103.3S51,0,108.1,0
					S210.1,46.3,211.2,103.3z"/>
				<path fill="#F7911E" d="M211.2,103.2c1.1,56.8-42.9,102.5-103.2,103.2C51.1,207,4.9,160.2,4.9,103.2S51.1,0,108.1,0
					S210.1,46.3,211.2,103.2z"/>
				<path fill="#F7921E" d="M211.1,103.1c1.1,56.7-42.9,102.5-103.1,103.1c-57,0.6-103.2-46.1-103.2-103.1S51.1,0,108.1,0
					S210,46.2,211.1,103.1z"/>
				<path fill="#F7931E" d="M211,103.1c1,56.7-43,102.4-103,103c-56.9,0.6-103-46.1-103-103s46.1-103,103-103S209.9,46.2,211,103.1z"
					/>
				<path fill="#F7941E" d="M210.9,103c1,56.7-43,102.3-102.9,102.9c-56.9,0.6-103-46.1-103-102.9c0-56.9,46.1-103,103-103
					S209.9,46.1,210.9,103z"/>
				<path fill="#F8951D" d="M210.8,102.9c1,56.6-43,102.3-102.9,102.9c-56.8,0.5-102.9-46-102.9-102.9S51.3,0,108.1,0
					S209.8,46.1,210.8,102.9z"/>
				<path fill="#F8961D" d="M210.7,102.8c1,56.6-43,102.2-102.8,102.8c-56.7,0.5-102.8-46-102.8-102.8S51.2,0,108,0
					S209.7,46.1,210.7,102.8z"/>
				<path fill="#F8961D" d="M210.6,102.7c1,56.5-43.1,102.1-102.7,102.7c-56.7,0.5-102.7-46-102.7-102.7S51.3,0,108,0
					S209.7,46,210.6,102.7z"/>
				<path fill="#F8981D" d="M210.5,102.6c0.9,56.5-43.1,102-102.6,102.6C51.3,205.7,5.4,159.3,5.4,102.6S51.4,0,108.1,0
					S209.6,46,210.5,102.6z"/>
				<path fill="#F8991D" d="M210.5,102.5c0.9,56.4-43.1,102-102.5,102.5C51.5,205.5,5.6,159.1,5.6,102.5S51.5,0,108.1,0
					S209.5,45.9,210.5,102.5z"/>
				<path fill="#F8991D" d="M210.4,102.5c0.9,56.4-43.2,101.9-102.4,102.4C51.5,205.3,5.6,159,5.6,102.5C5.6,45.9,51.5,0.1,108,0.1
					S209.5,45.9,210.4,102.5z"/>
				<path fill="#F99B1C" d="M210.3,102.4c0.9,56.3-43.2,101.8-102.3,102.3C51.6,205.2,5.8,158.9,5.8,102.4S51.6,0.1,108.1,0.1
					S209.4,45.9,210.3,102.4z"/>
				<path fill="#F99B1C" d="M210.2,102.3C211,158.6,167,204,108.1,204.5C51.6,205,5.8,158.7,5.8,102.3S51.6,0,108.1,0
					S209.4,45.8,210.2,102.3z"/>
				<path fill="#F99D1C" d="M210.1,102.2c0.8,56.3-43.2,101.7-102.2,102.2C51.6,204.8,5.8,158.7,5.8,102.2S51.6,0,108.1,0
					S209.3,45.8,210.1,102.2z"/>
				<path fill="#F99E1C" d="M210,102.1c0.8,56.2-43.3,101.6-102.1,102.1C51.6,204.6,5.9,158.5,5.9,102.1S51.6,0,108,0
					S209.2,45.7,210,102.1z"/>
				<path fill="#F99F1B" d="M209.9,102c0.8,56.2-43.3,101.5-102,102C51.7,204.4,6,158.3,6,102S51.7,0,108,0S209.2,45.7,209.9,102z"/>
				<path fill="#F9A01B" d="M209.9,101.9c0.8,56.1-43.3,101.5-101.9,101.9C51.8,204.2,6.2,158.2,6.2,101.9S51.8,0,108.1,0
					S209.1,45.7,209.9,101.9z"/>
				<path fill="#F9A01B" d="M209.8,101.8c0.7,56.1-43.4,101.4-101.8,101.8C51.9,204,6.3,158,6.3,101.8C6.3,45.6,51.9,0,108.1,0
					S209,45.6,209.8,101.8z"/>
				<path fill="#FAA21B" d="M209.7,101.8c0.7,56-43.4,101.3-101.7,101.7C51.9,203.9,6.4,158,6.4,101.8S51.9,0,108.1,0
					S209,45.6,209.7,101.8z"/>
				<path fill="#FAA31B" d="M209.6,101.7c0.7,56-43.4,101.2-101.6,101.6C52,203.7,6.5,157.8,6.5,101.7S51.9,0,108.1,0
					S208.9,45.6,209.6,101.7z"/>
				<path fill="#FAA31A" d="M209.5,101.6c0.7,56-43.4,101.2-101.6,101.6C51.9,203.6,6.4,157.7,6.4,101.6S52,0,108.1,0
					S208.8,45.5,209.5,101.6z"/>
				<path fill="#FAA51A" d="M209.4,101.5C210,157.4,165.9,202.6,108,203C52,203.3,6.5,157.6,6.5,101.5C6.5,45.5,51.9,0,108,0
					S208.8,45.5,209.4,101.5z"/>
				<path fill="#FAA51A" d="M209.3,101.4c0.6,55.9-43.5,101-101.4,101.4C52,203.1,6.6,157.4,6.6,101.4S52,0,108,0
					S208.7,45.4,209.3,101.4z"/>
				<path fill="#FAA71A" d="M209.3,101.3c0.6,55.8-43.5,100.9-101.3,101.3c-56,0.3-101.3-45.3-101.3-101.3S52.1,0,108.1,0
					S208.6,45.4,209.3,101.3z"/>
				<path fill="#FAA819" d="M209.2,101.2c0.6,55.8-43.6,100.9-101.2,101.2C52.2,202.7,6.9,157.1,6.9,101.2S52.2,0,108.1,0
					S208.6,45.4,209.2,101.2z"/>
				<path fill="#FBA819" d="M209.1,101.2c0.6,55.7-43.6,100.8-101.1,101.1C52.2,202.6,6.9,157,6.9,101.2S52.2,0,108.1,0
					S208.5,45.3,209.1,101.2z"/>
				<path fill="#FBAA19" d="M209,101.1c0.5,55.7-43.6,100.7-101,101c-55.8,0.3-101-45.2-101-101s45.2-101,101-101
					S208.5,45.3,209,101.1z"/>
				<path fill="#FBAA19" d="M208.9,101c0.5,55.7-43.6,100.6-100.9,100.9c-55.8,0.3-101-45.2-101-100.9c0-55.8,45.2-101,101-101
					S208.4,45.2,208.9,101z"/>
				<path fill="#FBAB18" d="M208.8,100.9c0.5,55.6-43.7,100.6-100.9,100.9C52.4,202,7.2,156.6,7.2,100.9S52.4,0,108.1,0
					S208.3,45.2,208.8,100.9z"/>
				<path fill="#FBAD18" d="M208.7,100.8c0.5,55.6-43.7,100.5-100.8,100.8C52.3,201.8,7.2,156.5,7.2,100.8C7.2,45.1,52.3,0,108,0
					S208.3,45.2,208.7,100.8z"/>
				<path fill="#FBAD18" d="M208.6,100.7c0.4,55.5-43.7,100.4-100.7,100.7C52.4,201.6,7.3,156.3,7.3,100.7S52.4,0,108.1,0
					S208.2,45.1,208.6,100.7z"/>
				<path fill="#FBAE18" d="M208.6,100.6c0.4,55.5-43.8,100.4-100.6,100.6c-55.6,0.2-100.6-45-100.6-100.6S52.5,0,108.1,0
					S208.1,45.1,208.6,100.6z"/>
				<path fill="#FCAF17" d="M208.5,100.6c0.4,55.4-43.8,100.3-100.5,100.5c-55.5,0.2-100.5-45-100.5-100.5S52.6,0.1,108.1,0.1
					S208.1,45,208.5,100.6z"/>
				<path fill="#FCB017" d="M208.4,100.5c0.4,55.4-43.8,100.2-100.4,100.4c-55.5,0.2-100.4-45-100.4-100.4S52.6,0,108.1,0
					S208,45,208.4,100.5z"/>
				<path fill="#FCB116" d="M208.3,100.4c0.4,55.3-43.8,100.1-100.3,100.3C52.7,200.9,7.8,155.8,7.8,100.4C7.7,45,52.6,0,108.1,0
					S207.9,45,208.3,100.4z"/>
				<path fill="#FCB316" d="M208.2,100.3c0.3,55.3-43.9,100.1-100.3,100.3C52.6,200.8,7.7,155.7,7.7,100.3S52.6,0,108,0
					S207.9,44.9,208.2,100.3z"/>
				<path fill="#FCB316" d="M208.1,100.2c0.3,55.3-43.9,100-100.2,100.2C52.7,200.6,7.8,155.6,7.8,100.2S52.7,0,108.1,0
					S207.8,44.9,208.1,100.2z"/>
				<path fill="#FCB415" d="M208,100.1c0.3,55.2-43.9,99.9-100.1,100.1C52.7,200.4,7.9,155.4,7.9,100.1S52.8,0,108.1,0
					S207.7,44.8,208,100.1z"/>
				<path fill="#FDB515" d="M208,100c0.3,55.2-44,99.8-100,100c-55.2,0.1-100-44.8-100-100S52.9,0,108.1,0S207.7,44.8,208,100z"/>
				<path fill="#FDB614" d="M207.9,99.9c0.2,55.1-44,99.8-99.9,99.9c-55.2,0.2-100-44.7-100-99.9S52.8,0,108,0S207.6,44.8,207.9,99.9z
					"/>
				<path fill="#FDB714" d="M207.8,99.9c0.2,55.1-44,99.7-99.8,99.8C53,199.8,8.3,155,8.3,99.9C8.3,44.8,53,0.1,108.1,0.1
					S207.6,44.7,207.8,99.9z"/>
				<path fill="#FDB814" d="M207.7,99.8c0.2,55-44,99.6-99.7,99.7C53,199.6,8.4,154.8,8.4,99.8S53,0,108.1,0S207.5,44.7,207.7,99.8z"
					/>
				<path fill="#FDB913" d="M207.6,99.7c0.2,55-44.1,99.5-99.7,99.7c-55,0.1-99.7-44.6-99.7-99.7C8.3,44.7,52.9,0,108,0
					S207.4,44.7,207.6,99.7z"/>
				<path fill="#FDBA12" d="M207.5,99.6c0.2,55-44.1,99.5-99.6,99.6c-55,0.1-99.6-44.6-99.6-99.6S53.1,0,108.1,0
					S207.4,44.6,207.5,99.6z"/>
				<path fill="#FEBB12" d="M207.4,99.5c0.1,54.9-44.1,99.4-99.5,99.5c-54.9,0.1-99.5-44.5-99.5-99.5S53.1,0,108.1,0
					S207.3,44.6,207.4,99.5z"/>
				<path fill="#FCBC13" d="M207.3,99.4c0.1,54.9-44.2,99.3-99.4,99.4c-54.9,0.1-99.4-44.5-99.4-99.4S53.1,0,108,0
					S207.2,44.5,207.3,99.4z"/>
				<path fill="#FDBD12" d="M207.3,99.3c0.1,54.8-44.2,99.3-99.3,99.3c-54.8,0-99.3-44.5-99.3-99.3S53.3,0,108.1,0
					S207.2,44.5,207.3,99.3z"/>
				<path fill="#FEBE10" d="M207.2,99.3c0.1,54.8-44.2,99.2-99.2,99.2c-54.8,0-99.2-44.4-99.2-99.2S53.3,0,108.1,0
					S207.1,44.5,207.2,99.3z"/>
				<path fill="#FEBF10" d="M207.1,99.2c0,54.7-44.2,99.1-99.1,99.1C53.4,198.3,9,153.9,9,99.2S53.3,0,108.1,0S207,44.4,207.1,99.2z"
					/>
				<path fill="#FDC010" d="M207,99.1c0,54.7-44.3,99-99,99s-99-44.3-99-99s44.3-99,99-99S207,44.4,207,99.1z"/>
				<ellipse fill="#FDC110" cx="108.1" cy="99" rx="99" ry="99"/>
			</g>

				<radialGradient id="SVGID_1_" cx="67.0001" cy="-1888.6108" r="1.8825" gradientTransform="matrix(21.3121 0 0 21.3185 -1319.9553 40442.3945)" gradientUnits="userSpaceOnUse">
				<stop  offset="0" style="stop-color:#8C481F"/>
				<stop  offset="0.3157" style="stop-color:#89471F"/>
				<stop  offset="0.5817" style="stop-color:#7E421C"/>
				<stop  offset="0.8289" style="stop-color:#6C3916"/>
				<stop  offset="1" style="stop-color:#5A3211"/>
			</radialGradient>
			<path fill="url(#SVGID_1_)" d="M143.9,144c0,19.9-16.1,36-36,36s-36-16.1-36-36H143.9L143.9,144z"/>

				<radialGradient id="SVGID_2_" cx="66.9676" cy="-1889.8225" r="1.2665" gradientTransform="matrix(21.3121 0 0 21.3185 -1319.9553 40442.3945)" gradientUnits="userSpaceOnUse">
				<stop  offset="0" style="stop-color:#5A3211"/>
				<stop  offset="0.434" style="stop-color:#583010"/>
				<stop  offset="0.7992" style="stop-color:#4D2D13"/>
				<stop  offset="1" style="stop-color:#442A14"/>
			</radialGradient>
			<path fill="url(#SVGID_2_)" d="M143.9,144c0,3.1-0.4,6.1-1.1,9H73.2c-0.7-2.9-1.1-5.9-1.1-9H143.9z"/>

				<linearGradient id="SVGID_3_" gradientUnits="userSpaceOnUse" x1="67.0183" y1="-1896.5814" x2="67.0183" y2="-1892.0486" gradientTransform="matrix(21.3333 0 0 21.3333 -1321.6644 40469.3398)">
				<stop  offset="0" style="stop-color:#FFFFFF"/>
				<stop  offset="0.7065" style="stop-color:#FDC110"/>
			</linearGradient>
			<ellipse fill="url(#SVGID_3_)" cx="108.1" cy="58.5" rx="72" ry="49.5"/>
		</g>

	<use xlink:href="#heart_left" x="0" y="0">
		<animateTransform attributeName="transform" type="translate"
	                      values="0,0;-54,-95;0,0" dur="1.5s"
	                      repeatCount="indefinite" additive="sum"/>
		<animateTransform attributeName="transform" type="scale"
	                      values="1,1;2,2;1,1" dur="1.5s"
	                      repeatCount="indefinite" additive="sum"/>
	</use>
	<use xlink:href="#heart_right" x="0" y="0">
		<animateTransform attributeName="transform" type="translate"
	                      values="0,0;-160,-95;0,0" dur="1.5s"
	                      repeatCount="indefinite" additive="sum"/>
		<animateTransform attributeName="transform" type="scale"
	                      values="1,1;2,2;1,1" dur="1.5s"
	                      repeatCount="indefinite" additive="sum"/>
	</use>
</svg>
