<?xml version="1.0" encoding="utf-8"?>
<!-- Generator: Adobe Illustrator 18.0.0, SVG Export Plug-In . SVG Version: 6.00 Build 0)  -->
<!DOCTYPE svg PUBLIC "-//W3C//DTD SVG 1.1//EN" "http://www.w3.org/Graphics/SVG/1.1/DTD/svg11.dtd">
<svg version="1.1" id="Layer_1" xmlns="http://www.w3.org/2000/svg" xmlns:xlink="http://www.w3.org/1999/xlink" x="0px" y="0px"
	 viewBox="0 344.272 1000 309.731" enable-background="new 0 344.272 1000 309.731" xml:space="preserve">
<path opacity="0.6" fill="#00131A" d="M974.104,344.285c14.306,0,25.896,11.596,25.896,25.9v257.917
	c0,14.306-11.597,25.901-25.901,25.901H716.169c-14.304,0-25.899-11.596-25.899-25.902V370.172c0-14.304,11.591-25.9,25.896-25.9
	h257.929 M974.101,351.848H716.172c-10.104,0-18.323,8.22-18.323,18.324v257.917c0,10.105,8.22,18.326,18.323,18.326h257.929
	c10.105,0,18.326-8.221,18.326-18.326V370.16c0.013-10.105-8.207-18.324-18.308-18.324L974.101,351.848z"/>
<path opacity="0.6" fill="#00131A" d="M826.74,512.38l-9.81-24.82c-1.85-4.73-5.85-8.77-13.4-8.77h-13.87v-6.48
	c0-2.59-1.42-3.91-3.73-3.91h-16.17c-2.31,0-3.73,1.32-3.73,3.91v6.48h-14.02c-7.55,0-11.55,4.04-13.4,8.77l-9.82,24.82
	c-3.89,0.49-10.78,4.97-10.78,13.44v31.58h9.55v10.09c0,12.42,17.94,12.28,17.94,0V557.4h64.54v10.09c0,12.28,17.94,12.42,17.94,0
	V557.4h9.55v-31.58C837.53,517.35,830.63,512.87,826.74,512.38z M736.82,538.1c-4.58,0-8.29-3.75-8.29-8.37
	c0-4.63,3.71-8.37,8.29-8.37c4.57,0,8.28,3.74,8.28,8.37C745.1,534.35,741.39,538.1,736.82,538.1z M738.95,511.78l7.39-19.2
	c0.92-2.74,2.31-4.73,5.55-4.76h51.77c3.24,0.03,4.62,2.02,5.55,4.76l7.39,19.2H738.95z M818.71,538.1c-4.57,0-8.28-3.75-8.28-8.37
	c0-4.63,3.71-8.37,8.28-8.37c4.58,0,8.29,3.74,8.29,8.37C827,534.35,823.29,538.1,818.71,538.1z"/>
<path opacity="0.6" fill="#00131A" d="M965.98,444.21c-1.74-8.59-7.32-12.02-15.69-15.46c-8.25-3.38-28.03-7.43-42.62-7.55
	c-14.59,0.12-34.37,4.17-42.62,7.55c-8.37,3.44-13.95,6.87-15.69,15.46l-6.28,47.6v65.59h10.81v10.29c0,12.54,18.64,12.54,18.64,0
	V557.4h70.28v10.29c0,12.54,18.64,12.54,18.64,0V557.4h10.81v-65.59L965.98,444.21z M881.1,433.22h53.15c5.23,0,5.23,7.72,0,7.72
	H881.1C875.87,440.94,875.87,433.22,881.1,433.22z M863.22,536.84c-4.94,0-8.94-3.94-8.94-8.81c0-4.86,4-8.8,8.94-8.8
	c4.94,0,8.94,3.94,8.94,8.8C872.16,532.9,868.16,536.84,863.22,536.84z M859.63,496.83c-4.65,0-5.62-3.29-5.16-6.6l4.88-34.52
	c0.68-4.2,2.12-6.96,7.65-6.96h81.35c5.53,0,6.97,2.76,7.64,6.96l4.89,34.52c0.45,3.31-0.52,6.6-5.16,6.6H859.63z M952.12,536.84
	c-4.94,0-8.94-3.94-8.94-8.81c0-4.86,4-8.8,8.94-8.8s8.94,3.94,8.94,8.8C961.06,532.9,957.06,536.84,952.12,536.84z"/>
<path opacity="0.6" fill="#00131A" d="M628.965,344.285c14.304,0,25.901,11.596,25.901,25.899V628.1
	c0,14.306-11.597,25.901-25.901,25.901H371.035c-14.304,0-25.9-11.596-25.9-25.901V370.171c0-14.303,11.591-25.899,25.896-25.899
	h257.929 M628.965,351.848H371.035c-10.104,0-18.324,8.22-18.324,18.323v257.917c0,10.105,8.221,18.326,18.324,18.326h257.917
	c10.105,0,18.326-8.221,18.326-18.326V370.158c0.013-10.104-8.207-18.323-18.308-18.323L628.965,351.848z"/>
<circle opacity="0.6" fill="#00131A" cx="500" cy="421.98" r="30.383"/>
<path opacity="0.6" fill="#00131A" d="M499.949,515.876h-32.117v-23.189L443.27,517.41c-11.096,11.097-26.136-3.13-15.021-14.246
	l40.668-40.746c3.299-3.275,6.909-5.36,12.638-5.36h36.468c5.729,0,9.593,2.02,12.989,5.36l41.08,41.145
	c10.582,10.579-4.865,24.944-15.014,14.254l-25.206-25.258v23.317h-31.928H499.949z"/>
<path opacity="0.6" fill="#00131A" d="M531.742,527.896l-24.135,24.139l17.72,17.687l-18.157,18.159
	c-10.718,10.717,4.067,26.044,15.149,14.962l28.717-29.859c6.163-6.288,7.866-17.907,1.26-24.514
	c-0.013-0.025-20.543-20.581-20.543-20.581L531.742,527.896z"/>
<path opacity="0.6" fill="#00131A" d="M467.841,527.896l24.136,24.139l-17.721,17.687l18.159,18.159
	c10.717,10.717-4.068,26.044-15.15,14.962l-28.717-29.859c-6.163-6.288-7.867-17.907-1.26-24.514
	c0.013-0.025,20.543-20.581,20.543-20.581L467.841,527.896z"/>
<path opacity="0.6" fill="#00131A" d="M283.826,344.285c14.306,0,25.896,11.596,25.896,25.9v257.917
	c0,14.306-11.596,25.901-25.9,25.901H25.893c-14.304,0-25.9-11.591-25.9-25.896V370.177c0-14.304,11.596-25.9,25.9-25.9h257.917
	 M283.813,351.853H25.884c-10.105,0-18.324,8.22-18.324,18.324v257.917c0,10.105,8.22,18.326,18.324,18.326h257.917
	c10.104,0,18.324-8.221,18.324-18.326V370.165c0-10.105-8.22-18.324-18.321-18.324L283.813,351.853z"/>
<circle opacity="0.6" fill="#00131A" cx="134.874" cy="415.158" r="17.223"/>
<path opacity="0.6" fill="#00131A" d="M254.34,416.62h-40.05c-8.28,0-18.94,3.38-25.29,9.74l-37.07,37.01v-10.84
	c0-23.12-34.1-22.87-34.1,0v44.28h0.07l-32.22,32.22c-3.04,3.04-3.41,3.17-9.38,3.17H56.6c-19.82,0-31.71,17.81-31.71,32.91
	c0,15.1,11.89,34.19,33.47,34.19h35.09c0,0,18.32-3.16,26.6-10.96l102.74-102.42c2.19-1.95,3.41-2.56,7.19-2.56h25.36
	c12.22,0,29.5-13.84,29.5-33.79C284.84,429.83,267.43,416.66,254.34,416.62z M252.52,466.08h-21.67c-9.17,0-13.24,1.28-18.52,6.56
	L108.81,576.16c-4.18,4.2-9.5,5.86-16.32,5.86H58.35c-8.76,0-16.49-7.42-16.49-17.16s7.37-15.2,14.99-15.2h23.42
	c6.82,0,11.31-1.95,15.21-5.85l105.27-105.27c4.33-4.33,8.61-4.88,15.97-4.88v0.01h36.04c8.76,0,14.66,9.8,14.66,15.65
	C267.42,455.16,263.24,466.08,252.52,466.08z"/>
<path opacity="0.6" fill="#00131A" d="M227.033,536.368h-35.981c-9.912,0-10.293,15.246,0,15.246h18.442l-35.076,35.076
	c-7.775,7.775,3.222,19.025,11.484,10.768l34.553-34.649v18.254c-0.053,9.912,15.322,10.292,15.345,0v-35.759
	c0-5.341-3.586-8.939-8.775-8.939L227.033,536.368z"/>
</svg>
