<?xml version="1.0" encoding="utf-8"?>
<!-- Generator: Adobe Illustrator 17.0.0, SVG Export Plug-In . SVG Version: 6.00 Build 0)  -->
<!DOCTYPE svg PUBLIC "-//W3C//DTD SVG 1.1//EN" "http://www.w3.org/Graphics/SVG/1.1/DTD/svg11.dtd">
<svg version="1.1" id="Layer_1" xmlns="http://www.w3.org/2000/svg" xmlns:xlink="http://www.w3.org/1999/xlink" x="0px" y="0px"
	 width="612px" height="334px" viewBox="0 0 612 334" enable-background="new 0 0 612 334" xml:space="preserve">
<g>
	<path fill="#EAEAEA" d="M0,331c0,1.65,1.35,3,3,3h606c1.65,0,3-1.35,3-3V3c0-1.65-1.35-3-3-3H3C1.35,0,0,1.35,0,3V331z"/>
</g>
<g>
	<rect x="154.75" y="50" fill="#BEBEBF" width="1" height="161"/>
</g>
<g>
	<rect x="244.75" y="50" fill="#BEBEBF" width="1" height="161"/>
</g>
<g>
	<rect x="289.75" y="50" fill="#BEBEBF" width="1" height="161"/>
</g>
<g>
	<rect x="379.75" y="50" fill="#BEBEBF" width="1" height="161"/>
</g>
<g>
	<rect x="424.75" y="50" fill="#BEBEBF" width="1" height="161"/>
</g>
<g>
	<rect x="514.75" y="50" fill="#BEBEBF" width="1" height="161"/>
</g>
<g>
	<rect x="559.75" y="50" fill="#BEBEBF" width="1" height="161"/>
</g>
<g opacity="0.75">
	<rect x="155.25" y="257" fill="#383838" width="90" height="6"/>
</g>
<g opacity="0.2">
	<rect x="245.25" y="257" width="45" height="6"/>
</g>
<g opacity="0.75">
	<rect x="290.25" y="257" fill="#383838" width="90" height="6"/>
</g>
<g opacity="0.2">
	<rect x="380.25" y="257" width="45" height="6"/>
</g>
<g opacity="0.75">
	<rect x="425.25" y="257" fill="#383838" width="90" height="6"/>
</g>
<g opacity="0.2">
	<rect x="515.25" y="257" width="45" height="6"/>
</g>
<g>
	<path fill="#383838" d="M151.815,280.865c0-3.211,1.305-4.936,3.435-4.936s3.435,1.725,3.435,4.936c0,3.18-1.305,4.994-3.435,4.994
		S151.815,284.045,151.815,280.865z M152.97,280.865c0,2.744,0.945,4.004,2.28,4.004s2.279-1.26,2.279-4.004
		c0-2.76-0.944-3.945-2.279-3.945S152.97,278.105,152.97,280.865z M154.32,280.76c0-0.615,0.435-0.99,0.93-0.99
		s0.93,0.375,0.93,0.99c0,0.63-0.435,1.005-0.93,1.005S154.32,281.39,154.32,280.76z"/>
</g>
<g>
	<path fill="#383838" d="M149.67,188.66v1.02h-6.45v-1.02h2.715v-7.051h-2.04v-0.795c1.021-0.149,1.755-0.389,2.355-0.705h0.915
		v8.551H149.67z"/>
	<path fill="#383838" d="M151.845,188.945c3.24-2.865,5.025-4.545,5.025-6.135c0-1.096-0.676-1.875-2.085-1.875
		c-0.9,0-1.681,0.51-2.295,1.154l-0.705-0.705c0.854-0.869,1.8-1.455,3.149-1.455c1.92,0,3.12,1.125,3.12,2.82
		c0,1.8-1.8,3.585-4.41,5.955c0.585-0.045,1.215-0.09,1.785-0.09h3.15v1.064h-6.735V188.945z"/>
	<path fill="#383838" d="M166.319,181.175h-5.52v-1.065h6.93v0.766c-2.535,2.895-3.165,5.055-3.3,8.805h-1.29
		C163.305,186.05,164.13,183.859,166.319,181.175z"/>
</g>
<g>
	<path fill="#383838" d="M228.315,280.865c0-3.211,1.305-4.936,3.435-4.936s3.435,1.725,3.435,4.936c0,3.18-1.305,4.994-3.435,4.994
		S228.315,284.045,228.315,280.865z M229.47,280.865c0,2.744,0.945,4.004,2.28,4.004s2.279-1.26,2.279-4.004
		c0-2.76-0.944-3.945-2.279-3.945S229.47,278.105,229.47,280.865z M230.82,280.76c0-0.615,0.435-0.99,0.93-0.99
		s0.93,0.375,0.93,0.99c0,0.63-0.435,1.005-0.93,1.005S230.82,281.39,230.82,280.76z"/>
	<path fill="#383838" d="M240.75,283.324c0.675,0,1.215,0.511,1.215,1.275c0,0.75-0.54,1.26-1.215,1.26s-1.215-0.51-1.215-1.26
		C239.535,283.835,240.075,283.324,240.75,283.324z"/>
	<path fill="#383838" d="M246.345,284.945c3.24-2.865,5.025-4.545,5.025-6.135c0-1.096-0.676-1.875-2.085-1.875
		c-0.9,0-1.681,0.51-2.295,1.154l-0.705-0.705c0.854-0.869,1.8-1.455,3.149-1.455c1.92,0,3.12,1.125,3.12,2.82
		c0,1.8-1.8,3.585-4.41,5.955c0.585-0.045,1.215-0.09,1.785-0.09h3.15v1.064h-6.735V284.945z"/>
	<path fill="#383838" d="M255.345,284.945c3.24-2.865,5.025-4.545,5.025-6.135c0-1.096-0.676-1.875-2.085-1.875
		c-0.9,0-1.681,0.51-2.295,1.154l-0.705-0.705c0.854-0.869,1.8-1.455,3.149-1.455c1.92,0,3.12,1.125,3.12,2.82
		c0,1.8-1.8,3.585-4.41,5.955c0.585-0.045,1.215-0.09,1.785-0.09h3.15v1.064h-6.735V284.945z"/>
</g>
<g>
	<path fill="#383838" d="M273.315,280.865c0-3.211,1.305-4.936,3.435-4.936s3.435,1.725,3.435,4.936c0,3.18-1.305,4.994-3.435,4.994
		S273.315,284.045,273.315,280.865z M274.47,280.865c0,2.744,0.945,4.004,2.28,4.004s2.279-1.26,2.279-4.004
		c0-2.76-0.944-3.945-2.279-3.945S274.47,278.105,274.47,280.865z M275.82,280.76c0-0.615,0.435-0.99,0.93-0.99
		s0.93,0.375,0.93,0.99c0,0.63-0.435,1.005-0.93,1.005S275.82,281.39,275.82,280.76z"/>
	<path fill="#383838" d="M285.75,283.324c0.675,0,1.215,0.511,1.215,1.275c0,0.75-0.54,1.26-1.215,1.26s-1.215-0.51-1.215-1.26
		C284.535,283.835,285.075,283.324,285.75,283.324z"/>
	<path fill="#383838" d="M291.735,283.699c0.63,0.601,1.515,1.141,2.744,1.141c1.306,0,2.295-0.689,2.295-1.755
		c0-1.14-0.96-1.905-3.479-1.905v-0.945c2.265,0,3.135-0.779,3.135-1.784c0-0.931-0.78-1.515-1.95-1.515
		c-0.899,0-1.725,0.404-2.354,0.975l-0.66-0.78c0.795-0.69,1.83-1.2,3.06-1.2c1.801,0,3.165,0.885,3.165,2.43
		c0,1.156-0.854,1.891-2.04,2.28v0.06c1.275,0.271,2.37,1.111,2.37,2.431c0,1.694-1.56,2.729-3.465,2.729
		c-1.649,0-2.745-0.645-3.45-1.35L291.735,283.699z"/>
	<path fill="#383838" d="M300.735,283.699c0.63,0.601,1.515,1.141,2.744,1.141c1.306,0,2.295-0.689,2.295-1.755
		c0-1.14-0.96-1.905-3.479-1.905v-0.945c2.265,0,3.135-0.779,3.135-1.784c0-0.931-0.78-1.515-1.95-1.515
		c-0.899,0-1.725,0.404-2.354,0.975l-0.66-0.78c0.795-0.69,1.83-1.2,3.06-1.2c1.801,0,3.165,0.885,3.165,2.43
		c0,1.156-0.854,1.891-2.04,2.28v0.06c1.275,0.271,2.37,1.111,2.37,2.431c0,1.694-1.56,2.729-3.465,2.729
		c-1.649,0-2.745-0.645-3.45-1.35L300.735,283.699z"/>
</g>
<g>
	<path fill="#383838" d="M363.315,280.865c0-3.211,1.305-4.936,3.435-4.936s3.435,1.725,3.435,4.936c0,3.18-1.305,4.994-3.435,4.994
		S363.315,284.045,363.315,280.865z M364.47,280.865c0,2.744,0.945,4.004,2.28,4.004s2.279-1.26,2.279-4.004
		c0-2.76-0.944-3.945-2.279-3.945S364.47,278.105,364.47,280.865z M365.82,280.76c0-0.615,0.435-0.99,0.93-0.99
		s0.93,0.375,0.93,0.99c0,0.63-0.435,1.005-0.93,1.005S365.82,281.39,365.82,280.76z"/>
	<path fill="#383838" d="M375.75,283.324c0.675,0,1.215,0.511,1.215,1.275c0,0.75-0.54,1.26-1.215,1.26s-1.215-0.51-1.215-1.26
		C374.535,283.835,375.075,283.324,375.75,283.324z"/>
	<path fill="#383838" d="M381.705,283.744c0.63,0.57,1.41,1.096,2.7,1.096c1.35,0,2.43-0.855,2.43-2.189
		c0-1.32-0.931-2.101-2.355-2.101c-0.795,0-1.274,0.21-1.949,0.585l-0.66-0.42l0.314-4.605h5.415v1.065h-4.319l-0.256,2.835
		c0.556-0.24,1.035-0.39,1.771-0.39c1.83,0,3.285,0.93,3.285,2.999c0,2.07-1.71,3.24-3.54,3.24c-1.71,0-2.715-0.645-3.45-1.305
		L381.705,283.744z"/>
	<path fill="#383838" d="M390.705,283.744c0.63,0.57,1.41,1.096,2.7,1.096c1.35,0,2.43-0.855,2.43-2.189
		c0-1.32-0.931-2.101-2.355-2.101c-0.795,0-1.274,0.21-1.949,0.585l-0.66-0.42l0.314-4.605h5.415v1.065h-4.319l-0.256,2.835
		c0.556-0.24,1.035-0.39,1.771-0.39c1.83,0,3.285,0.93,3.285,2.999c0,2.07-1.71,3.24-3.54,3.24c-1.71,0-2.715-0.645-3.45-1.305
		L390.705,283.744z"/>
</g>
<g>
	<path fill="#383838" d="M408.315,280.865c0-3.211,1.305-4.936,3.435-4.936s3.435,1.725,3.435,4.936c0,3.18-1.305,4.994-3.435,4.994
		S408.315,284.045,408.315,280.865z M409.47,280.865c0,2.744,0.945,4.004,2.28,4.004s2.279-1.26,2.279-4.004
		c0-2.76-0.944-3.945-2.279-3.945S409.47,278.105,409.47,280.865z M410.82,280.76c0-0.615,0.435-0.99,0.93-0.99
		s0.93,0.375,0.93,0.99c0,0.63-0.435,1.005-0.93,1.005S410.82,281.39,410.82,280.76z"/>
	<path fill="#383838" d="M420.75,283.324c0.675,0,1.215,0.511,1.215,1.275c0,0.75-0.54,1.26-1.215,1.26s-1.215-0.51-1.215-1.26
		C419.535,283.835,420.075,283.324,420.75,283.324z"/>
	<path fill="#383838" d="M432.39,277.715c-0.495-0.465-1.185-0.75-1.905-0.75c-1.529,0-2.88,1.035-2.925,4.109
		c0.766-0.764,1.755-1.244,2.715-1.244c1.771,0,2.985,0.99,2.985,2.955c0,1.83-1.485,3.074-3.195,3.074
		c-2.085,0-3.659-1.529-3.659-4.604c0-3.84,1.92-5.325,4.005-5.325c1.17,0,2.039,0.436,2.67,1.021L432.39,277.715z M432.09,282.785
		c0-1.305-0.72-2.025-2.04-2.025c-0.75,0-1.635,0.36-2.445,1.29c0.181,1.845,1.065,2.835,2.46,2.835
		C431.205,284.885,432.09,284.045,432.09,282.785z"/>
	<path fill="#383838" d="M441.39,277.715c-0.495-0.465-1.185-0.75-1.905-0.75c-1.529,0-2.88,1.035-2.925,4.109
		c0.766-0.764,1.755-1.244,2.715-1.244c1.771,0,2.985,0.99,2.985,2.955c0,1.83-1.485,3.074-3.195,3.074
		c-2.085,0-3.659-1.529-3.659-4.604c0-3.84,1.92-5.325,4.005-5.325c1.17,0,2.039,0.436,2.67,1.021L441.39,277.715z M441.09,282.785
		c0-1.305-0.72-2.025-2.04-2.025c-0.75,0-1.635,0.36-2.445,1.29c0.181,1.845,1.065,2.835,2.46,2.835
		C440.205,284.885,441.09,284.045,441.09,282.785z"/>
</g>
<g>
	<path fill="#383838" d="M498.315,280.865c0-3.211,1.305-4.936,3.435-4.936s3.435,1.725,3.435,4.936c0,3.18-1.305,4.994-3.435,4.994
		S498.315,284.045,498.315,280.865z M499.47,280.865c0,2.744,0.945,4.004,2.28,4.004s2.279-1.26,2.279-4.004
		c0-2.76-0.944-3.945-2.279-3.945S499.47,278.105,499.47,280.865z M500.82,280.76c0-0.615,0.435-0.99,0.93-0.99
		s0.93,0.375,0.93,0.99c0,0.63-0.435,1.005-0.93,1.005S500.82,281.39,500.82,280.76z"/>
	<path fill="#383838" d="M510.75,283.324c0.675,0,1.215,0.511,1.215,1.275c0,0.75-0.54,1.26-1.215,1.26s-1.215-0.51-1.215-1.26
		C509.535,283.835,510.075,283.324,510.75,283.324z"/>
	<path fill="#383838" d="M518.325,280.686v-0.061c-0.795-0.495-1.455-1.23-1.455-2.234c0-1.471,1.245-2.461,2.955-2.461
		c1.875,0,2.97,1.065,2.97,2.551c0,0.899-0.66,1.725-1.455,2.279v0.061c1.05,0.524,1.875,1.125,1.875,2.489
		c0,1.425-1.245,2.55-3.435,2.55c-2.16,0-3.511-1.109-3.511-2.625C516.27,281.915,517.305,281.165,518.325,280.686z M519.81,284.945
		c1.425,0,2.22-0.69,2.22-1.681c0-1.335-1.319-1.665-2.999-2.235c-0.931,0.511-1.636,1.125-1.636,2.086
		C517.395,284.18,518.34,284.945,519.81,284.945z M521.729,278.54c0-0.944-0.675-1.694-1.935-1.694c-1.065,0-1.8,0.614-1.8,1.545
		c0,1.139,1.109,1.619,2.534,2.069C521.31,279.891,521.729,279.245,521.729,278.54z"/>
	<path fill="#383838" d="M527.325,280.686v-0.061c-0.795-0.495-1.455-1.23-1.455-2.234c0-1.471,1.245-2.461,2.955-2.461
		c1.875,0,2.97,1.065,2.97,2.551c0,0.899-0.66,1.725-1.455,2.279v0.061c1.05,0.524,1.875,1.125,1.875,2.489
		c0,1.425-1.245,2.55-3.435,2.55c-2.16,0-3.511-1.109-3.511-2.625C525.27,281.915,526.305,281.165,527.325,280.686z M528.81,284.945
		c1.425,0,2.22-0.69,2.22-1.681c0-1.335-1.319-1.665-2.999-2.235c-0.931,0.511-1.636,1.125-1.636,2.086
		C526.395,284.18,527.34,284.945,528.81,284.945z M530.729,278.54c0-0.944-0.675-1.694-1.935-1.694c-1.065,0-1.8,0.614-1.8,1.545
		c0,1.139,1.109,1.619,2.534,2.069C530.31,279.891,530.729,279.245,530.729,278.54z"/>
</g>
<g>
	<path fill="#383838" d="M563.67,284.66v1.02h-6.45v-1.02h2.715v-7.051h-2.04v-0.795c1.021-0.149,1.755-0.389,2.355-0.705h0.915
		v8.551H563.67z"/>
</g>
<g>
	<path fill="#383838" d="M239.67,166.16v1.02h-6.45v-1.02h2.715v-7.05h-2.04v-0.795c1.021-0.15,1.755-0.39,2.355-0.705h0.915v8.55
		H239.67z"/>
	<path fill="#383838" d="M248.67,166.16v1.02h-6.45v-1.02h2.715v-7.05h-2.04v-0.795c1.021-0.15,1.755-0.39,2.355-0.705h0.915v8.55
		H248.67z"/>
	<path fill="#383838" d="M256.319,158.675h-5.52v-1.065h6.93v0.765c-2.535,2.895-3.165,5.055-3.3,8.805h-1.29
		C253.305,163.55,254.13,161.36,256.319,158.675z"/>
</g>
<g>
	<path fill="#383838" d="M284.67,166.16v1.02h-6.45v-1.02h2.715v-7.05h-2.04v-0.795c1.021-0.15,1.755-0.39,2.355-0.705h0.915v8.55
		H284.67z"/>
	<path fill="#383838" d="M293.67,166.16v1.02h-6.45v-1.02h2.715v-7.05h-2.04v-0.795c1.021-0.15,1.755-0.39,2.355-0.705h0.915v8.55
		H293.67z"/>
	<path fill="#383838" d="M301.319,158.675h-5.52v-1.065h6.93v0.765c-2.535,2.895-3.165,5.055-3.3,8.805h-1.29
		C298.305,163.55,299.13,161.36,301.319,158.675z"/>
</g>
<g>
	<path fill="#383838" d="M373.125,98.075c0.479,0.465,1.17,0.765,1.905,0.765c1.515,0,2.85-1.05,2.909-4.11
		c-0.779,0.765-1.739,1.23-2.715,1.23c-1.77,0-2.97-0.99-2.97-2.955c0-1.83,1.485-3.075,3.18-3.075c2.085,0,3.675,1.53,3.675,4.604
		c0,3.84-1.935,5.325-4.005,5.325c-1.17,0-2.04-0.435-2.67-1.005L373.125,98.075z M377.91,93.755c-0.195-1.86-1.051-2.85-2.46-2.85
		c-1.141,0-2.025,0.84-2.025,2.1c0,1.305,0.705,2.025,2.04,2.025C376.2,95.03,377.085,94.67,377.91,93.755z"/>
	<path fill="#383838" d="M381.315,94.865c0-3.21,1.305-4.935,3.435-4.935s3.435,1.725,3.435,4.935c0,3.18-1.305,4.995-3.435,4.995
		S381.315,98.045,381.315,94.865z M382.47,94.865c0,2.745,0.945,4.005,2.28,4.005s2.279-1.26,2.279-4.005
		c0-2.76-0.944-3.945-2.279-3.945S382.47,92.105,382.47,94.865z M383.82,94.76c0-0.615,0.435-0.99,0.93-0.99s0.93,0.375,0.93,0.99
		c0,0.63-0.435,1.005-0.93,1.005S383.82,95.39,383.82,94.76z"/>
</g>
<g>
	<path fill="#383838" d="M418.125,98.075c0.479,0.465,1.17,0.765,1.905,0.765c1.515,0,2.85-1.05,2.909-4.11
		c-0.779,0.765-1.739,1.23-2.715,1.23c-1.77,0-2.97-0.99-2.97-2.955c0-1.83,1.485-3.075,3.18-3.075c2.085,0,3.675,1.53,3.675,4.604
		c0,3.84-1.935,5.325-4.005,5.325c-1.17,0-2.04-0.435-2.67-1.005L418.125,98.075z M422.91,93.755c-0.195-1.86-1.051-2.85-2.46-2.85
		c-1.141,0-2.025,0.84-2.025,2.1c0,1.305,0.705,2.025,2.04,2.025C421.2,95.03,422.085,94.67,422.91,93.755z"/>
	<path fill="#383838" d="M426.315,94.865c0-3.21,1.305-4.935,3.435-4.935s3.435,1.725,3.435,4.935c0,3.18-1.305,4.995-3.435,4.995
		S426.315,98.045,426.315,94.865z M427.47,94.865c0,2.745,0.945,4.005,2.28,4.005s2.279-1.26,2.279-4.005
		c0-2.76-0.944-3.945-2.279-3.945S427.47,92.105,427.47,94.865z M428.82,94.76c0-0.615,0.435-0.99,0.93-0.99s0.93,0.375,0.93,0.99
		c0,0.63-0.435,1.005-0.93,1.005S428.82,95.39,428.82,94.76z"/>
</g>
<g>
	<path fill="#383838" d="M509.67,188.66v1.02h-6.45v-1.02h2.715v-7.051h-2.04v-0.795c1.021-0.149,1.755-0.389,2.355-0.705h0.915
		v8.551H509.67z"/>
	<path fill="#383838" d="M511.845,188.945c3.24-2.865,5.025-4.545,5.025-6.135c0-1.096-0.676-1.875-2.085-1.875
		c-0.9,0-1.681,0.51-2.295,1.154l-0.705-0.705c0.854-0.869,1.8-1.455,3.149-1.455c1.92,0,3.12,1.125,3.12,2.82
		c0,1.8-1.8,3.585-4.41,5.955c0.585-0.045,1.215-0.09,1.785-0.09h3.15v1.064h-6.735V188.945z"/>
	<path fill="#383838" d="M526.319,181.175h-5.52v-1.065h6.93v0.766c-2.535,2.895-3.165,5.055-3.3,8.805h-1.29
		C523.305,186.05,524.13,183.859,526.319,181.175z"/>
</g>
<g>
	<path fill="#383838" d="M554.67,188.66v1.02h-6.45v-1.02h2.715v-7.051h-2.04v-0.795c1.021-0.149,1.755-0.389,2.355-0.705h0.915
		v8.551H554.67z"/>
	<path fill="#383838" d="M556.845,188.945c3.24-2.865,5.025-4.545,5.025-6.135c0-1.096-0.676-1.875-2.085-1.875
		c-0.9,0-1.681,0.51-2.295,1.154l-0.705-0.705c0.854-0.869,1.8-1.455,3.149-1.455c1.92,0,3.12,1.125,3.12,2.82
		c0,1.8-1.8,3.585-4.41,5.955c0.585-0.045,1.215-0.09,1.785-0.09h3.15v1.064h-6.735V188.945z"/>
	<path fill="#383838" d="M571.319,181.175h-5.52v-1.065h6.93v0.766c-2.535,2.895-3.165,5.055-3.3,8.805h-1.29
		C568.305,186.05,569.13,183.859,571.319,181.175z"/>
</g>
<g>
	<g>
		<path fill="#B450FF" d="M155.25,172.5c-2.37,0-4.69-0.96-6.36-2.641c-1.68-1.67-2.64-3.989-2.64-6.359s0.96-4.69,2.64-6.36
			c1.67-1.68,3.99-2.64,6.36-2.64c2.37,0,4.69,0.96,6.36,2.64c1.68,1.67,2.64,3.99,2.64,6.36s-0.96,4.689-2.64,6.359
			C159.94,171.54,157.62,172.5,155.25,172.5z"/>
	</g>
	<g>
		<path fill="#FFFFFF" d="M155.25,166.5c-0.79,0-1.56-0.32-2.12-0.88c-0.56-0.561-0.88-1.33-0.88-2.12s0.32-1.56,0.88-2.12
			c1.12-1.12,3.12-1.12,4.24,0c0.56,0.56,0.88,1.33,0.88,2.12s-0.32,1.56-0.88,2.12C156.81,166.18,156.04,166.5,155.25,166.5z"/>
	</g>
</g>
<g>
	<g>
		<path fill="#B450FF" d="M245.25,150c-2.37,0-4.69-0.96-6.36-2.64c-1.68-1.67-2.64-3.99-2.64-6.36c0-2.37,0.96-4.69,2.64-6.36
			c1.67-1.68,3.99-2.64,6.36-2.64c2.37,0,4.69,0.96,6.36,2.64c1.68,1.67,2.64,3.99,2.64,6.36c0,2.37-0.96,4.69-2.64,6.36
			C249.94,149.04,247.62,150,245.25,150z"/>
	</g>
	<g>
		<path fill="#FFFFFF" d="M245.25,144c-0.79,0-1.56-0.32-2.12-0.88c-0.56-0.56-0.88-1.33-0.88-2.12s0.32-1.56,0.88-2.12
			c1.11-1.12,3.12-1.12,4.24,0c0.56,0.56,0.88,1.33,0.88,2.12s-0.32,1.56-0.88,2.12C246.81,143.68,246.04,144,245.25,144z"/>
	</g>
</g>
<g>
	<g>
		<path fill="#B450FF" d="M290.25,150c-2.37,0-4.69-0.96-6.36-2.64c-1.68-1.67-2.64-3.99-2.64-6.36c0-2.37,0.96-4.69,2.64-6.36
			c1.67-1.68,3.99-2.64,6.36-2.64c2.37,0,4.69,0.96,6.36,2.64c1.68,1.67,2.64,3.99,2.64,6.36c0,2.37-0.96,4.69-2.64,6.36
			C294.94,149.04,292.62,150,290.25,150z"/>
	</g>
	<g>
		<path fill="#FFFFFF" d="M290.25,144c-0.79,0-1.56-0.32-2.12-0.88c-0.56-0.56-0.88-1.33-0.88-2.12s0.32-1.56,0.88-2.12
			c1.11-1.11,3.13-1.12,4.24,0c0.56,0.55,0.88,1.33,0.88,2.12s-0.32,1.56-0.88,2.12C291.81,143.68,291.04,144,290.25,144z"/>
	</g>
</g>
<g>
	<g>
		<path fill="#B450FF" d="M380.25,82.5c-2.37,0-4.69-0.96-6.36-2.64c-1.68-1.67-2.64-3.99-2.64-6.36c0-2.37,0.96-4.69,2.64-6.36
			c1.67-1.68,3.99-2.64,6.36-2.64s4.689,0.96,6.359,2.64c1.681,1.67,2.641,3.99,2.641,6.36c0,2.37-0.96,4.69-2.641,6.36
			C384.939,81.54,382.62,82.5,380.25,82.5z"/>
	</g>
	<g>
		<path fill="#FFFFFF" d="M380.25,76.5c-0.79,0-1.561-0.32-2.12-0.88c-0.561-0.56-0.88-1.33-0.88-2.12s0.319-1.56,0.88-2.12
			c1.12-1.12,3.12-1.12,4.24,0c0.56,0.56,0.88,1.33,0.88,2.12s-0.32,1.56-0.88,2.12C381.81,76.18,381.04,76.5,380.25,76.5z"/>
	</g>
</g>
<g>
	<g>
		<path fill="#B450FF" d="M425.25,82.5c-2.37,0-4.69-0.96-6.36-2.64c-1.68-1.67-2.64-3.99-2.64-6.36c0-2.37,0.96-4.69,2.64-6.36
			c1.67-1.68,3.99-2.64,6.36-2.64s4.689,0.96,6.359,2.64c1.681,1.67,2.641,3.99,2.641,6.36c0,2.37-0.96,4.69-2.641,6.36
			C429.939,81.54,427.62,82.5,425.25,82.5z"/>
	</g>
	<g>
		<path fill="#FFFFFF" d="M425.25,76.5c-0.79,0-1.561-0.32-2.12-0.88c-0.561-0.56-0.88-1.33-0.88-2.12s0.319-1.56,0.88-2.12
			c1.12-1.12,3.12-1.12,4.24,0c0.56,0.56,0.88,1.33,0.88,2.12s-0.32,1.56-0.88,2.12C426.81,76.18,426.04,76.5,425.25,76.5z"/>
	</g>
</g>
<g>
	<g>
		<path fill="#B450FF" d="M515.25,172.5c-2.37,0-4.69-0.96-6.36-2.641c-1.68-1.67-2.64-3.989-2.64-6.359s0.96-4.69,2.64-6.36
			c1.67-1.68,3.99-2.64,6.36-2.64s4.689,0.96,6.359,2.64c1.681,1.67,2.641,3.99,2.641,6.36s-0.96,4.689-2.641,6.359
			C519.939,171.54,517.62,172.5,515.25,172.5z"/>
	</g>
	<g>
		<path fill="#FFFFFF" d="M515.25,166.5c-0.79,0-1.561-0.32-2.12-0.88c-0.561-0.561-0.88-1.33-0.88-2.12s0.319-1.56,0.88-2.12
			c1.11-1.12,3.12-1.12,4.24,0c0.56,0.56,0.88,1.33,0.88,2.12s-0.32,1.56-0.88,2.12C516.81,166.18,516.04,166.5,515.25,166.5z"/>
	</g>
</g>
<g>
	<g>
		<path fill="#B450FF" d="M560.25,172.5c-2.37,0-4.69-0.96-6.36-2.641c-1.68-1.67-2.64-3.989-2.64-6.359s0.96-4.69,2.64-6.36
			c1.67-1.68,3.99-2.64,6.36-2.64s4.689,0.96,6.359,2.64c1.681,1.67,2.641,3.99,2.641,6.36s-0.96,4.689-2.641,6.359
			C564.939,171.54,562.62,172.5,560.25,172.5z"/>
	</g>
	<g>
		<path fill="#FFFFFF" d="M560.25,166.5c-0.79,0-1.561-0.32-2.12-0.88c-0.561-0.561-0.88-1.33-0.88-2.12s0.319-1.56,0.88-2.12
			c1.11-1.12,3.12-1.12,4.24,0c0.56,0.56,0.88,1.33,0.88,2.12s-0.32,1.56-0.88,2.12C561.81,166.18,561.04,166.5,560.25,166.5z"/>
	</g>
</g>
<g>
	<path fill="#383838" d="M38.215,131.075h2.22l1.17,3.51c0.24,0.75,0.45,1.515,0.676,2.295h0.06c0.225-0.78,0.42-1.545,0.66-2.295
		l1.17-3.51h2.114l-2.729,7.439H41.02L38.215,131.075z"/>
	<path fill="#383838" d="M52.569,133.73c-0.074-0.675-0.585-1.08-1.59-1.08c-0.72,0-1.425,0.27-2.265,0.69l-0.78-1.44
		c1.021-0.585,2.205-1.005,3.48-1.005c2.085,0,3.359,1.08,3.359,3.36v4.26h-1.8l-0.165-0.84h-0.06c-0.75,0.57-1.68,1.02-2.641,1.02
		c-1.499,0-2.444-0.99-2.444-2.25C47.665,134.78,49.045,133.94,52.569,133.73z M50.814,136.985c0.66,0,1.23-0.3,1.755-0.705v-1.23
		c-2.189,0.12-2.789,0.585-2.789,1.23C49.78,136.76,50.185,136.985,50.814,136.985z"/>
	<path fill="#383838" d="M56.68,128h4.365v7.695c0,0.915,0.585,1.215,1.2,1.215c0.345,0,0.704-0.06,1.17-0.24l0.495,1.62
		c-0.78,0.24-1.306,0.405-2.235,0.405c-1.875,0-2.835-1.2-2.835-3.09v-5.865h-2.16V128z"/>
	<path fill="#383838" d="M72.625,138.515h-1.8l-0.165-1.065H70.6c-0.66,0.75-1.439,1.245-2.505,1.245
		c-1.694,0-2.415-1.155-2.415-3.03v-4.589h2.205v4.305c0,0.99,0.255,1.44,1.08,1.44c0.555,0,0.945-0.195,1.455-0.855v-4.89h2.205
		V138.515z"/>
	<path fill="#383838" d="M78.444,130.895c2.295,0,3.495,1.545,3.495,3.57c0,0.39-0.06,0.75-0.09,0.93h-5.01
		c0.21,1.125,1.065,1.62,2.16,1.62c0.675,0,1.26-0.18,1.92-0.51l0.72,1.32c-0.84,0.54-1.95,0.87-2.939,0.87
		c-2.311,0-4.125-1.44-4.125-3.9C74.575,132.365,76.465,130.895,78.444,130.895z M79.944,134.03c0-0.855-0.449-1.455-1.454-1.455
		c-0.795,0-1.5,0.465-1.681,1.455H79.944z"/>
	<path fill="#383838" d="M84.535,136.175c0.854,0.54,1.71,0.885,2.699,0.885c1.006,0,1.426-0.24,1.426-0.63
		c0-0.45-0.795-0.705-1.995-1.035c-1.305-0.36-2.655-0.99-2.655-2.175c0-1.38,1.305-2.325,3.435-2.325c1.32,0,2.431,0.525,3.21,1.02
		l-0.989,1.32c-0.675-0.405-1.396-0.705-2.175-0.705c-0.931,0-1.29,0.21-1.29,0.585c0,0.45,0.854,0.675,1.904,0.945
		c1.471,0.39,2.745,0.945,2.745,2.235c0,1.35-1.274,2.4-3.66,2.4c-1.335,0-2.699-0.51-3.645-1.14L84.535,136.175z"/>
</g>
<g>
	<path fill="#383838" d="M38.89,263h2.205v6.029l0.045-0.015l2.745-2.939H46.3l-2.82,3.06l3.045,4.38H44.14l-1.935-2.925l-1.11,1.08
		v1.845H38.89V263z"/>
	<path fill="#383838" d="M51.444,265.895c2.295,0,3.495,1.545,3.495,3.57c0,0.391-0.06,0.75-0.09,0.93h-5.01
		c0.21,1.125,1.065,1.62,2.16,1.62c0.675,0,1.26-0.18,1.92-0.51l0.72,1.319c-0.84,0.541-1.95,0.871-2.939,0.871
		c-2.311,0-4.125-1.44-4.125-3.9C47.575,267.365,49.465,265.895,51.444,265.895z M52.944,269.029c0-0.854-0.449-1.455-1.454-1.455
		c-0.795,0-1.5,0.466-1.681,1.455H52.944z"/>
	<path fill="#383838" d="M57.729,274.685c0.855,0,1.32-0.39,1.561-0.976l0.149-0.389l-3.225-7.245h2.19l1.244,3.194
		c0.271,0.705,0.511,1.455,0.75,2.235h0.061c0.195-0.735,0.45-1.5,0.675-2.235l1.095-3.194h2.085l-2.939,7.515
		c-0.72,1.875-1.605,2.834-3.48,2.834c-0.435,0-0.824-0.059-1.14-0.149l0.39-1.68C57.34,274.654,57.535,274.685,57.729,274.685z"/>
	<path fill="#383838" d="M68.14,265.595h-2.925v-1.86h8.069v1.86h-2.925v7.92h-2.22V265.595z"/>
	<path fill="#383838" d="M74.935,266.075h5.19v7.439H77.92V267.8h-2.985V266.075z M77.455,263.645c0-0.81,0.615-1.379,1.47-1.379
		s1.47,0.569,1.47,1.379c0,0.811-0.615,1.336-1.47,1.336S77.455,264.455,77.455,263.645z"/>
	<path fill="#383838" d="M83.29,266.075h1.649l0.165,0.93h0.061c0.285-0.614,0.734-1.11,1.59-1.11c0.66,0,1.125,0.42,1.305,1.215
		c0.271-0.674,0.795-1.215,1.635-1.215c1.035,0,1.65,0.916,1.65,2.4v5.22h-2.07v-5.055c0-0.465-0.12-0.69-0.42-0.69
		c-0.285,0-0.495,0.24-0.689,0.721v5.024H86.47v-5.055c0-0.465-0.149-0.69-0.435-0.69s-0.465,0.24-0.675,0.721v5.024h-2.07V266.075z
		"/>
	<path fill="#383838" d="M96.444,265.895c2.295,0,3.495,1.545,3.495,3.57c0,0.391-0.06,0.75-0.09,0.93h-5.01
		c0.21,1.125,1.065,1.62,2.16,1.62c0.675,0,1.26-0.18,1.92-0.51l0.72,1.319c-0.84,0.541-1.95,0.871-2.939,0.871
		c-2.311,0-4.125-1.44-4.125-3.9C92.575,267.365,94.465,265.895,96.444,265.895z M97.944,269.029c0-0.854-0.449-1.455-1.454-1.455
		c-0.795,0-1.5,0.466-1.681,1.455H97.944z"/>
	<path fill="#383838" d="M102.535,271.175c0.854,0.54,1.71,0.885,2.699,0.885c1.006,0,1.426-0.239,1.426-0.63
		c0-0.449-0.795-0.705-1.995-1.035c-1.305-0.359-2.655-0.99-2.655-2.175c0-1.38,1.305-2.325,3.435-2.325
		c1.32,0,2.431,0.525,3.21,1.021l-0.989,1.319c-0.675-0.404-1.396-0.705-2.175-0.705c-0.931,0-1.29,0.211-1.29,0.586
		c0,0.449,0.854,0.675,1.904,0.945c1.471,0.389,2.745,0.944,2.745,2.234c0,1.35-1.274,2.4-3.66,2.4
		c-1.335,0-2.699-0.511-3.645-1.141L102.535,271.175z"/>
</g>
</svg>
