<?xml version="1.0" encoding="utf-8"?>
<!-- Generator: Adobe Illustrator 17.0.0, SVG Export Plug-In . SVG Version: 6.00 Build 0)  -->
<!DOCTYPE svg PUBLIC "-//W3C//DTD SVG 1.1//EN" "http://www.w3.org/Graphics/SVG/1.1/DTD/svg11.dtd">
<svg version="1.1" id="Layer_1" xmlns="http://www.w3.org/2000/svg" xmlns:xlink="http://www.w3.org/1999/xlink" x="0px" y="0px"
	 width="178px" height="178px" viewBox="402 0 178 178" enable-background="new 402 0 178 178" xml:space="preserve">
<g>
	<path fill="#4D9EDF" d="M491.356,166.977c-42.906,0-77.81-34.904-77.81-77.81c0-42.904,34.903-77.809,77.81-77.809
		c42.904,0,77.809,34.905,77.809,77.809C569.165,132.073,534.261,166.977,491.356,166.977z"/>
	<circle fill="#FFFFFF" cx="418.685" cy="86.792" r="1.128"/>
	<circle fill="#4D9EDF" cx="491.356" cy="89.167" r="58.277"/>
	<path fill="#2F3030" d="M491.357,13.808c-41.626,0-75.354,33.742-75.354,75.353c0,30.151,17.692,56.162,43.249,68.201
		c9.747,4.6,20.623,7.166,32.104,7.166c11.829,0,23.039-2.734,33.002-7.605c25.074-12.236,42.351-37.979,42.351-67.762
		C566.71,47.55,532.968,13.808,491.357,13.808z M515.241,138.197c-7.212,3.528-15.322,5.504-23.884,5.504
		c-8.304,0-16.179-1.853-23.229-5.187c-18.498-8.713-31.303-27.535-31.303-49.353c0-30.116,24.41-54.527,54.532-54.527
		c30.115,0,54.526,24.411,54.526,54.527C545.884,110.713,533.382,129.347,515.241,138.197z"/>
	<path fill="#2F3030" d="M491.757,168.342c-11.796,0-23.144-2.533-33.729-7.531c-27.604-13.002-45.439-41.127-45.439-71.65
		c0-43.654,35.515-79.167,79.168-79.167c43.651,0,79.166,35.513,79.166,79.167c0,15.12-4.278,29.819-12.369,42.508
		c-7.876,12.352-18.984,22.271-32.123,28.682C515.587,165.653,503.922,168.342,491.757,168.342z M491.757,12.074
		c-42.506,0-77.087,34.581-77.087,77.086c0,29.723,17.367,57.108,44.246,69.769c10.306,4.866,21.354,7.332,32.841,7.332
		c11.844,0,23.203-2.617,33.76-7.779c26.725-13.042,43.325-39.604,43.325-69.321C568.842,46.655,534.262,12.074,491.757,12.074z"/>
	<path fill="#4D9EDF" d="M491.356,40.368c26.908,0,48.8,21.892,48.8,48.8c0,26.909-21.892,48.8-48.8,48.8
		s-48.801-21.891-48.801-48.8C442.556,62.259,464.448,40.368,491.356,40.368 M491.356,34.819c-30.018,0-54.348,24.333-54.348,54.348
		s24.33,54.349,54.348,54.349c30.015,0,54.348-24.334,54.348-54.349S521.371,34.819,491.356,34.819L491.356,34.819z"/>
	<g>
		
			<rect x="491.245" y="29.732" transform="matrix(-0.9691 -0.2465 0.2465 -0.9691 946.1736 295.6396)" fill="#2F3030" width="0.693" height="117.728"/>
		
			<rect x="491.001" y="30.293" transform="matrix(-0.987 -0.1607 0.1607 -0.987 961.9671 256.2947)" fill="#2F3030" width="0.693" height="117.909"/>
		
			<rect x="432.411" y="88.916" transform="matrix(0.0745 -0.9972 0.9972 0.0745 365.7437 572.6124)" fill="#2F3030" width="117.909" height="0.693"/>
		
			<rect x="432.412" y="88.915" transform="matrix(-0.0127 -0.9999 0.9999 -0.0127 408.3517 581.7204)" fill="#2F3030" width="117.907" height="0.693"/>
		
			<rect x="432.372" y="88.911" transform="matrix(-0.0997 -0.995 0.995 -0.0997 451.4987 587.0341)" fill="#2F3030" width="117.908" height="0.693"/>
		
			<rect x="432.398" y="88.906" transform="matrix(-0.1861 -0.9825 0.9825 -0.1861 495.1017 588.6301)" fill="#2F3030" width="117.907" height="0.693"/>
		
			<rect x="432.373" y="88.932" transform="matrix(-0.271 -0.9626 0.9626 -0.271 538.5405 586.417)" fill="#2F3030" width="117.913" height="0.693"/>
		
			<rect x="432.401" y="88.926" transform="matrix(-0.3539 -0.9353 0.9353 -0.3539 581.7499 580.4243)" fill="#2F3030" width="117.912" height="0.693"/>
		
			<rect x="432.366" y="88.92" transform="matrix(-0.434 -0.9009 0.9009 -0.434 624.1344 570.6448)" fill="#2F3030" width="117.909" height="0.693"/>
		
			<rect x="432.388" y="88.903" transform="matrix(-0.5109 -0.8596 0.8596 -0.5109 665.655 557.2186)" fill="#2F3030" width="117.906" height="0.692"/>
		
			<rect x="432.406" y="88.902" transform="matrix(-0.5839 -0.8118 0.8118 -0.5839 705.8184 540.2551)" fill="#2F3030" width="117.908" height="0.692"/>
		
			<rect x="432.371" y="88.939" transform="matrix(-0.6524 -0.7579 0.7579 -0.6524 744.1948 519.9052)" fill="#2F3030" width="117.912" height="0.694"/>
		
			<rect x="432.39" y="88.918" transform="matrix(-0.716 -0.6981 0.6981 -0.716 780.8337 496.1849)" fill="#2F3030" width="117.91" height="0.692"/>
		
			<rect x="432.379" y="88.902" transform="matrix(-0.7741 -0.633 0.633 -0.7741 815.192 469.3642)" fill="#2F3030" width="117.906" height="0.693"/>
		
			<rect x="432.365" y="88.931" transform="matrix(-0.8263 -0.5632 0.5632 -0.8263 847.02 439.7636)" fill="#2F3030" width="117.907" height="0.693"/>
		
			<rect x="432.397" y="88.919" transform="matrix(-0.8723 -0.489 0.489 -0.8723 876.3016 407.3994)" fill="#2F3030" width="117.911" height="0.694"/>
		
			<rect x="432.396" y="88.911" transform="matrix(-0.9116 -0.4111 0.4111 -0.9116 902.5707 372.6184)" fill="#2F3030" width="117.911" height="0.694"/>
		
			<rect x="432.37" y="88.911" transform="matrix(-0.9439 -0.3301 0.3301 -0.9439 925.6365 335.7033)" fill="#2F3030" width="117.905" height="0.693"/>
		
			<rect x="432.573" y="88.891" transform="matrix(-0.9691 -0.2466 0.2466 -0.9691 945.6941 296.9115)" fill="#2F3030" width="117.733" height="0.694"/>
		
			<rect x="432.376" y="88.923" transform="matrix(-0.9869 -0.1612 0.1612 -0.9869 961.842 256.5765)" fill="#2F3030" width="117.907" height="0.694"/>
		
			<rect x="491.022" y="30.311" transform="matrix(0.0732 -0.9973 0.9973 0.0732 366.3738 572.7806)" fill="#2F3030" width="0.693" height="117.909"/>
		
			<rect x="491.016" y="30.301" transform="matrix(-0.0113 -0.9999 0.9999 -0.0113 407.6678 581.5924)" fill="#2F3030" width="0.693" height="117.904"/>
		
			<rect x="490.986" y="30.297" transform="matrix(-0.0985 -0.9951 0.9951 -0.0985 450.9164 586.9829)" fill="#2F3030" width="0.694" height="117.904"/>
		
			<rect x="491.011" y="30.299" transform="matrix(-0.1861 -0.9825 0.9825 -0.1861 495.1097 588.635)" fill="#2F3030" width="0.693" height="117.905"/>
		
			<rect x="490.982" y="30.316" transform="matrix(-0.2706 -0.9627 0.9627 -0.2706 538.3401 586.4266)" fill="#2F3030" width="0.693" height="117.911"/>
		
			<rect x="491.012" y="30.33" transform="matrix(-0.3524 -0.9359 0.9359 -0.3524 580.9444 580.592)" fill="#2F3030" width="0.693" height="117.917"/>
		
			<rect x="490.97" y="30.318" transform="matrix(-0.4336 -0.9011 0.9011 -0.4336 623.9102 570.7076)" fill="#2F3030" width="0.694" height="117.907"/>
		
			<rect x="490.986" y="30.297" transform="matrix(-0.5097 -0.8603 0.8603 -0.5097 664.9926 557.4522)" fill="#2F3030" width="0.694" height="117.903"/>
		
			<rect x="490.995" y="30.297" transform="matrix(-0.5843 -0.8115 0.8115 -0.5843 706.0125 540.1354)" fill="#2F3030" width="0.692" height="117.904"/>
		
			<rect x="490.982" y="30.328" transform="matrix(-0.6517 -0.7585 0.7585 -0.6517 743.8018 520.1369)" fill="#2F3030" width="0.695" height="117.912"/>
		
			<rect x="490.991" y="30.31" transform="matrix(-0.7155 -0.6986 0.6986 -0.7155 780.5327 496.3847)" fill="#2F3030" width="0.693" height="117.908"/>
		
			<rect x="491.001" y="30.301" transform="matrix(-0.7734 -0.6339 0.6339 -0.7734 814.7809 469.7521)" fill="#2F3030" width="0.693" height="117.907"/>
		
			<rect x="491.003" y="30.309" transform="matrix(-0.8266 -0.5628 0.5628 -0.8266 847.258 439.5803)" fill="#2F3030" width="0.692" height="117.911"/>
		
			<rect x="490.977" y="30.33" transform="matrix(-0.872 -0.4895 0.4895 -0.872 876.0542 407.645)" fill="#2F3030" width="0.694" height="117.909"/>
		
			<rect x="491.004" y="30.333" transform="matrix(-0.9115 -0.4114 0.4114 -0.9115 902.4648 372.8083)" fill="#2F3030" width="0.693" height="117.914"/>
		
			<rect x="491.007" y="30.304" transform="matrix(-0.9441 -0.3297 0.3297 -0.9441 925.8051 335.5256)" fill="#2F3030" width="0.693" height="117.912"/>
	</g>
	<path fill="#FFFFFF" d="M459.788,89.175c0.004-0.006,0.006-0.012,0.008-0.017C459.794,89.172,459.792,89.18,459.788,89.175z"/>
	<g>
		
			<rect x="491.203" y="29.705" transform="matrix(-0.993 -0.1183 0.1183 -0.993 969.169 234.6713)" fill="#2F3030" width="0.693" height="117.735"/>
		
			<rect x="490.998" y="30.327" transform="matrix(-0.9995 -0.031 0.031 -0.9995 979.6869 193.75)" fill="#2F3030" width="0.694" height="117.908"/>
		
			<rect x="432.385" y="88.939" transform="matrix(-0.0554 -0.9985 0.9985 -0.0554 429.4141 584.8199)" fill="#2F3030" width="117.915" height="0.693"/>
		
			<rect x="432.388" y="88.902" transform="matrix(-0.1422 -0.9898 0.9898 -0.1422 472.8697 588.2877)" fill="#2F3030" width="117.905" height="0.694"/>
		
			<rect x="432.413" y="88.94" transform="matrix(-0.228 -0.9737 0.9737 -0.228 516.4636 588.0729)" fill="#2F3030" width="117.914" height="0.694"/>
		
			<rect x="432.42" y="88.927" transform="matrix(-0.312 -0.9501 0.9501 -0.312 559.8655 583.9759)" fill="#2F3030" width="117.912" height="0.694"/>
		
			<rect x="432.409" y="88.928" transform="matrix(-0.3936 -0.9193 0.9193 -0.3936 602.6949 576.1167)" fill="#2F3030" width="117.912" height="0.693"/>
		
			<rect x="432.407" y="88.924" transform="matrix(-0.4722 -0.8815 0.8815 -0.4722 644.6909 564.5569)" fill="#2F3030" width="117.911" height="0.693"/>
		
			<rect x="432.384" y="88.928" transform="matrix(-0.5472 -0.837 0.837 -0.5472 685.4788 549.3771)" fill="#2F3030" width="117.911" height="0.693"/>
		
			<rect x="432.406" y="88.919" transform="matrix(-0.6181 -0.7861 0.7861 -0.6181 724.8994 530.6987)" fill="#2F3030" width="117.91" height="0.693"/>
		
			<rect x="432.429" y="88.905" transform="matrix(-0.6843 -0.7292 0.7292 -0.6843 762.5565 508.6429)" fill="#2F3030" width="117.911" height="0.693"/>
		
			<rect x="432.401" y="88.905" transform="matrix(-0.7452 -0.6668 0.6668 -0.7452 798.0078 483.4086)" fill="#2F3030" width="117.908" height="0.694"/>
		
			<rect x="432.404" y="88.907" transform="matrix(-0.8005 -0.5993 0.5993 -0.8005 831.2072 455.1803)" fill="#2F3030" width="117.909" height="0.694"/>
		
			<rect x="432.399" y="88.937" transform="matrix(-0.8497 -0.5273 0.5273 -0.8497 861.774 424.2333)" fill="#2F3030" width="117.913" height="0.693"/>
		
			<rect x="432.399" y="88.908" transform="matrix(-0.8924 -0.4512 0.4512 -0.8924 889.5736 390.6093)" fill="#2F3030" width="117.908" height="0.693"/>
		
			<rect x="432.385" y="88.908" transform="matrix(-0.9283 -0.3717 0.3717 -0.9283 914.288 354.7543)" fill="#2F3030" width="117.903" height="0.695"/>
		
			<rect x="432.397" y="88.922" transform="matrix(-0.9572 -0.2894 0.2894 -0.9572 935.8429 316.9156)" fill="#2F3030" width="117.909" height="0.694"/>
		
			<rect x="432.404" y="88.933" transform="matrix(-0.9788 -0.2049 0.2049 -0.9788 954.0016 277.344)" fill="#2F3030" width="117.911" height="0.694"/>
		
			<rect x="432.585" y="88.871" transform="matrix(-0.9929 -0.1188 0.1188 -0.9929 968.8213 236.1891)" fill="#2F3030" width="117.732" height="0.693"/>
		
			<rect x="432.407" y="88.911" transform="matrix(-0.9995 -0.0318 0.0318 -0.9995 979.6361 194.0968)" fill="#2F3030" width="117.91" height="0.694"/>
		
			<rect x="491.009" y="30.309" transform="matrix(-0.0564 -0.9984 0.9984 -0.0564 429.9463 584.8711)" fill="#2F3030" width="0.693" height="117.91"/>
		
			<rect x="490.999" y="30.309" transform="matrix(-0.141 -0.99 0.99 -0.141 472.2541 588.2853)" fill="#2F3030" width="0.692" height="117.908"/>
		
			<rect x="491.007" y="30.321" transform="matrix(-0.2266 -0.974 0.974 -0.2266 515.7404 588.0768)" fill="#2F3030" width="0.694" height="117.908"/>
		
			<rect x="491.027" y="30.306" transform="matrix(-0.3116 -0.9502 0.9502 -0.3116 559.671 583.9824)" fill="#2F3030" width="0.693" height="117.909"/>
		
			<rect x="491.006" y="30.332" transform="matrix(-0.3946 -0.9189 0.9189 -0.3946 603.187 576.0073)" fill="#2F3030" width="0.693" height="117.916"/>
		
			<rect x="490.994" y="30.316" transform="matrix(-0.4718 -0.8817 0.8817 -0.4718 644.4467 564.6055)" fill="#2F3030" width="0.693" height="117.908"/>
		
			<rect x="491.015" y="30.292" transform="matrix(-0.5482 -0.8363 0.8363 -0.5482 686.0993 549.1125)" fill="#2F3030" width="0.695" height="117.904"/>
		
			<rect x="491.003" y="30.3" transform="matrix(-0.6183 -0.7859 0.7859 -0.6183 725.0149 530.6044)" fill="#2F3030" width="0.693" height="117.905"/>
		
			<rect x="490.999" y="30.304" transform="matrix(-0.6834 -0.73 0.73 -0.6834 761.983 508.9487)" fill="#2F3030" width="0.692" height="117.904"/>
		
			<rect x="491.018" y="30.3" transform="matrix(-0.7454 -0.6666 0.6666 -0.7454 798.1348 483.3327)" fill="#2F3030" width="0.694" height="117.909"/>
		
			<rect x="491.009" y="30.315" transform="matrix(-0.8 -0.6 0.6 -0.8 830.878 455.4984)" fill="#2F3030" width="0.693" height="117.909"/>
		
			<rect x="491" y="30.321" transform="matrix(-0.8498 -0.5271 0.5271 -0.8498 861.8372 424.132)" fill="#2F3030" width="0.693" height="117.909"/>
		
			<rect x="491.034" y="30.304" transform="matrix(-0.8922 -0.4517 0.4517 -0.8922 889.4586 390.8473)" fill="#2F3030" width="0.692" height="117.913"/>
		
			<rect x="491.015" y="30.326" transform="matrix(-0.9283 -0.3719 0.3719 -0.9283 914.2773 354.8922)" fill="#2F3030" width="0.693" height="117.912"/>
		
			<rect x="490.988" y="30.3" transform="matrix(-0.9571 -0.2899 0.2899 -0.9571 935.6934 317.1136)" fill="#2F3030" width="0.694" height="117.902"/>
		
			<rect x="491.01" y="30.314" transform="matrix(-0.9787 -0.2053 0.2053 -0.9787 953.9204 277.5115)" fill="#2F3030" width="0.694" height="117.909"/>
	</g>
	<circle fill="#4D9EDF" cx="491.356" cy="89.167" r="35.855"/>
	<path fill="#4D9EDF" d="M491.356,145.48c-31.052,0-56.312-25.261-56.312-56.312s25.261-56.312,56.312-56.312
		c31.05,0,56.312,25.261,56.312,56.312C547.668,120.219,522.406,145.48,491.356,145.48z M491.356,35.629
		c-29.521,0-53.539,24.018-53.539,53.539s24.018,53.538,53.539,53.538c29.521,0,53.539-24.017,53.539-53.538
		C544.896,59.646,520.877,35.629,491.356,35.629z"/>
	<g>
		<g>
			<path fill="#FFFFFF" d="M464.622,89.293l1.898-1.701c0.314-0.291,0.448-0.48,0.448-0.701c0-0.22-0.149-0.409-0.456-0.409
				c-0.3,0-0.583,0.197-1.008,0.598l-0.945-1.102c0.638-0.654,1.244-0.992,2.157-0.992c1.134,0,1.929,0.701,1.929,1.685v0.023
				c0,0.708-0.338,1.165-0.968,1.708l-0.921,0.788h1.912v1.41h-4.047L464.622,89.293L464.622,89.293z"/>
			<path fill="#FFFFFF" d="M469.899,87.923v-0.142c0-1.59,0.882-2.811,2.361-2.811c1.473,0,2.339,1.205,2.339,2.795v0.142
				c0,1.59-0.882,2.811-2.354,2.811C470.766,90.718,469.899,89.514,469.899,87.923z M472.915,87.923v-0.15
				c0-0.85-0.26-1.307-0.67-1.307c-0.417,0-0.66,0.449-0.66,1.299v0.149c0,0.851,0.26,1.307,0.668,1.307
				C472.671,89.222,472.915,88.773,472.915,87.923z"/>
		</g>
	</g>
	<g>
		<g>
			<path fill="#FFFFFF" d="M510.442,86.624l-0.787,0.189l-0.221-1.354l1.425-0.401h1.268V90.6h-1.685L510.442,86.624L510.442,86.624
				z"/>
			<path fill="#FFFFFF" d="M513.317,89.97l0.834-1.189c0.284,0.252,0.686,0.473,1.126,0.473c0.378,0,0.599-0.189,0.599-0.457v-0.016
				c0-0.299-0.283-0.488-0.882-0.488h-0.48l-0.165-0.85l1.103-0.96h-1.771v-1.394h3.739v1.26l-1.157,0.977
				c0.74,0.212,1.26,0.661,1.26,1.535v0.016c0,1.173-0.913,1.834-2.094,1.834C514.546,90.71,513.845,90.443,513.317,89.97z"/>
		</g>
	</g>
	<path fill="#1C1C1C" d="M502.964,62.667h-23.577l0.261,48h0.031c0.317,2,5.312,3.617,11.444,3.617
		c6.255,0,11.331-1.617,11.463-3.617h0.021L502.964,62.667z"/>
	<path fill="#4D9EDF" d="M519.392,84.399c0,11.176-6.486,20.842-15.898,25.433c-0.307,0.15-0.576,0.167-0.891,0.303v-9.181
		l-0.047,0.117c0-0.008,0.003-0.016,0.003-0.022c0-1.103-1.782-2.074-4.536-2.692c-0.026-0.005-0.053-0.012-0.075-0.02
		c-1.408-0.34-2.618-0.514-2.618-0.514s6.799-0.91,6.799-3.472c0-2.286-7.426-2.866-7.426-2.866s7.332-1.217,7.332-3.332
		c0-1.674-7.808-2.916-7.808-2.916s7.619-1.062,7.619-3.352c0-1.956-7.067-2.987-7.067-2.987s6.867-0.718,6.867-3.208
		c0-1.914-7.236-3.134-7.236-3.134s7.165-0.881,7.165-3.067c0-2.845-9.467-3.506-9.467-3.506l-1.484,1.828c0,0,6.49,0.59,6.49,1.605
		c0,1.02-15.825,2.043-15.934,2.051c-0.249,0.141-0.616,1.799-0.185,2.111c0.301,0.225,15.905,0.799,15.905,2.105
		c0,1.303-14.312,2.201-15.905,2.296c-0.759,0.427-0.99,1.519-0.182,2.111s16.215,0.649,16.215,1.931
		c0,1.272-15.301,2.149-15.916,2.187c-0.764,0.423-0.994,1.515-0.186,2.111c0.306,0.224,15.974,0.737,15.974,2.037
		c0,1.307-14.852,2.349-15.648,2.398c-0.768,0.431-0.995,1.522-0.187,2.111c0.304,0.227,15.835,0.249,15.835,1.549
		c0,1.307-14.38,2.466-15.565,2.531c-0.725,0.411-0.968,1.835-0.291,2.485c-0.888,0.477-1.397,1.031-1.397,1.616v9.217
		c-0.199-0.087-0.394-0.179-0.591-0.269c-9.594-4.521-16.238-14.285-16.238-25.598c0-15.624,12.662-28.29,28.285-28.29
		C506.725,56.109,519.392,68.775,519.392,84.399z"/>
	<g>
		<path fill="#2F3030" d="M461.569,91.502l2.673-2.396c0.444-0.41,0.632-0.676,0.632-0.987s-0.21-0.577-0.643-0.577
			c-0.422,0-0.82,0.277-1.42,0.843l-1.332-1.553c0.899-0.921,1.754-1.397,3.04-1.397c1.598,0,2.718,0.987,2.718,2.374v0.034
			c0,0.998-0.477,1.642-1.364,2.407l-1.298,1.109h2.695v1.986h-5.701L461.569,91.502L461.569,91.502z"/>
		<path fill="#2F3030" d="M468.88,89.572v-0.2c0-2.241,1.242-3.96,3.328-3.96c2.074,0,3.295,1.697,3.295,3.938v0.2
			c0,2.241-1.243,3.96-3.317,3.96C470.101,93.51,468.88,91.812,468.88,89.572z M473.128,89.572v-0.211
			c0-1.198-0.365-1.841-0.942-1.841c-0.588,0-0.933,0.632-0.933,1.83v0.211c0,1.198,0.367,1.841,0.943,1.841
			C472.784,91.402,473.128,90.77,473.128,89.572z"/>
	</g>
	<g>
		<path fill="#2F3030" d="M509.033,87.741l-1.109,0.266l-0.311-1.908l2.008-0.566h1.786v7.81h-2.374V87.741z"/>
		<path fill="#2F3030" d="M512.96,92.456l1.176-1.675c0.399,0.355,0.966,0.666,1.587,0.666c0.532,0,0.843-0.266,0.843-0.644v-0.022
			c0-0.421-0.399-0.688-1.242-0.688h-0.677l-0.233-1.198l1.554-1.354h-2.496v-1.963h5.27v1.775l-1.631,1.375
			c1.042,0.299,1.774,0.932,1.774,2.163v0.022c0,1.653-1.287,2.584-2.95,2.584C514.69,93.499,513.703,93.122,512.96,92.456z"/>
	</g>
	<g>
		<path fill="#4D9EDF" d="M478.657,149.6l2.299,0.394c1.518,0.26,2.375,1.221,2.127,2.664l-0.006,0.037
			c-0.265,1.545-1.512,2.087-2.922,1.865l-0.635-0.109l-0.32,1.866l-1.645-0.282L478.657,149.6z M480.331,153.198
			c0.58,0.1,0.987-0.181,1.08-0.723l0.006-0.028c0.1-0.588-0.189-0.95-0.786-1.052l-0.569-0.098l-0.309,1.802L480.331,153.198z"/>
		<path fill="#4D9EDF" d="M484.871,150.574l4.483,0.312l-0.103,1.469l-2.827-0.197l-0.074,1.07l2.548,0.178l-0.097,1.385
			l-2.548-0.177l-0.078,1.116l2.864,0.2l-0.102,1.469l-4.52-0.315L484.871,150.574z"/>
		<path fill="#4D9EDF" d="M490.86,154.286l-0.005-0.14c-0.075-1.946,1.149-3.363,2.899-3.43c1.76-0.067,3.068,1.234,3.144,3.19
			l0.005,0.14c0.075,1.946-1.148,3.363-2.899,3.43C492.244,157.543,490.937,156.241,490.86,154.286z M495.19,154.102l-0.004-0.103
			c-0.043-1.127-0.609-1.795-1.383-1.766s-1.277,0.73-1.234,1.856l0.004,0.103c0.043,1.126,0.609,1.795,1.383,1.766
			C494.737,155.928,495.233,155.228,495.19,154.102z"/>
		<path fill="#4D9EDF" d="M498.392,150.53l2.303-0.345c1.521-0.228,2.635,0.416,2.852,1.862l0.006,0.037
			c0.232,1.548-0.781,2.454-2.189,2.683l-0.635,0.096l0.279,1.87l-1.648,0.248L498.392,150.53z M501.104,153.421
			c0.58-0.087,0.881-0.48,0.799-1.024l-0.005-0.028c-0.089-0.589-0.475-0.843-1.073-0.752l-0.572,0.086l0.271,1.805L501.104,153.421
			z"/>
		<path fill="#4D9EDF" d="M504.606,149.491l1.629-0.408l1.219,4.865l2.486-0.624l0.367,1.465l-4.115,1.031L504.606,149.491z"/>
		<path fill="#4D9EDF" d="M510.071,148.052l4.227-1.503l0.493,1.386l-2.667,0.948l0.359,1.009l2.403-0.854l0.464,1.307l-2.403,0.854
			l0.375,1.053l2.701-0.96l0.493,1.386l-4.264,1.516L510.071,148.052z"/>
		<path fill="#4D9EDF" d="M516.749,148.289c0.531-0.339,0.666-0.746,0.471-1.159l-0.654,0.292l-0.699-1.564l1.573-0.702l0.573,1.284
			c0.514,1.147,0.082,1.871-0.887,2.375L516.749,148.289z"/>
		<path fill="#4D9EDF" d="M521.306,149.618l0.201-1.501c0.678,0.131,1.352,0.104,1.909-0.2c0.394-0.214,0.504-0.497,0.37-0.743
			l-0.004-0.008c-0.125-0.229-0.373-0.275-1.174-0.147c-1.281,0.22-2.257,0.241-2.822-0.799l-0.014-0.025
			c-0.566-1.04-0.168-2.201,1.085-2.883c0.77-0.419,1.565-0.576,2.426-0.418l-0.147,1.503c-0.559-0.089-1.153-0.052-1.621,0.202
			c-0.335,0.182-0.435,0.449-0.318,0.662l0.004,0.008c0.139,0.254,0.39,0.287,1.266,0.161c1.281-0.241,2.201-0.169,2.732,0.806
			l0.008,0.016c0.606,1.114,0.121,2.27-1.107,2.938C523.247,149.655,522.294,149.834,521.306,149.618z"/>
		<path fill="#4D9EDF" d="M526.394,140.113l1.453-1.105l3.416,2.504l-1.511-3.955l1.423-1.083l2.224,6.55L532.116,144
			L526.394,140.113z"/>
		<path fill="#4D9EDF" d="M534.123,138.324l-0.097-0.101c-1.346-1.409-1.369-3.283-0.102-4.494c1.275-1.218,3.119-1.11,4.473,0.306
			l0.096,0.102c1.346,1.409,1.369,3.283,0.102,4.494C537.319,139.849,535.476,139.74,534.123,138.324z M537.246,135.315
			l-0.071-0.074c-0.779-0.816-1.646-0.941-2.207-0.407c-0.559,0.535-0.474,1.395,0.307,2.21l0.07,0.074
			c0.779,0.816,1.647,0.942,2.207,0.407C538.118,136.984,538.026,136.131,537.246,135.315z"/>
		<path fill="#4D9EDF" d="M537.292,130.463l1.105-1.261l4.902,4.298l-1.105,1.261L537.292,130.463z"/>
		<path fill="#4D9EDF" d="M542.195,129.902l-0.091-0.067c-1.617-1.197-1.891-3.035-0.87-4.413c0.61-0.824,1.347-1.147,2.166-1.202
			l0.276,1.55c-0.436,0.025-0.871,0.144-1.176,0.556c-0.455,0.614-0.246,1.476,0.646,2.135l0.029,0.022
			c0.937,0.693,1.797,0.611,2.246,0.005c0.333-0.45,0.293-0.896,0.194-1.341l1.498-0.21c0.209,0.814,0.151,1.676-0.498,2.552
			C545.624,130.83,543.827,131.112,542.195,129.902z"/>
		<path fill="#4D9EDF" d="M543.422,122.493l2.294-3.864l1.266,0.751l-1.445,2.438l0.922,0.547l1.304-2.197l1.194,0.709l-1.303,2.196
			l0.961,0.571l1.465-2.469l1.268,0.752l-2.312,3.896L543.422,122.493z"/>
		<path fill="#4D9EDF" d="M547.664,115.009l0.622-1.656l3.853,0.475l-3.19-2.286l0.508-1.351l3.909,0.376l-3.209-2.183l0.61-1.622
			l5.498,4.01l-0.542,1.438l-3.744-0.284l3.003,2.254l-0.541,1.438L547.664,115.009z"/>
		<path fill="#4D9EDF" d="M550.983,105.397l0.418-1.626l6.321,1.624l-0.417,1.625L550.983,105.397z"/>
		<path fill="#4D9EDF" d="M551.88,101.92l0.256-1.554l3.588-1.61l-3.235-0.532l0.267-1.626l6.436,1.057l-0.242,1.471l-3.738,1.67
			l3.373,0.554l-0.268,1.627L551.88,101.92z"/>
		<path fill="#4D9EDF" d="M552.95,94.78l0.074-1.573l3.381-2.015l-3.277-0.155l0.078-1.648l6.518,0.31l-0.07,1.49l-3.525,2.091
			l3.418,0.163l-0.078,1.648L552.95,94.78z"/>
		<path fill="#4D9EDF" d="M553.17,87.54l-0.271-4.483l1.469-0.088l0.171,2.828l1.069-0.065l-0.153-2.548l1.386-0.084l0.153,2.549
			l1.116-0.067l-0.172-2.865l1.469-0.089l0.272,4.52L553.17,87.54z"/>
		<path fill="#4D9EDF" d="M552.704,81.303l-0.42-2.528c-0.145-0.864-0.023-1.555,0.33-2.039c0.299-0.418,0.762-0.704,1.414-0.812
			l0.047-0.009c0.955-0.158,1.631,0.21,2.084,0.834l2.115-1.713l0.311,1.867l-1.812,1.426l0.098,0.588l1.995-0.333l0.274,1.646
			L552.704,81.303z M555.419,78.318c-0.092-0.562-0.469-0.839-0.984-0.753l-0.019,0.003c-0.552,0.092-0.769,0.487-0.677,1.039
			l0.135,0.809l1.683-0.28L555.419,78.318z"/>
	</g>
	<path fill="#4D9EDF" d="M479.387,102.572c0,0,3.468,2.08,4.854,2.08c1.386,0-3.468,0-4.854-0.693S479.387,102.572,479.387,102.572z
		"/>
	<path fill="#4D9EDF" d="M478.85,106.5c-1.738-0.924,0-1.849,0-1.849s4.347,2.774,6.085,2.774"/>
	<path fill="#4D9EDF" d="M502.348,102.572c0,0-3.468,2.08-4.854,2.08c-1.386,0,3.468,0,4.854-0.693
		C503.735,103.265,502.348,102.572,502.348,102.572z"/>
	<path fill="#4D9EDF" d="M502.885,106.5c1.738-0.924,0-1.849,0-1.849s-4.347,2.774-6.085,2.774"/>
</g>
<g>
	<g>
		<defs>
			
				<rect id="SVGID_1_" x="326.421" y="-5.707" transform="matrix(-0.7071 0.7071 -0.7071 -0.7071 789.5278 -218.0325)" width="226.998" height="120.414"/>
		</defs>
		<clipPath id="SVGID_2_">
			<use xlink:href="#SVGID_1_"  overflow="visible"/>
		</clipPath>
		<g clip-path="url(#SVGID_2_)">
			<path fill="#2DC8A3" d="M491.356,166.977c-42.906,0-77.81-34.904-77.81-77.81c0-42.904,34.903-77.809,77.81-77.809
				c42.904,0,77.809,34.905,77.809,77.809C569.165,132.073,534.261,166.977,491.356,166.977z"/>
			<circle fill="#FFFFFF" cx="418.685" cy="86.792" r="1.128"/>
			<circle fill="#00DBA7" cx="491.356" cy="89.167" r="58.277"/>
			<path fill="#2F3030" d="M491.357,13.808c-41.626,0-75.354,33.742-75.354,75.353c0,30.151,17.692,56.162,43.249,68.201
				c9.747,4.6,20.623,7.166,32.104,7.166c11.829,0,23.039-2.734,33.002-7.605c25.074-12.236,42.351-37.979,42.351-67.762
				C566.71,47.55,532.968,13.808,491.357,13.808z M515.241,138.197c-7.212,3.528-15.322,5.504-23.884,5.504
				c-8.304,0-16.179-1.853-23.229-5.187c-18.498-8.713-31.303-27.535-31.303-49.353c0-30.116,24.41-54.527,54.532-54.527
				c30.115,0,54.526,24.411,54.526,54.527C545.884,110.713,533.382,129.347,515.241,138.197z"/>
			<path fill="#2F3030" d="M491.757,168.342c-11.796,0-23.144-2.533-33.729-7.531c-27.604-13.002-45.439-41.127-45.439-71.65
				c0-43.654,35.515-79.167,79.168-79.167c43.651,0,79.166,35.513,79.166,79.167c0,15.12-4.278,29.819-12.369,42.508
				c-7.876,12.352-18.984,22.271-32.123,28.682C515.587,165.653,503.922,168.342,491.757,168.342z M491.757,12.074
				c-42.506,0-77.087,34.581-77.087,77.086c0,29.723,17.367,57.108,44.246,69.769c10.306,4.866,21.354,7.332,32.841,7.332
				c11.844,0,23.203-2.617,33.76-7.779c26.725-13.042,43.325-39.604,43.325-69.321C568.842,46.655,534.262,12.074,491.757,12.074z"
				/>
			<g>
				
					<rect x="491.245" y="29.732" transform="matrix(-0.9691 -0.2465 0.2465 -0.9691 946.1735 295.6395)" fill="#2F3030" width="0.693" height="117.728"/>
				
					<rect x="491.001" y="30.293" transform="matrix(-0.987 -0.1607 0.1607 -0.987 961.9672 256.2946)" fill="#2F3030" width="0.693" height="117.909"/>
				
					<rect x="432.411" y="88.916" transform="matrix(0.0745 -0.9972 0.9972 0.0745 365.7437 572.6123)" fill="#2F3030" width="117.909" height="0.693"/>
				
					<rect x="432.412" y="88.915" transform="matrix(-0.0127 -0.9999 0.9999 -0.0127 408.3517 581.7204)" fill="#2F3030" width="117.907" height="0.693"/>
				
					<rect x="432.372" y="88.911" transform="matrix(-0.0997 -0.995 0.995 -0.0997 451.4987 587.0341)" fill="#2F3030" width="117.908" height="0.693"/>
				
					<rect x="432.398" y="88.906" transform="matrix(-0.1861 -0.9825 0.9825 -0.1861 495.1017 588.6301)" fill="#2F3030" width="117.907" height="0.693"/>
				
					<rect x="432.373" y="88.932" transform="matrix(-0.271 -0.9626 0.9626 -0.271 538.5406 586.4169)" fill="#2F3030" width="117.913" height="0.693"/>
				
					<rect x="432.401" y="88.926" transform="matrix(-0.3539 -0.9353 0.9353 -0.3539 581.7499 580.4243)" fill="#2F3030" width="117.912" height="0.693"/>
				
					<rect x="432.366" y="88.92" transform="matrix(-0.434 -0.9009 0.9009 -0.434 624.1344 570.6448)" fill="#2F3030" width="117.909" height="0.693"/>
				
					<rect x="432.388" y="88.903" transform="matrix(-0.5109 -0.8596 0.8596 -0.5109 665.655 557.2185)" fill="#2F3030" width="117.906" height="0.692"/>
				
					<rect x="432.406" y="88.902" transform="matrix(-0.5839 -0.8118 0.8118 -0.5839 705.8184 540.2551)" fill="#2F3030" width="117.908" height="0.692"/>
				
					<rect x="432.371" y="88.939" transform="matrix(-0.6524 -0.7579 0.7579 -0.6524 744.1949 519.9052)" fill="#2F3030" width="117.912" height="0.694"/>
				
					<rect x="432.39" y="88.918" transform="matrix(-0.716 -0.6981 0.6981 -0.716 780.8338 496.1848)" fill="#2F3030" width="117.91" height="0.692"/>
				
					<rect x="432.379" y="88.902" transform="matrix(-0.7741 -0.633 0.633 -0.7741 815.192 469.3641)" fill="#2F3030" width="117.906" height="0.693"/>
				
					<rect x="432.365" y="88.931" transform="matrix(-0.8263 -0.5632 0.5632 -0.8263 847.02 439.7635)" fill="#2F3030" width="117.907" height="0.693"/>
				
					<rect x="432.397" y="88.919" transform="matrix(-0.8723 -0.489 0.489 -0.8723 876.3016 407.3993)" fill="#2F3030" width="117.911" height="0.694"/>
				
					<rect x="432.396" y="88.911" transform="matrix(-0.9116 -0.4111 0.4111 -0.9116 902.5707 372.6183)" fill="#2F3030" width="117.911" height="0.694"/>
				
					<rect x="432.37" y="88.911" transform="matrix(-0.9439 -0.3301 0.3301 -0.9439 925.6365 335.7032)" fill="#2F3030" width="117.905" height="0.693"/>
				
					<rect x="432.572" y="88.891" transform="matrix(-0.9691 -0.2466 0.2466 -0.9691 945.694 296.9114)" fill="#2F3030" width="117.733" height="0.694"/>
				
					<rect x="432.376" y="88.923" transform="matrix(-0.9869 -0.1612 0.1612 -0.9869 961.842 256.5764)" fill="#2F3030" width="117.907" height="0.694"/>
				
					<rect x="491.022" y="30.31" transform="matrix(0.0732 -0.9973 0.9973 0.0732 366.3739 572.7806)" fill="#2F3030" width="0.693" height="117.909"/>
				
					<rect x="491.016" y="30.301" transform="matrix(-0.0113 -0.9999 0.9999 -0.0113 407.6679 581.5923)" fill="#2F3030" width="0.693" height="117.904"/>
				
					<rect x="490.986" y="30.297" transform="matrix(-0.0985 -0.9951 0.9951 -0.0985 450.9164 586.9829)" fill="#2F3030" width="0.694" height="117.904"/>
				
					<rect x="491.011" y="30.299" transform="matrix(-0.1861 -0.9825 0.9825 -0.1861 495.1097 588.6349)" fill="#2F3030" width="0.693" height="117.905"/>
				
					<rect x="490.982" y="30.316" transform="matrix(-0.2706 -0.9627 0.9627 -0.2706 538.3401 586.4265)" fill="#2F3030" width="0.693" height="117.911"/>
				
					<rect x="491.012" y="30.33" transform="matrix(-0.3524 -0.9359 0.9359 -0.3524 580.9445 580.5919)" fill="#2F3030" width="0.693" height="117.917"/>
				
					<rect x="490.97" y="30.318" transform="matrix(-0.4336 -0.9011 0.9011 -0.4336 623.9102 570.7075)" fill="#2F3030" width="0.694" height="117.907"/>
				
					<rect x="490.986" y="30.297" transform="matrix(-0.5097 -0.8603 0.8603 -0.5097 664.9927 557.4522)" fill="#2F3030" width="0.694" height="117.903"/>
				
					<rect x="490.995" y="30.297" transform="matrix(-0.5843 -0.8115 0.8115 -0.5843 706.0125 540.1354)" fill="#2F3030" width="0.692" height="117.904"/>
				
					<rect x="490.982" y="30.328" transform="matrix(-0.6517 -0.7585 0.7585 -0.6517 743.8018 520.1368)" fill="#2F3030" width="0.695" height="117.912"/>
				
					<rect x="490.991" y="30.31" transform="matrix(-0.7155 -0.6986 0.6986 -0.7155 780.5325 496.3846)" fill="#2F3030" width="0.693" height="117.908"/>
				
					<rect x="491.001" y="30.3" transform="matrix(-0.7734 -0.6339 0.6339 -0.7734 814.7809 469.752)" fill="#2F3030" width="0.693" height="117.907"/>
				
					<rect x="491.003" y="30.309" transform="matrix(-0.8266 -0.5628 0.5628 -0.8266 847.258 439.5802)" fill="#2F3030" width="0.692" height="117.911"/>
				
					<rect x="490.977" y="30.33" transform="matrix(-0.872 -0.4895 0.4895 -0.872 876.0542 407.645)" fill="#2F3030" width="0.694" height="117.909"/>
				
					<rect x="491.004" y="30.333" transform="matrix(-0.9115 -0.4114 0.4114 -0.9115 902.4649 372.8082)" fill="#2F3030" width="0.693" height="117.914"/>
				
					<rect x="491.007" y="30.304" transform="matrix(-0.9441 -0.3297 0.3297 -0.9441 925.8052 335.5256)" fill="#2F3030" width="0.693" height="117.912"/>
			</g>
			<path fill="#FFFFFF" d="M459.788,89.175c0.004-0.006,0.006-0.012,0.008-0.017C459.794,89.172,459.792,89.18,459.788,89.175z"/>
			<g>
				
					<rect x="491.203" y="29.705" transform="matrix(-0.993 -0.1183 0.1183 -0.993 969.169 234.6712)" fill="#2F3030" width="0.693" height="117.735"/>
				
					<rect x="490.998" y="30.327" transform="matrix(-0.9995 -0.031 0.031 -0.9995 979.6869 193.7499)" fill="#2F3030" width="0.694" height="117.908"/>
				
					<rect x="432.385" y="88.939" transform="matrix(-0.0554 -0.9985 0.9985 -0.0554 429.4141 584.8199)" fill="#2F3030" width="117.915" height="0.693"/>
				
					<rect x="432.388" y="88.902" transform="matrix(-0.1422 -0.9898 0.9898 -0.1422 472.8697 588.2876)" fill="#2F3030" width="117.905" height="0.694"/>
				
					<rect x="432.413" y="88.94" transform="matrix(-0.228 -0.9737 0.9737 -0.228 516.4636 588.0728)" fill="#2F3030" width="117.914" height="0.694"/>
				
					<rect x="432.42" y="88.927" transform="matrix(-0.312 -0.9501 0.9501 -0.312 559.8655 583.9758)" fill="#2F3030" width="117.912" height="0.694"/>
				
					<rect x="432.409" y="88.928" transform="matrix(-0.3936 -0.9193 0.9193 -0.3936 602.6949 576.1166)" fill="#2F3030" width="117.912" height="0.693"/>
				
					<rect x="432.407" y="88.924" transform="matrix(-0.4722 -0.8815 0.8815 -0.4722 644.6909 564.5569)" fill="#2F3030" width="117.911" height="0.693"/>
				
					<rect x="432.384" y="88.928" transform="matrix(-0.5472 -0.837 0.837 -0.5472 685.4788 549.3771)" fill="#2F3030" width="117.911" height="0.693"/>
				
					<rect x="432.406" y="88.919" transform="matrix(-0.6181 -0.7861 0.7861 -0.6181 724.8994 530.6986)" fill="#2F3030" width="117.91" height="0.693"/>
				
					<rect x="432.429" y="88.904" transform="matrix(-0.6843 -0.7292 0.7292 -0.6843 762.5564 508.6429)" fill="#2F3030" width="117.911" height="0.693"/>
				
					<rect x="432.401" y="88.905" transform="matrix(-0.7452 -0.6668 0.6668 -0.7452 798.0079 483.4086)" fill="#2F3030" width="117.908" height="0.694"/>
				
					<rect x="432.404" y="88.907" transform="matrix(-0.8005 -0.5993 0.5993 -0.8005 831.2072 455.1802)" fill="#2F3030" width="117.909" height="0.694"/>
				
					<rect x="432.399" y="88.937" transform="matrix(-0.8497 -0.5273 0.5273 -0.8497 861.774 424.2332)" fill="#2F3030" width="117.913" height="0.693"/>
				
					<rect x="432.399" y="88.908" transform="matrix(-0.8924 -0.4512 0.4512 -0.8924 889.5736 390.6093)" fill="#2F3030" width="117.908" height="0.693"/>
				
					<rect x="432.385" y="88.908" transform="matrix(-0.9283 -0.3717 0.3717 -0.9283 914.288 354.7542)" fill="#2F3030" width="117.903" height="0.695"/>
				
					<rect x="432.397" y="88.922" transform="matrix(-0.9572 -0.2894 0.2894 -0.9572 935.843 316.9155)" fill="#2F3030" width="117.909" height="0.694"/>
				
					<rect x="432.404" y="88.933" transform="matrix(-0.9788 -0.2049 0.2049 -0.9788 954.0015 277.344)" fill="#2F3030" width="117.911" height="0.694"/>
				
					<rect x="432.585" y="88.871" transform="matrix(-0.9929 -0.1188 0.1188 -0.9929 968.8212 236.189)" fill="#2F3030" width="117.732" height="0.693"/>
				
					<rect x="432.407" y="88.911" transform="matrix(-0.9995 -0.0318 0.0318 -0.9995 979.6361 194.0968)" fill="#2F3030" width="117.91" height="0.694"/>
				
					<rect x="491.009" y="30.309" transform="matrix(-0.0564 -0.9984 0.9984 -0.0564 429.9464 584.8711)" fill="#2F3030" width="0.693" height="117.91"/>
				
					<rect x="490.999" y="30.309" transform="matrix(-0.141 -0.99 0.99 -0.141 472.2541 588.2853)" fill="#2F3030" width="0.692" height="117.908"/>
				
					<rect x="491.006" y="30.32" transform="matrix(-0.2266 -0.974 0.974 -0.2266 515.7404 588.0767)" fill="#2F3030" width="0.694" height="117.908"/>
				
					<rect x="491.027" y="30.306" transform="matrix(-0.3116 -0.9502 0.9502 -0.3116 559.671 583.9824)" fill="#2F3030" width="0.693" height="117.909"/>
				
					<rect x="491.006" y="30.332" transform="matrix(-0.3946 -0.9189 0.9189 -0.3946 603.1871 576.0073)" fill="#2F3030" width="0.693" height="117.916"/>
				
					<rect x="490.994" y="30.316" transform="matrix(-0.4718 -0.8817 0.8817 -0.4718 644.4467 564.6054)" fill="#2F3030" width="0.693" height="117.908"/>
				
					<rect x="491.014" y="30.292" transform="matrix(-0.5482 -0.8363 0.8363 -0.5482 686.0992 549.1124)" fill="#2F3030" width="0.695" height="117.904"/>
				
					<rect x="491.003" y="30.3" transform="matrix(-0.6183 -0.7859 0.7859 -0.6183 725.015 530.6044)" fill="#2F3030" width="0.693" height="117.905"/>
				
					<rect x="490.999" y="30.304" transform="matrix(-0.6834 -0.73 0.73 -0.6834 761.9829 508.9486)" fill="#2F3030" width="0.692" height="117.904"/>
				
					<rect x="491.018" y="30.3" transform="matrix(-0.7454 -0.6666 0.6666 -0.7454 798.1346 483.3326)" fill="#2F3030" width="0.694" height="117.909"/>
				
					<rect x="491.009" y="30.315" transform="matrix(-0.8 -0.6 0.6 -0.8 830.878 455.4983)" fill="#2F3030" width="0.693" height="117.909"/>
				
					<rect x="491" y="30.321" transform="matrix(-0.8498 -0.5271 0.5271 -0.8498 861.8372 424.132)" fill="#2F3030" width="0.693" height="117.909"/>
				
					<rect x="491.034" y="30.304" transform="matrix(-0.8922 -0.4517 0.4517 -0.8922 889.4586 390.8472)" fill="#2F3030" width="0.692" height="117.913"/>
				
					<rect x="491.015" y="30.326" transform="matrix(-0.9283 -0.3719 0.3719 -0.9283 914.2773 354.8921)" fill="#2F3030" width="0.693" height="117.912"/>
				
					<rect x="490.988" y="30.3" transform="matrix(-0.9571 -0.2899 0.2899 -0.9571 935.6933 317.1135)" fill="#2F3030" width="0.694" height="117.902"/>
				
					<rect x="491.01" y="30.314" transform="matrix(-0.9787 -0.2053 0.2053 -0.9787 953.9203 277.5114)" fill="#2F3030" width="0.694" height="117.909"/>
			</g>
			<path fill="#00DBA7" d="M491.356,145.48c-31.052,0-56.312-25.261-56.312-56.312s25.261-56.312,56.312-56.312
				c31.05,0,56.312,25.261,56.312,56.312C547.668,120.219,522.406,145.48,491.356,145.48z M491.356,35.629
				c-29.521,0-53.539,24.018-53.539,53.539s24.018,53.538,53.539,53.538c29.521,0,53.539-24.017,53.539-53.538
				C544.896,59.646,520.877,35.629,491.356,35.629z"/>
		</g>
	</g>
</g>
<circle fill="#2F3030" cx="491.356" cy="89.167" r="35.855"/>
<path fill="#00DBA7" d="M502.964,62.497h-23.577l0.261,48h0.031c0.317,2,5.312,3.617,11.444,3.617
	c6.255,0,11.331-1.617,11.463-3.617h0.021L502.964,62.497z"/>
<path fill="#2F3030" d="M519.392,84.399c0,11.176-6.486,20.842-15.898,25.433c-0.307,0.15-0.576,0.167-0.891,0.303v-9.181
	l-0.047,0.117c0-0.008,0.003-0.016,0.003-0.022c0-1.103-1.782-2.074-4.536-2.692c-0.026-0.005-0.053-0.012-0.075-0.02
	c-1.408-0.34-2.618-0.514-2.618-0.514s6.799-0.91,6.799-3.472c0-2.286-7.426-2.866-7.426-2.866s7.332-1.217,7.332-3.332
	c0-1.674-7.808-2.916-7.808-2.916s7.619-1.062,7.619-3.352c0-1.956-7.067-2.987-7.067-2.987s6.867-0.718,6.867-3.208
	c0-1.914-7.236-3.134-7.236-3.134s7.165-0.881,7.165-3.067c0-2.845-9.467-3.506-9.467-3.506l-1.484,1.828c0,0,6.49,0.59,6.49,1.605
	c0,1.02-15.825,2.043-15.934,2.051c-0.249,0.141-0.616,1.799-0.185,2.111c0.301,0.225,15.905,0.799,15.905,2.105
	c0,1.303-14.312,2.201-15.905,2.296c-0.759,0.427-0.99,1.519-0.182,2.111s16.215,0.649,16.215,1.931
	c0,1.272-15.301,2.149-15.916,2.187c-0.764,0.423-0.994,1.515-0.186,2.111c0.306,0.224,15.974,0.737,15.974,2.037
	c0,1.307-14.852,2.349-15.648,2.398c-0.768,0.431-0.995,1.522-0.187,2.111c0.304,0.227,15.835,0.249,15.835,1.549
	c0,1.307-14.38,2.466-15.565,2.531c-0.725,0.411-0.968,1.835-0.291,2.485c-0.888,0.477-1.397,1.031-1.397,1.616v9.217
	c-0.199-0.087-0.394-0.179-0.591-0.269c-9.594-4.521-16.238-14.285-16.238-25.598c0-15.624,12.662-28.29,28.285-28.29
	C506.725,56.109,519.392,68.775,519.392,84.399z"/>
<g>
	<path fill="#2F3030" d="M491.357,31.308c31.9,0,57.853,25.953,57.853,57.853c0,11.052-3.122,21.79-9.028,31.052
		c-5.763,9.038-13.888,16.293-23.508,20.987c-7.909,3.867-16.427,5.827-25.316,5.827c-8.627,0-16.915-1.848-24.646-5.498
		c-9.785-4.609-18.075-11.865-23.972-20.981c-6.042-9.34-9.235-20.193-9.235-31.388C433.504,57.261,459.457,31.308,491.357,31.308
		 M491.357,14.308c-41.349,0-74.854,33.518-74.854,74.853c0,29.951,17.575,55.789,42.963,67.748
		c9.682,4.57,20.485,7.118,31.891,7.118c11.751,0,22.886-2.716,32.783-7.555c24.907-12.154,42.069-37.728,42.069-67.312
		C566.21,47.826,532.69,14.308,491.357,14.308L491.357,14.308z"/>
</g>
<g>
	<g>
		<path fill="#00DBA7" d="M423.025,102.58l-0.261-1.815l3.732-1.491l-4.035-0.482l-0.212-1.48l3.735-1.608l-4.002-0.381
			l-0.255-1.776l6.99,0.897l0.227,1.576l-3.541,1.609l3.85,0.548l0.226,1.575L423.025,102.58z"/>
		<path fill="#00DBA7" d="M421.692,91.176l-0.052-4.649l1.523-0.018l0.034,2.933l1.109-0.012l-0.03-2.644l1.438-0.016l0.029,2.643
			L426.9,89.4l-0.033-2.971l1.523-0.018l0.054,4.689L421.692,91.176z"/>
		<path fill="#00DBA7" d="M421.751,83.908l0.276-2.784c0.079-0.808,0.333-1.413,0.775-1.766c0.296-0.252,0.677-0.38,1.158-0.332
			l0.038,0.003c0.768,0.076,1.186,0.564,1.38,1.145c0.34-0.693,0.831-1.16,1.716-1.071l0.038,0.003
			c1.152,0.114,1.773,1.087,1.617,2.671l-0.276,2.794L421.751,83.908z M424.146,80.771c-0.403-0.04-0.652,0.227-0.704,0.745
			l-0.085,0.854l1.259,0.125l0.081-0.826c0.054-0.527-0.128-0.856-0.541-0.896L424.146,80.771z M425.983,81.612l-0.1,1.008
			l1.316,0.131l0.1-1.019c0.054-0.538-0.155-0.878-0.568-0.919h-0.01C426.328,80.773,426.04,81.046,425.983,81.612z"/>
		<path fill="#00DBA7" d="M422.664,76.194l0.586-2.738c0.169-0.793,0.489-1.366,0.968-1.669c0.324-0.216,0.716-0.302,1.188-0.2
			l0.037,0.008c0.756,0.162,1.116,0.693,1.244,1.292c0.416-0.651,0.958-1.059,1.825-0.874l0.038,0.008
			c1.133,0.242,1.643,1.28,1.309,2.836l-0.587,2.747L422.664,76.194z M425.396,73.342c-0.396-0.084-0.674,0.152-0.783,0.662
			l-0.179,0.841l1.236,0.264l0.174-0.812c0.111-0.519-0.032-0.865-0.438-0.953L425.396,73.342z M427.128,74.383l-0.211,0.992
			l1.293,0.276l0.214-1c0.113-0.529-0.056-0.891-0.463-0.978l-0.009-0.001C427.564,73.589,427.247,73.827,427.128,74.383z"/>
		<path fill="#00DBA7" d="M428.886,68.708l-4.694,0.733l0.603-1.823l2.673-0.305l-1.96-1.847l0.595-1.796l3.312,3.383l2.419,0.801
			l-0.547,1.648L428.886,68.708z"/>
		<path fill="#00DBA7" d="M429.173,56.834l0.82-1.551l7.116,1.07l-0.854,1.611l-1.259-0.219l-0.992,1.875l0.895,0.91l-0.836,1.576
			L429.173,56.834z M433.567,57.479l-2.042-0.371l1.455,1.479L433.567,57.479z"/>
		<path fill="#00DBA7" d="M431.818,51.924l1.067-1.49l3.728,1.507l-2.58-3.143l0.872-1.215l3.811,1.425l-2.626-3.045l1.046-1.459
			l4.426,5.487l-0.927,1.294l-3.672-1.29l2.401,3.062l-0.928,1.294L431.818,51.924z"/>
		<path fill="#00DBA7" d="M439.758,41.66l1.205-1.277l6.573,2.932l-1.251,1.326l-1.156-0.548l-1.457,1.543l0.619,1.115l-1.227,1.297
			L439.758,41.66z M443.821,43.454l-1.868-0.902l1.008,1.814L443.821,43.454z"/>
		<path fill="#00DBA7" d="M444.273,37.175l2.029-1.709c0.695-0.583,1.374-0.84,1.992-0.78c0.529,0.044,1.027,0.306,1.469,0.831
			l0.03,0.036c0.646,0.768,0.676,1.565,0.358,2.298l2.642,0.979l-1.498,1.262l-2.228-0.862l-0.472,0.398l1.349,1.602l-1.32,1.112
			L444.273,37.175z M448.365,38.019c0.449-0.379,0.498-0.861,0.149-1.274l-0.012-0.014c-0.373-0.443-0.84-0.429-1.283-0.056
			l-0.649,0.547l1.138,1.351L448.365,38.019z"/>
		<path fill="#00DBA7" d="M450.327,32.284l1.851-1.222c1.811-1.194,3.563-0.779,4.657,0.879l0.063,0.097
			c1.094,1.658,0.798,3.469-1.028,4.675l-1.828,1.205L450.327,32.284z M452.63,32.624l2.006,3.042l0.419-0.276
			c0.806-0.53,1.031-1.361,0.367-2.367l-0.047-0.072c-0.669-1.014-1.521-1.133-2.327-0.603L452.63,32.624z"/>
		<path fill="#00DBA7" d="M459.921,26.403l1.696-0.698l2.364,3.253l-0.524-4.032l1.383-0.57l2.479,3.227l-0.615-3.974l1.659-0.685
			l0.85,7l-1.472,0.607l-2.432-3.037l0.415,3.869l-1.472,0.608L459.921,26.403z"/>
		<path fill="#00DBA7" d="M470.588,22.367l1.671-0.478l1.857,6.496l-1.67,0.478L470.588,22.367z"/>
		<path fill="#00DBA7" d="M474.834,21.194l1.602-0.302l2.837,2.917l-0.63-3.334l1.678-0.316l1.253,6.631l-1.516,0.286l-2.951-3.044
			l0.658,3.477l-1.677,0.317L474.834,21.194z"/>
		<path fill="#00DBA7" d="M483.107,19.804l1.627-0.105l2.462,3.241l-0.22-3.388l1.704-0.11l0.438,6.736l-1.54,0.1l-2.559-3.381
			l0.229,3.532l-1.703,0.111L483.107,19.804z"/>
		<path fill="#00DBA7" d="M491.444,19.446l4.643,0.223l-0.072,1.523l-2.929-0.141l-0.054,1.108l2.641,0.127l-0.07,1.435
			l-2.639-0.126l-0.057,1.156l2.968,0.143l-0.074,1.521l-4.683-0.226L491.444,19.446z"/>
		<path fill="#00DBA7" d="M498.675,19.926l2.62,0.413c0.896,0.141,1.534,0.485,1.896,0.992c0.312,0.429,0.44,0.977,0.334,1.653
			l-0.007,0.048c-0.156,0.991-0.739,1.533-1.501,1.774l0.991,2.636l-1.933-0.303l-0.81-2.247l-0.609-0.096l-0.325,2.067
			l-1.706-0.269L498.675,19.926z M500.719,23.568c0.582,0.092,0.977-0.188,1.062-0.721l0.002-0.02
			c0.091-0.571-0.227-0.914-0.799-1.004l-0.839-0.132l-0.273,1.744L500.719,23.568z"/>
	</g>
</g>
<rect x="441.923" y="133.497" fill="#00DBA7" width="4" height="4"/>
<rect x="535.923" y="40.497" fill="#00DBA7" width="4" height="4"/>
<g>
	<path fill="#2AACED" d="M478.542,150.705l2.339,0.397c1.544,0.262,2.417,1.237,2.168,2.706l-0.006,0.038
		c-0.266,1.572-1.535,2.126-2.969,1.903l-0.646-0.11l-0.322,1.898l-1.674-0.283L478.542,150.705z M480.251,154.363
		c0.59,0.1,1.003-0.187,1.097-0.738l0.005-0.028c0.103-0.599-0.192-0.966-0.8-1.069l-0.58-0.098l-0.312,1.833L480.251,154.363z"/>
	<path fill="#2AACED" d="M484.868,151.693l4.556,0.312l-0.102,1.494l-2.873-0.197l-0.075,1.086l2.589,0.177l-0.096,1.409
		l-2.59-0.177l-0.077,1.134l2.91,0.199l-0.103,1.493l-4.593-0.314L484.868,151.693z"/>
	<path fill="#2AACED" d="M490.965,155.454l-0.006-0.143c-0.079-1.978,1.162-3.42,2.94-3.491c1.788-0.072,3.121,1.25,3.2,3.237
		l0.005,0.141c0.079,1.978-1.162,3.42-2.94,3.492C492.376,158.762,491.043,157.44,490.965,155.454z M495.363,155.259l-0.004-0.104
		c-0.046-1.146-0.622-1.823-1.408-1.793c-0.785,0.032-1.297,0.744-1.252,1.889l0.005,0.104c0.046,1.146,0.623,1.824,1.408,1.792
		C494.907,157.116,495.409,156.404,495.363,155.259z"/>
	<path fill="#2AACED" d="M498.589,151.621l2.342-0.355c1.546-0.235,2.68,0.417,2.902,1.887l0.006,0.038
		c0.24,1.574-0.789,2.496-2.219,2.733l-0.646,0.099l0.289,1.901l-1.677,0.255L498.589,151.621z M501.354,154.555
		c0.59-0.09,0.893-0.491,0.809-1.043l-0.004-0.028c-0.091-0.599-0.484-0.855-1.094-0.763l-0.58,0.088l0.279,1.836L501.354,154.555z"
		/>
	<path fill="#2AACED" d="M504.908,150.552l1.654-0.42l1.253,4.945l2.528-0.641l0.378,1.49l-4.183,1.061L504.908,150.552z"/>
	<path fill="#2AACED" d="M510.449,149.083l4.301-1.534l0.503,1.409l-2.712,0.968l0.366,1.026l2.444-0.873l0.475,1.33l-2.445,0.872
		l0.382,1.071l2.748-0.98l0.503,1.41l-4.337,1.547L510.449,149.083z"/>
	<path fill="#2AACED" d="M517.238,149.315c0.542-0.347,0.678-0.762,0.479-1.182l-0.666,0.299l-0.715-1.592l1.601-0.719l0.587,1.307
		c0.524,1.169,0.086,1.906-0.899,2.421L517.238,149.315z"/>
	<path fill="#2AACED" d="M521.881,150.666l0.203-1.526c0.688,0.132,1.375,0.104,1.939-0.207c0.4-0.217,0.513-0.505,0.376-0.755
		l-0.004-0.008c-0.128-0.233-0.381-0.28-1.193-0.148c-1.304,0.225-2.294,0.249-2.872-0.809l-0.014-0.025
		c-0.576-1.056-0.173-2.237,1.099-2.933c0.782-0.427,1.591-0.587,2.466-0.429l-0.147,1.529c-0.567-0.089-1.173-0.051-1.646,0.208
		c-0.342,0.186-0.442,0.456-0.323,0.673l0.004,0.008c0.141,0.257,0.396,0.291,1.287,0.162c1.302-0.247,2.237-0.174,2.778,0.816
		l0.009,0.016c0.617,1.131,0.125,2.307-1.123,2.988C523.854,150.7,522.885,150.883,521.881,150.666z"/>
	<path fill="#2AACED" d="M527.017,141.007l1.476-1.13l3.483,2.54l-1.548-4.021l1.446-1.106l2.278,6.661l-1.303,0.996
		L527.017,141.007z"/>
	<path fill="#2AACED" d="M534.871,139.196l-0.099-0.103c-1.368-1.432-1.393-3.336-0.105-4.568c1.295-1.238,3.171-1.127,4.545,0.311
		l0.099,0.103c1.369,1.432,1.393,3.336,0.104,4.567C538.12,140.744,536.246,140.634,534.871,139.196z M538.044,136.137l-0.072-0.076
		c-0.793-0.829-1.675-0.957-2.244-0.413c-0.567,0.544-0.48,1.418,0.312,2.247l0.072,0.076c0.792,0.829,1.674,0.955,2.242,0.412
		C538.931,137.833,538.836,136.966,538.044,136.137z"/>
	<path fill="#2AACED" d="M538.075,131.206l1.127-1.281l4.984,4.38l-1.126,1.282L538.075,131.206z"/>
	<path fill="#2AACED" d="M543.06,130.641l-0.092-0.068c-1.645-1.221-1.922-3.092-0.881-4.494c0.621-0.838,1.373-1.167,2.206-1.222
		l0.28,1.579c-0.443,0.025-0.886,0.146-1.197,0.564c-0.463,0.625-0.252,1.502,0.653,2.175l0.031,0.023
		c0.952,0.707,1.828,0.624,2.286,0.007c0.339-0.458,0.299-0.912,0.198-1.365l1.528-0.213c0.211,0.83,0.15,1.707-0.511,2.598
		C546.55,131.588,544.72,131.873,543.06,130.641z"/>
	<path fill="#2AACED" d="M544.314,123.104l2.335-3.927l1.287,0.766l-1.473,2.477l0.937,0.557l1.328-2.231l1.214,0.722l-1.328,2.232
		l0.978,0.581l1.493-2.508l1.287,0.766l-2.355,3.958L544.314,123.104z"/>
	<path fill="#2AACED" d="M548.604,115.52l0.634-1.688l3.922,0.479l-3.25-2.324l0.518-1.376l3.98,0.38l-3.27-2.221l0.619-1.652
		l5.603,4.08l-0.551,1.464l-3.813-0.287l3.061,2.294l-0.551,1.464L548.604,115.52z"/>
	<path fill="#2AACED" d="M551.996,105.739l0.426-1.652l6.428,1.654l-0.426,1.652L551.996,105.739z"/>
	<path fill="#2AACED" d="M552.906,102.201l0.262-1.58l3.651-1.638l-3.292-0.542l0.271-1.657l6.549,1.08l-0.247,1.497l-3.807,1.697
		l3.434,0.566l-0.273,1.656L552.906,102.201z"/>
	<path fill="#2AACED" d="M553.995,94.965l0.076-1.602l3.44-2.047l-3.335-0.16l0.08-1.676l6.632,0.317l-0.073,1.515l-3.586,2.126
		l3.477,0.167l-0.08,1.676L553.995,94.965z"/>
	<path fill="#2AACED" d="M554.225,87.603l-0.275-4.561l1.495-0.09l0.174,2.876l1.088-0.066l-0.157-2.593l1.41-0.084l0.156,2.592
		l1.137-0.068l-0.177-2.915l1.495-0.09l0.277,4.598L554.225,87.603z"/>
	<path fill="#2AACED" d="M553.759,81.271l-0.424-2.572c-0.145-0.879-0.021-1.582,0.341-2.073c0.305-0.425,0.775-0.715,1.439-0.824
		l0.047-0.008c0.973-0.161,1.66,0.217,2.119,0.851l2.155-1.738l0.312,1.898l-1.846,1.449l0.099,0.599l2.029-0.336l0.277,1.676
		L553.759,81.271z M556.526,78.24c-0.094-0.57-0.477-0.854-1.001-0.767l-0.019,0.003c-0.562,0.092-0.783,0.494-0.69,1.056
		l0.136,0.823l1.712-0.282L556.526,78.24z"/>
</g>
<path fill="#2F3030" d="M479.387,102.572c0,0,3.468,2.08,4.854,2.08c1.386,0-3.468,0-4.854-0.693S479.387,102.572,479.387,102.572z"
	/>
<path fill="#2F3030" d="M478.85,106.5c-1.738-0.924,0-1.849,0-1.849s4.347,2.774,6.085,2.774"/>
<path fill="#2F3030" d="M502.348,102.572c0,0-3.468,2.08-4.854,2.08c-1.386,0,3.468,0,4.854-0.693
	C503.735,103.265,502.348,102.572,502.348,102.572z"/>
<path fill="#2F3030" d="M502.885,106.5c1.738-0.924,0-1.849,0-1.849s-4.347,2.774-6.085,2.774"/>
</svg>
